<?xml version="1.0" encoding="UTF-8" standalone="no"?><svg xmlns="http://www.w3.org/2000/svg" xmlns:xlink="http://www.w3.org/1999/xlink" clip-rule="evenodd" stroke-miterlimit="10" viewBox="0 0 1920 1080"><desc>SVG generated by Keynote</desc><defs></defs><g transform="matrix(1.00, 0.00, -0.00, -1.00, 0.0, 1080.0)"><path d="M 0.0 1080.0 L 1920.0 1080.0 L 1920.0 0.0 L 0.0 0.0 Z M 0.0 1080.0 " fill="#FEFFFF"></path><path d="M 0.0 1080.0 L 1920.0 1080.0 L 1920.0 0.0 L 0.0 0.0 Z M -0.0 1080.0 " fill="#252525"></path><text xml:space="preserve" font-family="SharpSansNo1-Bold,Sharp Sans No1" font-weight="bold" font-size="42.0" fill="#FFFFFF" transform="matrix(1.00, 0.00, -0.00, -1.00, 851.7, 551.9)">/</text><text xml:space="preserve" font-family="SharpSansNo1-Bold,Sharp Sans No1" font-weight="bold" font-size="42.0" fill="#FFFFFF" transform="matrix(1.00, 0.00, -0.00, -1.00, 873.2, 551.9)">/</text><text xml:space="preserve" font-family="SharpSansNo1-Bold,Sharp Sans No1" font-weight="bold" font-size="42.0" fill="#FFFFFF" transform="matrix(1.00, 0.00, -0.00, -1.00, 894.8, 551.9)"> </text><text xml:space="preserve" font-family="SharpSansNo1-Bold,Sharp Sans No1" font-weight="bold" font-size="42.0" fill="#FFFFFF" transform="matrix(1.00, 0.00, -0.00, -1.00, 905.0, 551.9)">T</text><text xml:space="preserve" font-family="SharpSansNo1-Bold,Sharp Sans No1" font-weight="bold" font-size="42.0" fill="#FFFFFF" transform="matrix(1.00, 0.00, -0.00, -1.00, 929.3, 551.9)">E</text><text xml:space="preserve" font-family="SharpSansNo1-Bold,Sharp Sans No1" font-weight="bold" font-size="42.0" fill="#FFFFFF" transform="matrix(1.00, 0.00, -0.00, -1.00, 950.5, 551.9)">S</text><text xml:space="preserve" font-family="SharpSansNo1-Bold,Sharp Sans No1" font-weight="bold" font-size="42.0" fill="#FFFFFF" transform="matrix(1.00, 0.00, -0.00, -1.00, 973.1, 551.9)">T</text><text xml:space="preserve" font-family="SharpSansNo1-Bold,Sharp Sans No1" font-weight="bold" font-size="42.0" fill="#FFFFFF" transform="matrix(1.00, 0.00, -0.00, -1.00, 997.3, 551.9)">I</text><text xml:space="preserve" font-family="SharpSansNo1-Bold,Sharp Sans No1" font-weight="bold" font-size="42.0" fill="#FFFFFF" transform="matrix(1.00, 0.00, -0.00, -1.00, 1006.9, 551.9)">N</text><text xml:space="preserve" font-family="SharpSansNo1-Bold,Sharp Sans No1" font-weight="bold" font-size="42.0" fill="#FFFFFF" transform="matrix(1.00, 0.00, -0.00, -1.00, 1035.8, 551.9)">G</text></g></svg>