<?xml version="1.0" encoding="UTF-8" standalone="no"?><svg xmlns="http://www.w3.org/2000/svg" xmlns:xlink="http://www.w3.org/1999/xlink" clip-rule="evenodd" stroke-miterlimit="10" viewBox="0 0 1920 1080"><desc>SVG generated by Keynote</desc><defs></defs><g transform="matrix(1.00, 0.00, -0.00, -1.00, 0.0, 1080.0)"><path d="M 0.0 1080.0 L 1920.0 1080.0 L 1920.0 0.0 L 0.0 0.0 Z M 0.0 1080.0 " fill="#000000"></path><g opacity="0.50"><g><clipPath id="clip0x7f8417f6f2e0"><path d="M 0.0 0.0 L 1920.0 0.0 L 1920.0 1080.0 L 0.0 1080.0 Z M 0.0 0.0 "></path></clipPath><g clip-path="url(#clip0x7f8417f6f2e0)"><image xlink:href="../../D72AB7D1-63E3-474A-A4CE-E36D151165EB/assets/105A14A240544860D59346E091B0BB9F.png" width="320.00" height="172.00" transform="matrix(6.36, 0.00, -0.00, -6.36, -74.1, 1087.1)"></image></g></g></g><path d="M 0.0 0.0 L 80.0 0.0 L 84.0 0.0 " fill="none" stroke="#FEFFFE" stroke-width="8.00" transform="matrix(-0.48, 0.88, 0.88, 0.48, 1705.8, 419.6)"></path><path d="M 1681.4 497.4 L 1652.8 517.4 L 1654.0 482.5 Z M 1681.4 497.4 " fill="#FEFFFE"></path><path d="M 0.0 0.0 L 83.2 0.0 L 87.2 0.0 " fill="none" stroke="#FEFFFE" stroke-width="8.00" transform="matrix(0.54, -0.84, -0.84, -0.54, 761.0, 958.3)"></path><path d="M 793.1 880.0 L 823.2 862.3 L 819.3 897.0 Z M 793.1 880.0 " fill="#FEFFFE"></path><path d="M 0.0 0.0 L 80.0 0.0 L 84.0 0.0 " fill="none" stroke="#FEFFFE" stroke-width="8.00" transform="matrix(-0.48, 0.88, 0.88, 0.48, 535.4, 186.1)"></path><path d="M 510.9 263.8 L 482.3 283.8 L 483.5 249.0 Z M 510.9 263.8 " fill="#FEFFFE"></path></g></svg>