<?xml version="1.0" encoding="UTF-8" standalone="no"?><svg xmlns="http://www.w3.org/2000/svg" xmlns:xlink="http://www.w3.org/1999/xlink" clip-rule="evenodd" stroke-miterlimit="10" viewBox="0 0 1920 1080"><desc>SVG generated by Keynote</desc><defs></defs><g transform="matrix(1.00, 0.00, -0.00, -1.00, 0.0, 1080.0)"><path d="M 0.0 1080.0 L 1920.0 1080.0 L 1920.0 0.0 L 0.0 0.0 Z M 0.0 1080.0 " fill="#FEFFFF"></path><path d="M 0.0 1080.0 L 1920.0 1080.0 L 1920.0 0.0 L 0.0 0.0 Z M -0.0 1080.0 " fill="#252525"></path><text xml:space="preserve" font-family="SharpSansNo1-Bold,Sharp Sans No1" font-weight="bold" font-size="42.0" fill="#FFFFFF" transform="matrix(1.00, 0.00, -0.00, -1.00, 846.5, 551.9)">/</text><text xml:space="preserve" font-family="SharpSansNo1-Bold,Sharp Sans No1" font-weight="bold" font-size="42.0" fill="#FFFFFF" transform="matrix(1.00, 0.00, -0.00, -1.00, 868.0, 551.9)">/</text><text xml:space="preserve" font-family="SharpSansNo1-Bold,Sharp Sans No1" font-weight="bold" font-size="42.0" fill="#FFFFFF" transform="matrix(1.00, 0.00, -0.00, -1.00, 889.5, 551.9)"> </text><text xml:space="preserve" font-family="SharpSansNo1-Bold,Sharp Sans No1" font-weight="bold" font-size="42.0" fill="#FFFFFF" transform="matrix(1.00, 0.00, -0.00, -1.00, 899.8, 551.9)">P</text><text xml:space="preserve" font-family="SharpSansNo1-Bold,Sharp Sans No1" font-weight="bold" font-size="42.0" fill="#FFFFFF" transform="matrix(1.00, 0.00, -0.00, -1.00, 924.2, 551.9)">R</text><text xml:space="preserve" font-family="SharpSansNo1-Bold,Sharp Sans No1" font-weight="bold" font-size="42.0" fill="#FFFFFF" transform="matrix(1.00, 0.00, -0.00, -1.00, 948.4, 551.9)">O</text><text xml:space="preserve" font-family="SharpSansNo1-Bold,Sharp Sans No1" font-weight="bold" font-size="42.0" fill="#FFFFFF" transform="matrix(1.00, 0.00, -0.00, -1.00, 981.5, 551.9)"> </text><text xml:space="preserve" font-family="SharpSansNo1-Bold,Sharp Sans No1" font-weight="bold" font-size="42.0" fill="#FFFFFF" transform="matrix(1.00, 0.00, -0.00, -1.00, 991.8, 551.9)">T</text><text xml:space="preserve" font-family="SharpSansNo1-Bold,Sharp Sans No1" font-weight="bold" font-size="42.0" fill="#FFFFFF" transform="matrix(1.00, 0.00, -0.00, -1.00, 1016.0, 551.9)">I</text><text xml:space="preserve" font-family="SharpSansNo1-Bold,Sharp Sans No1" font-weight="bold" font-size="42.0" fill="#FFFFFF" transform="matrix(1.00, 0.00, -0.00, -1.00, 1025.6, 551.9)">P</text><text xml:space="preserve" font-family="SharpSansNo1-Bold,Sharp Sans No1" font-weight="bold" font-size="42.0" fill="#FFFFFF" transform="matrix(1.00, 0.00, -0.00, -1.00, 1049.9, 551.9)">S</text></g></svg>