<?xml version="1.0" encoding="UTF-8" standalone="no"?><svg xmlns="http://www.w3.org/2000/svg" xmlns:xlink="http://www.w3.org/1999/xlink" clip-rule="evenodd" stroke-miterlimit="10" viewBox="0 0 1920 1080"><desc>SVG generated by Keynote</desc><defs></defs><g transform="matrix(1.00, 0.00, -0.00, -1.00, 0.0, 1080.0)"><path d="M 0.0 1080.0 L 1920.0 1080.0 L 1920.0 0.0 L 0.0 0.0 Z M 0.0 1080.0 " fill="#FEFFFF"></path><path d="M 0.0 1080.0 L 1920.0 1080.0 L 1920.0 0.0 L 0.0 0.0 Z M -0.0 1080.0 " fill="#252525"></path><text xml:space="preserve" font-family="SharpSansNo1-Bold,Sharp Sans No1" font-weight="bold" font-size="42.0" fill="#FFFFFF" transform="matrix(1.00, 0.00, -0.00, -1.00, 788.1, 551.9)">/</text><text xml:space="preserve" font-family="SharpSansNo1-Bold,Sharp Sans No1" font-weight="bold" font-size="42.0" fill="#FFFFFF" transform="matrix(1.00, 0.00, -0.00, -1.00, 809.6, 551.9)">/</text><text xml:space="preserve" font-family="SharpSansNo1-Bold,Sharp Sans No1" font-weight="bold" font-size="42.0" fill="#FFFFFF" transform="matrix(1.00, 0.00, -0.00, -1.00, 831.1, 551.9)"> </text><text xml:space="preserve" font-family="SharpSansNo1-Bold,Sharp Sans No1" font-weight="bold" font-size="42.0" fill="#FFFFFF" transform="matrix(1.00, 0.00, -0.00, -1.00, 841.4, 551.9)">P</text><text xml:space="preserve" font-family="SharpSansNo1-Bold,Sharp Sans No1" font-weight="bold" font-size="42.0" fill="#FFFFFF" transform="matrix(1.00, 0.00, -0.00, -1.00, 865.8, 551.9)">E</text><text xml:space="preserve" font-family="SharpSansNo1-Bold,Sharp Sans No1" font-weight="bold" font-size="42.0" fill="#FFFFFF" transform="matrix(1.00, 0.00, -0.00, -1.00, 887.0, 551.9)">R</text><text xml:space="preserve" font-family="SharpSansNo1-Bold,Sharp Sans No1" font-weight="bold" font-size="42.0" fill="#FFFFFF" transform="matrix(1.00, 0.00, -0.00, -1.00, 911.0, 551.9)">F</text><text xml:space="preserve" font-family="SharpSansNo1-Bold,Sharp Sans No1" font-weight="bold" font-size="42.0" fill="#FFFFFF" transform="matrix(1.00, 0.00, -0.00, -1.00, 931.7, 551.9)">O</text><text xml:space="preserve" font-family="SharpSansNo1-Bold,Sharp Sans No1" font-weight="bold" font-size="42.0" fill="#FFFFFF" transform="matrix(1.00, 0.00, -0.00, -1.00, 964.8, 551.9)">R</text><text xml:space="preserve" font-family="SharpSansNo1-Bold,Sharp Sans No1" font-weight="bold" font-size="42.0" fill="#FFFFFF" transform="matrix(1.00, 0.00, -0.00, -1.00, 988.9, 551.9)">M</text><text xml:space="preserve" font-family="SharpSansNo1-Bold,Sharp Sans No1" font-weight="bold" font-size="42.0" fill="#FFFFFF" transform="matrix(1.00, 0.00, -0.00, -1.00, 1022.2, 551.9)">A</text><text xml:space="preserve" font-family="SharpSansNo1-Bold,Sharp Sans No1" font-weight="bold" font-size="42.0" fill="#FFFFFF" transform="matrix(1.00, 0.00, -0.00, -1.00, 1051.1, 551.9)">N</text><text xml:space="preserve" font-family="SharpSansNo1-Bold,Sharp Sans No1" font-weight="bold" font-size="42.0" fill="#FFFFFF" transform="matrix(1.00, 0.00, -0.00, -1.00, 1079.9, 551.9)">C</text><text xml:space="preserve" font-family="SharpSansNo1-Bold,Sharp Sans No1" font-weight="bold" font-size="42.0" fill="#FFFFFF" transform="matrix(1.00, 0.00, -0.00, -1.00, 1110.8, 551.9)">E</text></g></svg>