<?xml version="1.0" encoding="UTF-8" standalone="no"?><svg xmlns="http://www.w3.org/2000/svg" xmlns:xlink="http://www.w3.org/1999/xlink" clip-rule="evenodd" stroke-miterlimit="10" viewBox="0 0 1920 1080"><desc>SVG generated by Keynote</desc><defs></defs><g transform="matrix(1.00, 0.00, -0.00, -1.00, 0.0, 1080.0)"><path d="M 0.0 1080.0 L 1920.0 1080.0 L 1920.0 0.0 L 0.0 0.0 Z M 0.0 1080.0 " fill="#FEFFFF"></path><path d="M 0.0 1080.0 L 1920.0 1080.0 L 1920.0 0.0 L 0.0 0.0 Z M -0.0 1080.0 " fill="#252525"></path><text xml:space="preserve" font-family="SharpSansNo1-Bold,Sharp Sans No1" font-weight="bold" font-size="42.0" fill="#FFFFFF" transform="matrix(1.00, 0.00, -0.00, -1.00, 850.5, 551.9)">/</text><text xml:space="preserve" font-family="SharpSansNo1-Bold,Sharp Sans No1" font-weight="bold" font-size="42.0" fill="#FFFFFF" transform="matrix(1.00, 0.00, -0.00, -1.00, 872.0, 551.9)">/</text><text xml:space="preserve" font-family="SharpSansNo1-Bold,Sharp Sans No1" font-weight="bold" font-size="42.0" fill="#FFFFFF" transform="matrix(1.00, 0.00, -0.00, -1.00, 893.5, 551.9)"> </text><text xml:space="preserve" font-family="SharpSansNo1-Bold,Sharp Sans No1" font-weight="bold" font-size="42.0" fill="#FFFFFF" transform="matrix(1.00, 0.00, -0.00, -1.00, 903.8, 551.9)">T</text><text xml:space="preserve" font-family="SharpSansNo1-Bold,Sharp Sans No1" font-weight="bold" font-size="42.0" fill="#FFFFFF" transform="matrix(1.00, 0.00, -0.00, -1.00, 928.0, 551.9)">H</text><text xml:space="preserve" font-family="SharpSansNo1-Bold,Sharp Sans No1" font-weight="bold" font-size="42.0" fill="#FFFFFF" transform="matrix(1.00, 0.00, -0.00, -1.00, 954.6, 551.9)">A</text><text xml:space="preserve" font-family="SharpSansNo1-Bold,Sharp Sans No1" font-weight="bold" font-size="42.0" fill="#FFFFFF" transform="matrix(1.00, 0.00, -0.00, -1.00, 983.4, 551.9)">N</text><text xml:space="preserve" font-family="SharpSansNo1-Bold,Sharp Sans No1" font-weight="bold" font-size="42.0" fill="#FFFFFF" transform="matrix(1.00, 0.00, -0.00, -1.00, 1012.3, 551.9)">K</text><text xml:space="preserve" font-family="SharpSansNo1-Bold,Sharp Sans No1" font-weight="bold" font-size="42.0" fill="#FFFFFF" transform="matrix(1.00, 0.00, -0.00, -1.00, 1037.3, 551.9)">S</text><text xml:space="preserve" font-family="SharpSansNo1-Bold,Sharp Sans No1" font-weight="bold" font-size="42.0" fill="#FFFFFF" transform="matrix(1.00, 0.00, -0.00, -1.00, 1060.9, 551.9)">!</text></g></svg>