<?xml version="1.0" encoding="UTF-8" standalone="no"?><svg xmlns="http://www.w3.org/2000/svg" xmlns:xlink="http://www.w3.org/1999/xlink" clip-rule="evenodd" stroke-miterlimit="10" viewBox="0 0 1920 1080"><desc>SVG generated by Keynote</desc><defs></defs><g transform="matrix(1.00, 0.00, -0.00, -1.00, 0.0, 1080.0)"><path d="M 0.0 1080.0 L 1920.0 1080.0 L 1920.0 0.0 L 0.0 0.0 Z M 0.0 1080.0 " fill="#FEFFFF"></path><g><clipPath id="clip0x7f8418844040"><path d="M 1.0 1081.0 L 1921.0 1081.0 L 1921.0 -1.0 L 1.0 -1.0 Z M 1.4 1081.4 "></path></clipPath><g clip-path="url(#clip0x7f8418844040)"><image xlink:href="C523403A1ACB0C84FF07C2DC48486AB9.jpeg" width="1853.00" height="1235.00" transform="matrix(1.10, 0.00, -0.00, -1.10, 331.0, 1278.0)"></image></g></g><path d="M 0.0 1080.0 L 689.0 1080.0 L 689.0 -1.0 L 0.0 -1.0 Z M -0.0 1080.0 " fill="#28272D"></path><text xml:space="preserve" font-family="SharpSansNo1-Extrabold,Sharp Sans No1" font-weight="bold" font-size="160.0" fill="#41A13B" transform="matrix(1.00, 0.00, -0.00, -1.00, 193.7, 445.7)">G</text><text xml:space="preserve" font-family="SharpSansNo1-Extrabold,Sharp Sans No1" font-weight="bold" font-size="160.0" fill="#41A13B" transform="matrix(1.00, 0.00, -0.00, -1.00, 316.7, 445.7)">o</text><text xml:space="preserve" font-family="SharpSansNo1-Extrabold,Sharp Sans No1" font-weight="bold" font-size="160.0" fill="#41A13B" transform="matrix(1.00, 0.00, -0.00, -1.00, 405.7, 445.7)">o</text><text xml:space="preserve" font-family="SharpSansNo1-Extrabold,Sharp Sans No1" font-weight="bold" font-size="160.0" fill="#41A13B" transform="matrix(1.00, 0.00, -0.00, -1.00, 494.6, 445.7)">d</text><text xml:space="preserve" font-family="SharpSansNo1-Extrabold,Sharp Sans No1" font-weight="bold" font-size="160.0" fill="#41A13B" transform="matrix(1.00, 0.00, -0.00, -1.00, 584.7, 445.7)"> </text><text xml:space="preserve" font-family="SharpSansNo1-Extrabold,Sharp Sans No1" font-weight="bold" font-size="160.0" fill="#41A13B" transform="matrix(1.00, 0.00, -0.00, -1.00, 623.4, 445.7)">E</text><text xml:space="preserve" font-family="SharpSansNo1-Extrabold,Sharp Sans No1" font-weight="bold" font-size="160.0" fill="#41A13B" transform="matrix(1.00, 0.00, -0.00, -1.00, 699.3, 445.7)">x</text><text xml:space="preserve" font-family="SharpSansNo1-Extrabold,Sharp Sans No1" font-weight="bold" font-size="160.0" fill="#41A13B" transform="matrix(1.00, 0.00, -0.00, -1.00, 790.0, 445.7)">p</text><text xml:space="preserve" font-family="SharpSansNo1-Extrabold,Sharp Sans No1" font-weight="bold" font-size="160.0" fill="#41A13B" transform="matrix(1.00, 0.00, -0.00, -1.00, 880.2, 445.7)">r</text><text xml:space="preserve" font-family="SharpSansNo1-Extrabold,Sharp Sans No1" font-weight="bold" font-size="160.0" fill="#41A13B" transform="matrix(1.00, 0.00, -0.00, -1.00, 941.3, 445.7)">e</text><text xml:space="preserve" font-family="SharpSansNo1-Extrabold,Sharp Sans No1" font-weight="bold" font-size="160.0" fill="#41A13B" transform="matrix(1.00, 0.00, -0.00, -1.00, 1029.0, 445.7)">s</text><text xml:space="preserve" font-family="SharpSansNo1-Extrabold,Sharp Sans No1" font-weight="bold" font-size="160.0" fill="#41A13B" transform="matrix(1.00, 0.00, -0.00, -1.00, 1107.9, 445.7)">s</text><text xml:space="preserve" font-family="SharpSansNo1-Extrabold,Sharp Sans No1" font-weight="bold" font-size="160.0" fill="#41A13B" transform="matrix(1.00, 0.00, -0.00, -1.00, 1186.0, 445.7)">.</text><text xml:space="preserve" font-family="SharpSansNo1-Extrabold,Sharp Sans No1" font-weight="bold" font-size="160.0" fill="#41A13B" transform="matrix(1.00, 0.00, -0.00, -1.00, 1221.0, 445.7)">j</text><text xml:space="preserve" font-family="SharpSansNo1-Extrabold,Sharp Sans No1" font-weight="bold" font-size="160.0" fill="#41A13B" transform="matrix(1.00, 0.00, -0.00, -1.00, 1256.1, 445.7)">s</text><text xml:space="preserve" font-family="SharpSansNo1-Extrabold,Sharp Sans No1" font-weight="bold" font-size="160.0" fill="#41A13B" transform="matrix(1.00, 0.00, -0.00, -1.00, 1334.1, 445.7)"> </text><text xml:space="preserve" font-family="SharpSansNo1-Extrabold,Sharp Sans No1" font-weight="bold" font-size="160.0" fill="#41A13B" transform="matrix(1.00, 0.00, -0.00, -1.00, 193.7, 309.7)">A</text><text xml:space="preserve" font-family="SharpSansNo1-Extrabold,Sharp Sans No1" font-weight="bold" font-size="160.0" fill="#41A13B" transform="matrix(1.00, 0.00, -0.00, -1.00, 301.2, 309.7)">r</text><text xml:space="preserve" font-family="SharpSansNo1-Extrabold,Sharp Sans No1" font-weight="bold" font-size="160.0" fill="#41A13B" transform="matrix(1.00, 0.00, -0.00, -1.00, 362.3, 309.7)">c</text><text xml:space="preserve" font-family="SharpSansNo1-Extrabold,Sharp Sans No1" font-weight="bold" font-size="160.0" fill="#41A13B" transform="matrix(1.00, 0.00, -0.00, -1.00, 447.6, 309.7)">h</text><text xml:space="preserve" font-family="SharpSansNo1-Extrabold,Sharp Sans No1" font-weight="bold" font-size="160.0" fill="#41A13B" transform="matrix(1.00, 0.00, -0.00, -1.00, 530.9, 309.7)">i</text><text xml:space="preserve" font-family="SharpSansNo1-Extrabold,Sharp Sans No1" font-weight="bold" font-size="160.0" fill="#41A13B" transform="matrix(1.00, 0.00, -0.00, -1.00, 565.8, 309.7)">t</text><text xml:space="preserve" font-family="SharpSansNo1-Extrabold,Sharp Sans No1" font-weight="bold" font-size="160.0" fill="#41A13B" transform="matrix(1.00, 0.00, -0.00, -1.00, 624.4, 309.7)">e</text><text xml:space="preserve" font-family="SharpSansNo1-Extrabold,Sharp Sans No1" font-weight="bold" font-size="160.0" fill="#41A13B" transform="matrix(1.00, 0.00, -0.00, -1.00, 713.2, 309.7)">c</text><text xml:space="preserve" font-family="SharpSansNo1-Extrabold,Sharp Sans No1" font-weight="bold" font-size="160.0" fill="#41A13B" transform="matrix(1.00, 0.00, -0.00, -1.00, 797.3, 309.7)">t</text><text xml:space="preserve" font-family="SharpSansNo1-Extrabold,Sharp Sans No1" font-weight="bold" font-size="160.0" fill="#41A13B" transform="matrix(1.00, 0.00, -0.00, -1.00, 858.3, 309.7)">u</text><text xml:space="preserve" font-family="SharpSansNo1-Extrabold,Sharp Sans No1" font-weight="bold" font-size="160.0" fill="#41A13B" transform="matrix(1.00, 0.00, -0.00, -1.00, 942.1, 309.7)">r</text><text xml:space="preserve" font-family="SharpSansNo1-Extrabold,Sharp Sans No1" font-weight="bold" font-size="160.0" fill="#41A13B" transform="matrix(1.00, 0.00, -0.00, -1.00, 1003.3, 309.7)">e</text><g><clipPath id="clip0x7f8418558f20"><path d="M 1856.0 1002.0 L 1894.0 1002.0 L 1894.0 550.0 L 1856.0 550.0 Z M 1856.0 1002.0 "></path></clipPath><g clip-path="url(#clip0x7f8418558f20)"><g><clipPath id="clip0x7f841855e810"><path d="M 1856.0 1002.0 L 1856.0 1002.0 L 1856.0 549.3 L 1894.7 549.3 L 1894.7 1002.0 "></path></clipPath><g clip-path="url(#clip0x7f841855e810)"><g><clipPath id="clip0x7f841855ef10"><path d="M 1856.0 1002.0 L 1894.0 1002.0 L 1894.0 550.0 L 1856.0 550.0 Z M 1856.0 1002.0 "></path></clipPath><g clip-path="url(#clip0x7f841855ef10)"><g><clipPath id="clip0x7f841855f6a0"><path d="M 1856.0 550.0 L 1894.0 550.0 L 1894.0 1002.0 L 1856.0 1002.0 Z M 1856.0 550.0 "></path></clipPath><g clip-path="url(#clip0x7f841855f6a0)"><path d="M 1866.5 851.8 L 1866.5 851.8 L 1866.5 842.6 L 1869.7 842.6 L 1869.7 848.6 L 1883.7 848.6 L 1883.7 851.8 L 1866.5 851.8 Z M 1866.5 851.8 " fill="#40B044"></path><path d="M 1866.5 840.7 L 1866.5 840.7 L 1866.5 830.8 L 1869.7 830.8 L 1869.7 837.5 L 1873.6 837.5 L 1873.6 830.8 L 1876.7 830.8 L 1876.7 837.5 L 1880.5 837.5 L 1880.5 830.8 L 1883.7 830.8 L 1883.7 840.7 L 1866.5 840.7 Z M 1866.5 840.7 " fill="#40B044"></path><path d="M 1866.5 829.3 L 1866.5 829.3 L 1866.5 826.0 L 1869.5 825.0 L 1869.5 818.6 L 1866.5 817.6 L 1866.5 814.2 L 1883.7 820.2 L 1883.7 823.4 L 1866.5 829.3 Z M 1879.0 821.8 L 1879.0 821.8 L 1872.7 819.6 L 1872.7 823.9 L 1879.0 821.8 Z M 1879.0 821.8 " fill="#40B044"></path><path d="M 1866.5 812.6 L 1866.5 812.6 L 1866.5 809.4 L 1878.4 809.4 L 1866.5 802.1 L 1866.5 798.8 L 1883.7 798.8 L 1883.7 801.9 L 1872.1 801.9 L 1883.7 809.0 L 1883.7 812.6 L 1866.5 812.6 Z M 1866.5 812.6 " fill="#40B044"></path><path d="M 1866.3 784.5 L 1866.3 784.5 C 1866.3 780.8 1869.0 778.7 1871.6 778.7 C 1875.0 778.7 1875.9 781.2 1876.7 783.5 C 1877.4 785.3 1877.8 786.9 1879.1 786.9 C 1880.2 786.9 1881.0 786.0 1881.0 784.6 C 1881.0 783.3 1880.4 782.4 1879.4 781.7 L 1881.4 779.0 C 1882.8 780.4 1883.9 781.9 1883.9 784.6 C 1883.9 787.9 1881.8 790.2 1878.9 790.2 C 1875.7 790.2 1874.8 787.7 1874.1 785.4 C 1873.6 783.6 1873.1 782.0 1871.7 782.0 C 1870.5 782.0 1869.4 782.9 1869.4 784.5 C 1869.4 786.0 1870.3 787.2 1871.7 788.1 L 1869.4 791.0 C 1867.6 789.5 1866.3 787.5 1866.3 784.5 Z M 1866.3 784.5 " fill="#40B044"></path><path d="M 1866.5 776.5 L 1866.5 776.5 L 1866.5 766.6 L 1869.7 766.6 L 1869.7 773.3 L 1873.6 773.3 L 1873.6 766.6 L 1876.7 766.6 L 1876.7 773.3 L 1880.5 773.3 L 1880.5 766.6 L 1883.7 766.6 L 1883.7 776.5 L 1866.5 776.5 Z M 1866.5 776.5 " fill="#40B044"></path><path d="M 1866.5 764.0 L 1866.5 764.0 L 1866.5 760.8 L 1880.6 760.8 L 1880.6 759.1 C 1880.6 756.7 1879.6 755.7 1878.0 755.7 C 1876.7 755.7 1875.1 756.6 1875.1 759.1 L 1875.1 760.6 L 1866.5 755.6 L 1866.5 751.9 L 1872.9 755.8 C 1873.7 753.6 1875.8 752.5 1878.0 752.5 C 1881.1 752.5 1883.7 754.9 1883.7 758.7 L 1883.7 764.0 L 1866.5 764.0 Z M 1866.5 764.0 " fill="#40B044"></path><path d="M 1866.5 746.1 L 1866.5 746.1 L 1866.5 742.9 L 1883.7 737.3 L 1883.7 740.6 L 1871.5 744.5 L 1883.7 748.4 L 1883.7 751.7 L 1866.5 746.1 Z M 1866.5 746.1 " fill="#40B044"></path><path d="M 1866.5 735.6 L 1866.5 735.6 L 1866.5 732.5 L 1883.7 732.5 L 1883.7 735.6 L 1866.5 735.6 Z M 1866.5 735.6 " fill="#40B044"></path><path d="M 1866.3 721.7 L 1866.3 721.7 C 1866.3 718.3 1868.3 715.6 1871.2 714.1 L 1872.8 717.0 C 1870.9 717.8 1869.6 719.4 1869.6 721.8 C 1869.6 724.8 1872.1 727.1 1875.1 727.1 C 1878.2 727.1 1880.7 724.8 1880.7 721.7 C 1880.7 719.5 1879.6 718.1 1877.8 717.1 L 1879.6 714.4 C 1882.2 715.8 1883.9 718.5 1883.9 721.7 C 1883.9 726.5 1880.3 730.2 1875.1 730.2 C 1870.2 730.2 1866.3 726.8 1866.3 721.7 Z M 1866.3 721.7 " fill="#40B044"></path><path d="M 1866.5 712.3 L 1866.5 712.3 L 1866.5 702.4 L 1869.7 702.4 L 1869.7 709.1 L 1873.6 709.1 L 1873.6 702.4 L 1876.7 702.4 L 1876.7 709.1 L 1880.5 709.1 L 1880.5 702.4 L 1883.7 702.4 L 1883.7 712.3 L 1866.5 712.3 Z M 1866.5 712.3 " fill="#40B044"></path><path d="M 1866.3 685.8 L 1866.3 685.8 C 1866.3 682.6 1868.3 679.7 1871.2 678.3 L 1872.8 681.2 C 1870.9 682.1 1869.6 683.6 1869.6 685.9 C 1869.6 689.0 1872.1 691.3 1875.1 691.3 C 1878.2 691.3 1880.7 688.9 1880.7 685.8 C 1880.7 683.7 1879.6 682.2 1877.8 681.4 L 1879.6 678.5 C 1882.2 680.0 1883.9 682.8 1883.9 685.8 C 1883.9 690.7 1880.3 694.4 1875.1 694.4 C 1870.2 694.4 1866.3 691.0 1866.3 685.8 Z M 1866.3 685.8 " fill="#40B044"></path><path d="M 1866.5 676.5 L 1866.5 676.5 L 1866.5 673.3 L 1880.6 673.3 L 1880.6 671.7 C 1880.6 669.3 1879.6 668.3 1878.0 668.3 C 1876.7 668.3 1875.1 669.2 1875.1 671.7 L 1875.1 673.2 L 1866.5 668.2 L 1866.5 664.5 L 1872.9 668.3 C 1873.7 666.2 1875.8 665.1 1878.0 665.1 C 1881.1 665.1 1883.7 667.5 1883.7 671.3 L 1883.7 676.5 L 1866.5 676.5 Z M 1866.5 676.5 " fill="#40B044"></path><path d="M 1866.5 662.6 L 1866.5 662.6 L 1866.5 652.8 L 1869.7 652.8 L 1869.7 659.5 L 1873.6 659.5 L 1873.6 652.8 L 1876.7 652.8 L 1876.7 659.5 L 1880.5 659.5 L 1880.5 652.8 L 1883.7 652.8 L 1883.7 662.6 L 1866.5 662.6 Z M 1866.5 662.6 " fill="#40B044"></path><path d="M 1866.5 651.2 L 1866.5 651.2 L 1866.5 647.9 L 1869.5 646.9 L 1869.5 640.5 L 1866.5 639.5 L 1866.5 636.2 L 1883.7 642.1 L 1883.7 645.3 L 1866.5 651.2 Z M 1879.0 643.7 L 1879.0 643.7 L 1872.7 641.6 L 1872.7 645.9 L 1879.0 643.7 Z M 1879.0 643.7 " fill="#40B044"></path><path d="M 1866.5 632.6 L 1866.5 632.6 L 1866.5 629.4 L 1880.5 629.4 L 1880.5 624.9 L 1883.7 624.9 L 1883.7 637.0 L 1880.5 637.0 L 1880.5 632.6 L 1866.5 632.6 Z M 1866.5 632.6 " fill="#40B044"></path><path d="M 1866.5 623.1 L 1866.5 623.1 L 1866.5 619.9 L 1883.7 619.9 L 1883.7 623.1 L 1866.5 623.1 Z M 1866.5 623.1 " fill="#40B044"></path><path d="M 1866.3 609.3 L 1866.3 609.3 C 1866.3 604.5 1870.2 600.7 1875.1 600.7 C 1880.0 600.7 1883.9 604.5 1883.9 609.3 C 1883.9 614.0 1880.0 617.8 1875.1 617.8 C 1870.2 617.8 1866.3 614.0 1866.3 609.3 Z M 1869.5 609.3 L 1869.5 609.3 C 1869.5 612.3 1872.1 614.6 1875.1 614.6 C 1878.1 614.6 1880.7 612.3 1880.7 609.3 C 1880.7 606.3 1878.1 603.9 1875.1 603.9 C 1872.1 603.9 1869.5 606.3 1869.5 609.3 Z M 1869.5 609.3 " fill="#40B044"></path><path d="M 1866.5 598.5 L 1866.5 598.5 L 1866.5 595.4 L 1878.4 595.4 L 1866.5 588.1 L 1866.5 584.6 L 1883.7 584.6 L 1883.7 587.8 L 1872.1 587.8 L 1883.7 594.9 L 1883.7 598.5 L 1866.5 598.5 Z M 1866.5 598.5 " fill="#40B044"></path><path d="M 1882.6 922.2 L 1882.6 922.2 L 1865.7 922.2 L 1865.7 926.7 L 1882.6 926.7 L 1882.6 922.2 Z M 1882.6 922.2 " fill="#40B044"></path></g></g></g></g></g></g></g></g><g><clipPath id="clip0x7f8418569910"><path d="M 1856.0 1002.0 L 1894.0 1002.0 L 1894.0 550.0 L 1856.0 550.0 Z M 1856.0 1002.0 "></path></clipPath><g clip-path="url(#clip0x7f8418569910)"><g><clipPath id="clip0x7f841856a060"><path d="M 1856.0 1002.0 L 1856.0 1002.0 L 1856.0 549.3 L 1894.7 549.3 L 1894.7 1002.0 "></path></clipPath><g clip-path="url(#clip0x7f841856a060)"><g><clipPath id="clip0x7f841856a760"><path d="M 1856.0 1002.0 L 1894.0 1002.0 L 1894.0 550.0 L 1856.0 550.0 Z M 1856.0 1002.0 "></path></clipPath><g clip-path="url(#clip0x7f841856a760)"><g><clipPath id="clip0x7f841856ae80"><path d="M 1856.0 1002.0 L 1856.0 1002.0 L 1856.0 549.3 L 1894.7 549.3 L 1894.7 1002.0 "></path></clipPath><g clip-path="url(#clip0x7f841856ae80)"><g><clipPath id="clip0x7f841856b5a0"><path d="M 1856.0 1002.0 L 1894.0 1002.0 L 1894.0 550.0 L 1856.0 550.0 Z M 1856.0 1002.0 "></path></clipPath><g clip-path="url(#clip0x7f841856b5a0)"><g><clipPath id="clip0x7f841856bcc0"><path d="M 1856.0 550.0 L 1894.0 550.0 L 1894.0 1002.0 L 1856.0 1002.0 Z M 1856.0 550.0 "></path></clipPath><g clip-path="url(#clip0x7f841856bcc0)"><path d="M 1887.7 921.6 L 1887.7 921.6 C 1886.1 921.6 1884.8 922.9 1884.8 924.4 C 1884.8 926.0 1886.1 927.3 1887.7 927.3 C 1889.4 927.3 1890.7 926.0 1890.7 924.4 C 1890.7 922.9 1889.4 921.6 1887.7 921.6 Z M 1887.7 921.6 " fill="#40B044"></path></g></g></g></g></g></g></g></g></g></g></g></g><g><clipPath id="clip0x7f841856cc10"><path d="M 1856.0 1002.0 L 1894.0 1002.0 L 1894.0 550.0 L 1856.0 550.0 Z M 1856.0 1002.0 "></path></clipPath><g clip-path="url(#clip0x7f841856cc10)"><g><clipPath id="clip0x7f841856d360"><path d="M 1856.0 1002.0 L 1856.0 1002.0 L 1856.0 549.3 L 1894.7 549.3 L 1894.7 1002.0 "></path></clipPath><g clip-path="url(#clip0x7f841856d360)"><g><clipPath id="clip0x7f841856da80"><path d="M 1856.0 1002.0 L 1894.0 1002.0 L 1894.0 550.0 L 1856.0 550.0 Z M 1856.0 1002.0 "></path></clipPath><g clip-path="url(#clip0x7f841856da80)"><g><clipPath id="clip0x7f841856e1a0"><path d="M 1856.0 1002.0 L 1856.0 1002.0 L 1856.0 549.3 L 1894.7 549.3 L 1894.7 1002.0 "></path></clipPath><g clip-path="url(#clip0x7f841856e1a0)"><g><clipPath id="clip0x7f841856e8c0"><path d="M 1856.0 1002.0 L 1894.0 1002.0 L 1894.0 550.0 L 1856.0 550.0 Z M 1856.0 1002.0 "></path></clipPath><g clip-path="url(#clip0x7f841856e8c0)"><g><clipPath id="clip0x7f841856efe0"><path d="M 1856.0 1002.0 L 1856.0 1002.0 L 1856.0 549.3 L 1894.7 549.3 L 1894.7 1002.0 "></path></clipPath><g clip-path="url(#clip0x7f841856efe0)"><g><clipPath id="clip0x7f841856f700"><path d="M 1856.0 1002.0 L 1894.0 1002.0 L 1894.0 550.0 L 1856.0 550.0 Z M 1856.0 1002.0 "></path></clipPath><g clip-path="url(#clip0x7f841856f700)"><g><clipPath id="clip0x7f841856fe20"><path d="M 1856.0 550.0 L 1894.0 550.0 L 1894.0 1002.0 L 1856.0 1002.0 Z M 1856.0 550.0 "></path></clipPath><g clip-path="url(#clip0x7f841856fe20)"><path d="M 1882.6 940.3 L 1882.6 940.3 L 1877.5 940.3 L 1865.7 940.3 L 1865.7 935.8 L 1878.4 935.8 L 1878.4 929.5 L 1882.6 929.5 L 1882.6 935.8 L 1882.6 940.3 Z M 1882.6 940.3 " fill="#40B044"></path></g></g></g></g></g></g></g></g></g></g></g></g></g></g></g></g><g><clipPath id="clip0x7f8418570eb0"><path d="M 1856.0 1002.0 L 1894.0 1002.0 L 1894.0 550.0 L 1856.0 550.0 Z M 1856.0 1002.0 "></path></clipPath><g clip-path="url(#clip0x7f8418570eb0)"><g><clipPath id="clip0x7f8418571600"><path d="M 1856.0 1002.0 L 1856.0 1002.0 L 1856.0 549.3 L 1894.7 549.3 L 1894.7 1002.0 "></path></clipPath><g clip-path="url(#clip0x7f8418571600)"><g><clipPath id="clip0x7f8418571d00"><path d="M 1856.0 1002.0 L 1894.0 1002.0 L 1894.0 550.0 L 1856.0 550.0 Z M 1856.0 1002.0 "></path></clipPath><g clip-path="url(#clip0x7f8418571d00)"><g><clipPath id="clip0x7f8418572420"><path d="M 1856.0 1002.0 L 1856.0 1002.0 L 1856.0 549.3 L 1894.7 549.3 L 1894.7 1002.0 "></path></clipPath><g clip-path="url(#clip0x7f8418572420)"><g><clipPath id="clip0x7f8418572b40"><path d="M 1856.0 1002.0 L 1894.0 1002.0 L 1894.0 550.0 L 1856.0 550.0 Z M 1856.0 1002.0 "></path></clipPath><g clip-path="url(#clip0x7f8418572b40)"><g><clipPath id="clip0x7f8418573260"><path d="M 1856.0 1002.0 L 1856.0 1002.0 L 1856.0 549.3 L 1894.7 549.3 L 1894.7 1002.0 "></path></clipPath><g clip-path="url(#clip0x7f8418573260)"><g><clipPath id="clip0x7f8418573980"><path d="M 1856.0 1002.0 L 1894.0 1002.0 L 1894.0 550.0 L 1856.0 550.0 Z M 1856.0 1002.0 "></path></clipPath><g clip-path="url(#clip0x7f8418573980)"><g><clipPath id="clip0x7f84185740a0"><path d="M 1856.0 1002.0 L 1856.0 1002.0 L 1856.0 549.3 L 1894.7 549.3 L 1894.7 1002.0 "></path></clipPath><g clip-path="url(#clip0x7f84185740a0)"><g><clipPath id="clip0x7f84185747c0"><path d="M 1856.0 1002.0 L 1894.0 1002.0 L 1894.0 550.0 L 1856.0 550.0 Z M 1856.0 1002.0 "></path></clipPath><g clip-path="url(#clip0x7f84185747c0)"><g><clipPath id="clip0x7f8418574ee0"><path d="M 1856.0 550.0 L 1894.0 550.0 L 1894.0 1002.0 L 1856.0 1002.0 Z M 1856.0 550.0 "></path></clipPath><g clip-path="url(#clip0x7f8418574ee0)"><path d="M 1870.9 892.6 L 1870.9 892.6 C 1870.0 893.4 1869.4 894.6 1869.4 895.9 C 1869.4 895.9 1869.4 896.0 1869.4 896.0 C 1869.4 898.3 1870.6 899.7 1872.5 900.3 L 1872.5 887.6 L 1874.2 887.6 C 1879.0 887.6 1882.9 891.1 1882.9 896.1 C 1882.9 900.9 1878.9 904.6 1874.1 904.6 C 1869.2 904.6 1865.4 901.1 1865.4 896.0 C 1865.4 896.0 1865.4 896.0 1865.4 895.9 C 1865.4 893.2 1866.4 891.1 1868.0 889.7 L 1870.9 892.6 Z M 1878.9 896.0 L 1878.9 896.0 C 1878.9 894.2 1878.0 892.8 1876.2 892.2 L 1876.2 900.1 C 1877.8 899.4 1878.9 897.9 1878.9 896.0 Z M 1878.9 896.0 " fill="#40B044"></path><path d="M 1871.0 908.4 L 1871.0 908.4 C 1870.2 909.2 1869.8 910.2 1869.8 911.3 C 1869.8 911.3 1869.8 911.3 1869.8 911.4 C 1869.8 913.7 1871.7 915.5 1874.1 915.5 C 1876.6 915.5 1878.4 913.7 1878.5 911.4 C 1878.5 911.3 1878.5 911.3 1878.5 911.3 C 1878.5 910.1 1878.0 909.0 1877.1 908.2 L 1880.3 905.2 C 1881.9 906.7 1882.9 908.8 1882.9 911.3 C 1882.9 911.3 1882.9 911.3 1882.9 911.4 C 1882.8 916.1 1878.9 919.8 1874.1 919.8 C 1869.3 919.8 1865.4 916.1 1865.4 911.4 C 1865.4 911.3 1865.4 911.3 1865.4 911.3 C 1865.4 908.9 1866.3 906.9 1867.8 905.3 L 1871.0 908.4 Z M 1871.0 908.4 " fill="#40B044"></path><path d="M 1890.7 996.7 L 1890.7 996.7 C 1890.7 1000.0 1887.7 1002.6 1883.7 1002.7 L 1865.7 1002.7 L 1865.7 998.3 L 1878.4 998.3 L 1878.4 992.5 L 1882.6 992.5 L 1882.6 998.3 L 1883.7 998.3 C 1885.2 998.3 1886.2 997.4 1886.2 996.1 C 1886.2 995.2 1885.7 994.6 1885.2 994.3 L 1888.0 991.5 C 1890.0 993.0 1890.7 994.8 1890.7 996.7 Z M 1890.7 996.7 " fill="#40B044"></path><path d="M 1882.6 979.2 L 1882.6 979.2 L 1873.2 979.2 C 1871.4 979.2 1870.0 980.6 1870.0 982.2 C 1870.0 984.0 1871.4 985.3 1873.2 985.3 L 1882.6 985.3 L 1882.6 989.9 L 1873.2 989.9 C 1868.9 989.9 1865.4 986.4 1865.4 982.2 C 1865.4 978.1 1868.9 974.7 1873.2 974.7 L 1882.6 974.7 L 1882.6 979.2 Z M 1882.6 979.2 " fill="#40B044"></path><path d="M 1882.6 947.7 L 1882.6 947.7 L 1873.2 947.7 C 1871.4 947.7 1870.0 949.0 1870.0 950.7 C 1870.0 952.4 1871.4 953.7 1873.2 953.7 L 1882.6 953.7 L 1882.6 958.3 L 1873.2 958.3 C 1868.9 958.3 1865.4 954.9 1865.4 950.7 C 1865.4 946.5 1868.9 943.1 1873.2 943.1 L 1882.6 943.1 L 1882.6 947.7 Z M 1882.6 947.7 " fill="#40B044"></path><path d="M 1882.6 967.3 L 1882.6 967.3 L 1882.6 967.3 L 1882.6 967.4 L 1888.8 967.4 L 1888.8 971.9 L 1882.6 971.9 L 1882.6 971.9 L 1878.4 971.9 L 1873.2 971.9 C 1869.8 971.9 1866.9 969.7 1866.1 966.9 C 1865.7 965.9 1865.7 964.3 1865.7 964.3 L 1865.7 961.1 L 1870.0 961.1 L 1870.0 964.3 C 1870.0 966.0 1871.4 967.3 1873.2 967.3 L 1878.4 967.3 L 1878.4 964.3 L 1878.4 961.1 L 1878.9 961.1 L 1881.9 961.1 L 1882.6 961.1 L 1882.6 967.3 Z M 1882.6 967.3 " fill="#40B044"></path></g></g></g></g></g></g></g></g></g></g></g></g></g></g></g></g></g></g></g></g><text xml:space="preserve" font-family="SharpSansNo1-Semibold,Sharp Sans No1" font-weight="bold" font-size="32.0" fill="#FFFFFF" transform="matrix(1.00, 0.00, -0.00, -1.00, 193.7, 229.3)">P</text><text xml:space="preserve" font-family="SharpSansNo1-Semibold,Sharp Sans No1" font-weight="bold" font-size="32.0" fill="#FFFFFF" transform="matrix(1.00, 0.00, -0.00, -1.00, 212.8, 229.3)">l</text><text xml:space="preserve" font-family="SharpSansNo1-Semibold,Sharp Sans No1" font-weight="bold" font-size="32.0" fill="#FFFFFF" transform="matrix(1.00, 0.00, -0.00, -1.00, 219.6, 229.3)">u</text><text xml:space="preserve" font-family="SharpSansNo1-Semibold,Sharp Sans No1" font-weight="bold" font-size="32.0" fill="#FFFFFF" transform="matrix(1.00, 0.00, -0.00, -1.00, 237.6, 229.3)">s</text><text xml:space="preserve" font-family="SharpSansNo1-Semibold,Sharp Sans No1" font-weight="bold" font-size="32.0" fill="#FFFFFF" transform="matrix(1.00, 0.00, -0.00, -1.00, 252.7, 229.3)"> </text><text xml:space="preserve" font-family="SharpSansNo1-Semibold,Sharp Sans No1" font-weight="bold" font-size="32.0" fill="#FFFFFF" transform="matrix(1.00, 0.00, -0.00, -1.00, 260.6, 229.3)">o</text><text xml:space="preserve" font-family="SharpSansNo1-Semibold,Sharp Sans No1" font-weight="bold" font-size="32.0" fill="#FFFFFF" transform="matrix(1.00, 0.00, -0.00, -1.00, 278.5, 229.3)">t</text><text xml:space="preserve" font-family="SharpSansNo1-Semibold,Sharp Sans No1" font-weight="bold" font-size="32.0" fill="#FFFFFF" transform="matrix(1.00, 0.00, -0.00, -1.00, 290.2, 229.3)">h</text><text xml:space="preserve" font-family="SharpSansNo1-Semibold,Sharp Sans No1" font-weight="bold" font-size="32.0" fill="#FFFFFF" transform="matrix(1.00, 0.00, -0.00, -1.00, 308.3, 229.3)">e</text><text xml:space="preserve" font-family="SharpSansNo1-Semibold,Sharp Sans No1" font-weight="bold" font-size="32.0" fill="#FFFFFF" transform="matrix(1.00, 0.00, -0.00, -1.00, 327.0, 229.3)">r</text><text xml:space="preserve" font-family="SharpSansNo1-Semibold,Sharp Sans No1" font-weight="bold" font-size="32.0" fill="#FFFFFF" transform="matrix(1.00, 0.00, -0.00, -1.00, 339.5, 229.3)"> </text><text xml:space="preserve" font-family="SharpSansNo1-Semibold,Sharp Sans No1" font-weight="bold" font-size="32.0" fill="#FFFFFF" transform="matrix(1.00, 0.00, -0.00, -1.00, 347.4, 229.3)">t</text><text xml:space="preserve" font-family="SharpSansNo1-Semibold,Sharp Sans No1" font-weight="bold" font-size="32.0" fill="#FFFFFF" transform="matrix(1.00, 0.00, -0.00, -1.00, 359.2, 229.3)">i</text><text xml:space="preserve" font-family="SharpSansNo1-Semibold,Sharp Sans No1" font-weight="bold" font-size="32.0" fill="#FFFFFF" transform="matrix(1.00, 0.00, -0.00, -1.00, 365.9, 229.3)">p</text><text xml:space="preserve" font-family="SharpSansNo1-Semibold,Sharp Sans No1" font-weight="bold" font-size="32.0" fill="#FFFFFF" transform="matrix(1.00, 0.00, -0.00, -1.00, 385.3, 229.3)">s</text><text xml:space="preserve" font-family="SharpSansNo1-Semibold,Sharp Sans No1" font-weight="bold" font-size="32.0" fill="#FFFFFF" transform="matrix(1.00, 0.00, -0.00, -1.00, 400.3, 229.3)"> </text><text xml:space="preserve" font-family="SharpSansNo1-Semibold,Sharp Sans No1" font-weight="bold" font-size="32.0" fill="#FFFFFF" transform="matrix(1.00, 0.00, -0.00, -1.00, 193.7, 109.3)">K</text><text xml:space="preserve" font-family="SharpSansNo1-Semibold,Sharp Sans No1" font-weight="bold" font-size="32.0" fill="#FFFFFF" transform="matrix(1.00, 0.00, -0.00, -1.00, 213.8, 109.3)">i</text><text xml:space="preserve" font-family="SharpSansNo1-Semibold,Sharp Sans No1" font-weight="bold" font-size="32.0" fill="#FFFFFF" transform="matrix(1.00, 0.00, -0.00, -1.00, 220.6, 109.3)">m</text><text xml:space="preserve" font-family="SharpSansNo1-Semibold,Sharp Sans No1" font-weight="bold" font-size="32.0" fill="#FFFFFF" transform="matrix(1.00, 0.00, -0.00, -1.00, 249.2, 109.3)">m</text><text xml:space="preserve" font-family="SharpSansNo1-Semibold,Sharp Sans No1" font-weight="bold" font-size="32.0" fill="#FFFFFF" transform="matrix(1.00, 0.00, -0.00, -1.00, 277.8, 109.3)">o</text><text xml:space="preserve" font-family="SharpSansNo1-Semibold,Sharp Sans No1" font-weight="bold" font-size="32.0" fill="#FFFFFF" transform="matrix(1.00, 0.00, -0.00, -1.00, 296.6, 109.3)"> </text><text xml:space="preserve" font-family="SharpSansNo1-Semibold,Sharp Sans No1" font-weight="bold" font-size="32.0" fill="#FFFFFF" transform="matrix(1.00, 0.00, -0.00, -1.00, 304.6, 109.3)">B</text><text xml:space="preserve" font-family="SharpSansNo1-Semibold,Sharp Sans No1" font-weight="bold" font-size="32.0" fill="#FFFFFF" transform="matrix(1.00, 0.00, -0.00, -1.00, 323.8, 109.3)">r</text><text xml:space="preserve" font-family="SharpSansNo1-Semibold,Sharp Sans No1" font-weight="bold" font-size="32.0" fill="#FFFFFF" transform="matrix(1.00, 0.00, -0.00, -1.00, 336.3, 109.3)">u</text><text xml:space="preserve" font-family="SharpSansNo1-Semibold,Sharp Sans No1" font-weight="bold" font-size="32.0" fill="#FFFFFF" transform="matrix(1.00, 0.00, -0.00, -1.00, 354.5, 109.3)">n</text><text xml:space="preserve" font-family="SharpSansNo1-Semibold,Sharp Sans No1" font-weight="bold" font-size="32.0" fill="#FFFFFF" transform="matrix(1.00, 0.00, -0.00, -1.00, 371.9, 109.3)">f</text><text xml:space="preserve" font-family="SharpSansNo1-Semibold,Sharp Sans No1" font-weight="bold" font-size="32.0" fill="#FFFFFF" transform="matrix(1.00, 0.00, -0.00, -1.00, 382.5, 109.3)">e</text><text xml:space="preserve" font-family="SharpSansNo1-Semibold,Sharp Sans No1" font-weight="bold" font-size="32.0" fill="#FFFFFF" transform="matrix(1.00, 0.00, -0.00, -1.00, 401.2, 109.3)">l</text><text xml:space="preserve" font-family="SharpSansNo1-Semibold,Sharp Sans No1" font-weight="bold" font-size="32.0" fill="#FFFFFF" transform="matrix(1.00, 0.00, -0.00, -1.00, 408.0, 109.3)">d</text><text xml:space="preserve" font-family="SharpSansNo1-Semibold,Sharp Sans No1" font-weight="bold" font-size="32.0" fill="#FFFFFF" transform="matrix(1.00, 0.00, -0.00, -1.00, 427.4, 109.3)">t</text><text xml:space="preserve" font-family="SharpSansNo1-Semibold,Sharp Sans No1" font-weight="bold" font-size="32.0" fill="#FFFFFF" transform="matrix(1.00, 0.00, -0.00, -1.00, 439.1, 109.3)"> </text><text xml:space="preserve" font-family="SharpSansNo1-Semibold,Sharp Sans No1" font-weight="bold" font-size="32.0" fill="#FFFFFF" transform="matrix(1.00, 0.00, -0.00, -1.00, 447.1, 109.3)">0</text><text xml:space="preserve" font-family="SharpSansNo1-Semibold,Sharp Sans No1" font-weight="bold" font-size="32.0" fill="#FFFFFF" transform="matrix(1.00, 0.00, -0.00, -1.00, 465.9, 109.3)">6</text><text xml:space="preserve" font-family="SharpSansNo1-Semibold,Sharp Sans No1" font-weight="bold" font-size="32.0" fill="#FFFFFF" transform="matrix(1.00, 0.00, -0.00, -1.00, 484.7, 109.3)">/</text><text xml:space="preserve" font-family="SharpSansNo1-Semibold,Sharp Sans No1" font-weight="bold" font-size="32.0" fill="#FFFFFF" transform="matrix(1.00, 0.00, -0.00, -1.00, 500.6, 109.3)">2</text><text xml:space="preserve" font-family="SharpSansNo1-Semibold,Sharp Sans No1" font-weight="bold" font-size="32.0" fill="#FFFFFF" transform="matrix(1.00, 0.00, -0.00, -1.00, 519.4, 109.3)">0</text><text xml:space="preserve" font-family="SharpSansNo1-Semibold,Sharp Sans No1" font-weight="bold" font-size="32.0" fill="#FFFFFF" transform="matrix(1.00, 0.00, -0.00, -1.00, 538.2, 109.3)">1</text><text xml:space="preserve" font-family="SharpSansNo1-Semibold,Sharp Sans No1" font-weight="bold" font-size="32.0" fill="#FFFFFF" transform="matrix(1.00, 0.00, -0.00, -1.00, 557.0, 109.3)">5</text><text xml:space="preserve" font-family="SharpSansNo1-Semibold,Sharp Sans No1" font-weight="bold" font-size="32.0" fill="#FFFFFF" transform="matrix(1.00, 0.00, -0.00, -1.00, 575.9, 109.3)"> </text><text xml:space="preserve" font-family="SharpSansNo1-Semibold,Sharp Sans No1" font-weight="bold" font-size="32.0" fill="#FFFFFF" transform="matrix(1.00, 0.00, -0.00, -1.00, 193.7, 69.3)">@</text><text xml:space="preserve" font-family="SharpSansNo1-Semibold,Sharp Sans No1" font-weight="bold" font-size="32.0" fill="#FFFFFF" transform="matrix(1.00, 0.00, -0.00, -1.00, 219.8, 69.3)">k</text><text xml:space="preserve" font-family="SharpSansNo1-Semibold,Sharp Sans No1" font-weight="bold" font-size="32.0" fill="#FFFFFF" transform="matrix(1.00, 0.00, -0.00, -1.00, 236.9, 69.3)">i</text><text xml:space="preserve" font-family="SharpSansNo1-Semibold,Sharp Sans No1" font-weight="bold" font-size="32.0" fill="#FFFFFF" transform="matrix(1.00, 0.00, -0.00, -1.00, 243.6, 69.3)">m</text><text xml:space="preserve" font-family="SharpSansNo1-Semibold,Sharp Sans No1" font-weight="bold" font-size="32.0" fill="#FFFFFF" transform="matrix(1.00, 0.00, -0.00, -1.00, 272.2, 69.3)">m</text><text xml:space="preserve" font-family="SharpSansNo1-Semibold,Sharp Sans No1" font-weight="bold" font-size="32.0" fill="#FFFFFF" transform="matrix(1.00, 0.00, -0.00, -1.00, 300.9, 69.3)">o</text><text xml:space="preserve" font-family="SharpSansNo1-Semibold,Sharp Sans No1" font-weight="bold" font-size="32.0" fill="#FFFFFF" transform="matrix(1.00, 0.00, -0.00, -1.00, 319.6, 69.3)">b</text><text xml:space="preserve" font-family="SharpSansNo1-Semibold,Sharp Sans No1" font-weight="bold" font-size="32.0" fill="#FFFFFF" transform="matrix(1.00, 0.00, -0.00, -1.00, 339.0, 69.3)">r</text><text xml:space="preserve" font-family="SharpSansNo1-Semibold,Sharp Sans No1" font-weight="bold" font-size="32.0" fill="#FFFFFF" transform="matrix(1.00, 0.00, -0.00, -1.00, 351.5, 69.3)">u</text><text xml:space="preserve" font-family="SharpSansNo1-Semibold,Sharp Sans No1" font-weight="bold" font-size="32.0" fill="#FFFFFF" transform="matrix(1.00, 0.00, -0.00, -1.00, 369.7, 69.3)">n</text><text xml:space="preserve" font-family="SharpSansNo1-Semibold,Sharp Sans No1" font-weight="bold" font-size="32.0" fill="#FFFFFF" transform="matrix(1.00, 0.00, -0.00, -1.00, 387.1, 69.3)">f</text><text xml:space="preserve" font-family="SharpSansNo1-Semibold,Sharp Sans No1" font-weight="bold" font-size="32.0" fill="#FFFFFF" transform="matrix(1.00, 0.00, -0.00, -1.00, 397.7, 69.3)">e</text><text xml:space="preserve" font-family="SharpSansNo1-Semibold,Sharp Sans No1" font-weight="bold" font-size="32.0" fill="#FFFFFF" transform="matrix(1.00, 0.00, -0.00, -1.00, 416.4, 69.3)">l</text><text xml:space="preserve" font-family="SharpSansNo1-Semibold,Sharp Sans No1" font-weight="bold" font-size="32.0" fill="#FFFFFF" transform="matrix(1.00, 0.00, -0.00, -1.00, 423.2, 69.3)">d</text><text xml:space="preserve" font-family="SharpSansNo1-Semibold,Sharp Sans No1" font-weight="bold" font-size="32.0" fill="#FFFFFF" transform="matrix(1.00, 0.00, -0.00, -1.00, 442.6, 69.3)">t</text><text xml:space="preserve" font-family="SharpSansNo1-Semibold,Sharp Sans No1" font-weight="bold" font-size="32.0" fill="#FFFFFF" transform="matrix(1.00, 0.00, -0.00, -1.00, 454.3, 69.3)"> </text></g></svg>