<?xml version="1.0" encoding="UTF-8" standalone="no"?><svg xmlns="http://www.w3.org/2000/svg" xmlns:xlink="http://www.w3.org/1999/xlink" clip-rule="evenodd" stroke-miterlimit="10" viewBox="0 0 148 37"><desc>SVG generated by Keynote</desc><defs></defs><g transform="matrix(1.00, 0.00, -0.00, -1.00, 0.0, 37.0)"><text xml:space="preserve" font-family="SharpSansNo1-Extrabold,Sharp Sans No1" font-weight="bold" font-size="34.0" fill="#52575F" transform="matrix(1.00, 0.00, -0.00, -1.00, 0.7, 10.2)">1</text><text xml:space="preserve" font-family="SharpSansNo1-Extrabold,Sharp Sans No1" font-weight="bold" font-size="34.0" fill="#52575F" transform="matrix(1.00, 0.00, -0.00, -1.00, 21.1, 10.2)"> </text><text xml:space="preserve" font-family="SharpSansNo1-Extrabold,Sharp Sans No1" font-weight="bold" font-size="34.0" fill="#52575F" transform="matrix(1.00, 0.00, -0.00, -1.00, 29.3, 10.2)">r</text><text xml:space="preserve" font-family="SharpSansNo1-Extrabold,Sharp Sans No1" font-weight="bold" font-size="34.0" fill="#52575F" transform="matrix(1.00, 0.00, -0.00, -1.00, 42.3, 10.2)">e</text><text xml:space="preserve" font-family="SharpSansNo1-Extrabold,Sharp Sans No1" font-weight="bold" font-size="34.0" fill="#52575F" transform="matrix(1.00, 0.00, -0.00, -1.00, 61.2, 10.2)">q</text><text xml:space="preserve" font-family="SharpSansNo1-Extrabold,Sharp Sans No1" font-weight="bold" font-size="34.0" fill="#52575F" transform="matrix(1.00, 0.00, -0.00, -1.00, 80.3, 10.2)">u</text><text xml:space="preserve" font-family="SharpSansNo1-Extrabold,Sharp Sans No1" font-weight="bold" font-size="34.0" fill="#52575F" transform="matrix(1.00, 0.00, -0.00, -1.00, 98.1, 10.2)">e</text><text xml:space="preserve" font-family="SharpSansNo1-Extrabold,Sharp Sans No1" font-weight="bold" font-size="34.0" fill="#52575F" transform="matrix(1.00, 0.00, -0.00, -1.00, 116.7, 10.2)">s</text><text xml:space="preserve" font-family="SharpSansNo1-Extrabold,Sharp Sans No1" font-weight="bold" font-size="34.0" fill="#52575F" transform="matrix(1.00, 0.00, -0.00, -1.00, 132.8, 10.2)">t</text></g></svg>