<?xml version="1.0" encoding="UTF-8" standalone="no"?><svg xmlns="http://www.w3.org/2000/svg" xmlns:xlink="http://www.w3.org/1999/xlink" clip-rule="evenodd" stroke-miterlimit="10" viewBox="0 0 36 147"><desc>SVG generated by Keynote</desc><defs></defs><g transform="matrix(1.00, 0.00, -0.00, -1.00, 0.0, 147.0)"><text xml:space="preserve" font-family="SharpSansNo1-Extrabold,Sharp Sans No1" font-weight="bold" font-size="34.0" fill="#52575F" transform="matrix(0.00, -1.00, -1.00, -0.00, 10.0, 146.4)">1</text><text xml:space="preserve" font-family="SharpSansNo1-Extrabold,Sharp Sans No1" font-weight="bold" font-size="34.0" fill="#52575F" transform="matrix(0.00, -1.00, -1.00, -0.00, 10.0, 126.1)"> </text><text xml:space="preserve" font-family="SharpSansNo1-Extrabold,Sharp Sans No1" font-weight="bold" font-size="34.0" fill="#52575F" transform="matrix(0.00, -1.00, -1.00, -0.00, 10.0, 117.8)">r</text><text xml:space="preserve" font-family="SharpSansNo1-Extrabold,Sharp Sans No1" font-weight="bold" font-size="34.0" fill="#52575F" transform="matrix(0.00, -1.00, -1.00, -0.00, 10.0, 104.8)">e</text><text xml:space="preserve" font-family="SharpSansNo1-Extrabold,Sharp Sans No1" font-weight="bold" font-size="34.0" fill="#52575F" transform="matrix(0.00, -1.00, -1.00, -0.00, 10.0, 86.0)">q</text><text xml:space="preserve" font-family="SharpSansNo1-Extrabold,Sharp Sans No1" font-weight="bold" font-size="34.0" fill="#52575F" transform="matrix(0.00, -1.00, -1.00, -0.00, 10.0, 66.8)">u</text><text xml:space="preserve" font-family="SharpSansNo1-Extrabold,Sharp Sans No1" font-weight="bold" font-size="34.0" fill="#52575F" transform="matrix(0.00, -1.00, -1.00, -0.00, 10.0, 49.1)">e</text><text xml:space="preserve" font-family="SharpSansNo1-Extrabold,Sharp Sans No1" font-weight="bold" font-size="34.0" fill="#52575F" transform="matrix(0.00, -1.00, -1.00, -0.00, 10.0, 30.5)">s</text><text xml:space="preserve" font-family="SharpSansNo1-Extrabold,Sharp Sans No1" font-weight="bold" font-size="34.0" fill="#52575F" transform="matrix(0.00, -1.00, -1.00, -0.00, 10.0, 14.3)">t</text></g></svg>