<?xml version="1.0" encoding="UTF-8" standalone="no"?><svg xmlns="http://www.w3.org/2000/svg" xmlns:xlink="http://www.w3.org/1999/xlink" clip-rule="evenodd" stroke-miterlimit="10" viewBox="0 0 372 187"><desc>SVG generated by Keynote</desc><defs></defs><g transform="matrix(1.00, 0.00, -0.00, -1.00, 0.0, 187.0)"><g><clipPath id="clip0x7f841f0436c0"><path d="M 149.3 89.5 L 343.1 186.3 L 371.7 129.2 L 177.8 32.4 Z M 149.3 89.5 "></path></clipPath><g clip-path="url(#clip0x7f841f0436c0)"><path d="M 311.7 123.9 L 321.1 105.1 L 356.5 157.3 L 293.5 160.4 L 302.9 141.6 L 160.0 70.2 L 168.9 52.5 Z M 311.7 123.9 " fill="#FC5348"></path></g></g><g><clipPath id="clip0x7f841f0446f0"><path d="M -10.6 -26.2 L 170.7 -26.2 L 170.7 85.8 L -10.6 85.8 Z M -10.6 -26.2 "></path></clipPath><g clip-path="url(#clip0x7f841f0446f0)"><text xml:space="preserve" font-family="SharpSansNo1-Extrabold,Sharp Sans No1" font-weight="bold" font-size="64.0" fill="#FC5348" transform="matrix(1.00, 0.00, -0.00, -1.00, 5.9, 21.8)">+</text><text xml:space="preserve" font-family="SharpSansNo1-Extrabold,Sharp Sans No1" font-weight="bold" font-size="64.0" fill="#FC5348" transform="matrix(1.00, 0.00, -0.00, -1.00, 32.9, 21.8)">9</text><text xml:space="preserve" font-family="SharpSansNo1-Extrabold,Sharp Sans No1" font-weight="bold" font-size="64.0" fill="#FC5348" transform="matrix(1.00, 0.00, -0.00, -1.00, 71.2, 21.8)">m</text><text xml:space="preserve" font-family="SharpSansNo1-Extrabold,Sharp Sans No1" font-weight="bold" font-size="64.0" fill="#FC5348" transform="matrix(1.00, 0.00, -0.00, -1.00, 122.9, 21.8)">s</text></g></g></g></svg>