<?xml version="1.0" encoding="UTF-8" standalone="no"?><svg xmlns="http://www.w3.org/2000/svg" xmlns:xlink="http://www.w3.org/1999/xlink" clip-rule="evenodd" stroke-miterlimit="10" viewBox="0 0 260 37"><desc>SVG generated by Keynote</desc><defs></defs><g transform="matrix(1.00, 0.00, -0.00, -1.00, 0.0, 37.0)"><text xml:space="preserve" font-family="SharpSansNo1-Extrabold,Sharp Sans No1" font-weight="bold" font-size="34.0" fill="#000000" transform="matrix(1.00, 0.00, -0.00, -1.00, 1.3, 9.7)">0</text><text xml:space="preserve" font-family="SharpSansNo1-Extrabold,Sharp Sans No1" font-weight="bold" font-size="34.0" fill="#000000" transform="matrix(1.00, 0.00, -0.00, -1.00, 21.7, 9.7)">.</text><text xml:space="preserve" font-family="SharpSansNo1-Extrabold,Sharp Sans No1" font-weight="bold" font-size="34.0" fill="#000000" transform="matrix(1.00, 0.00, -0.00, -1.00, 29.1, 9.7)">1</text><text xml:space="preserve" font-family="SharpSansNo1-Extrabold,Sharp Sans No1" font-weight="bold" font-size="34.0" fill="#000000" transform="matrix(1.00, 0.00, -0.00, -1.00, 49.4, 9.7)">0</text><text xml:space="preserve" font-family="SharpSansNo1-Extrabold,Sharp Sans No1" font-weight="bold" font-size="34.0" fill="#000000" transform="matrix(1.00, 0.00, -0.00, -1.00, 69.8, 9.7)">m</text><text xml:space="preserve" font-family="SharpSansNo1-Extrabold,Sharp Sans No1" font-weight="bold" font-size="34.0" fill="#000000" transform="matrix(1.00, 0.00, -0.00, -1.00, 97.3, 9.7)">s</text><text xml:space="preserve" font-family="SharpSansNo1-Extrabold,Sharp Sans No1" font-weight="bold" font-size="34.0" fill="#000000" transform="matrix(1.00, 0.00, -0.00, -1.00, 113.9, 9.7)"> </text><text xml:space="preserve" font-family="SharpSansNo1-Extrabold,Sharp Sans No1" font-weight="bold" font-size="34.0" fill="#000000" transform="matrix(1.00, 0.00, -0.00, -1.00, 122.1, 9.7)">p</text><text xml:space="preserve" font-family="SharpSansNo1-Extrabold,Sharp Sans No1" font-weight="bold" font-size="34.0" fill="#000000" transform="matrix(1.00, 0.00, -0.00, -1.00, 141.4, 9.7)">a</text><text xml:space="preserve" font-family="SharpSansNo1-Extrabold,Sharp Sans No1" font-weight="bold" font-size="34.0" fill="#000000" transform="matrix(1.00, 0.00, -0.00, -1.00, 160.6, 9.7)">s</text><text xml:space="preserve" font-family="SharpSansNo1-Extrabold,Sharp Sans No1" font-weight="bold" font-size="34.0" fill="#000000" transform="matrix(1.00, 0.00, -0.00, -1.00, 177.3, 9.7)">s</text><text xml:space="preserve" font-family="SharpSansNo1-Extrabold,Sharp Sans No1" font-weight="bold" font-size="34.0" fill="#000000" transform="matrix(1.00, 0.00, -0.00, -1.00, 194.0, 9.7)">p</text><text xml:space="preserve" font-family="SharpSansNo1-Extrabold,Sharp Sans No1" font-weight="bold" font-size="34.0" fill="#000000" transform="matrix(1.00, 0.00, -0.00, -1.00, 213.2, 9.7)">o</text><text xml:space="preserve" font-family="SharpSansNo1-Extrabold,Sharp Sans No1" font-weight="bold" font-size="34.0" fill="#000000" transform="matrix(1.00, 0.00, -0.00, -1.00, 232.1, 9.7)">r</text><text xml:space="preserve" font-family="SharpSansNo1-Extrabold,Sharp Sans No1" font-weight="bold" font-size="34.0" fill="#000000" transform="matrix(1.00, 0.00, -0.00, -1.00, 245.5, 9.7)">t</text></g></svg>