<?xml version="1.0" encoding="UTF-8" standalone="no"?><svg xmlns="http://www.w3.org/2000/svg" xmlns:xlink="http://www.w3.org/1999/xlink" clip-rule="evenodd" stroke-miterlimit="10" viewBox="0 0 238 30"><desc>SVG generated by Keynote</desc><defs></defs><g transform="matrix(1.00, 0.00, -0.00, -1.00, 0.0, 30.0)"><text xml:space="preserve" font-family="SharpSansNo1-Extrabold,Sharp Sans No1" font-weight="bold" font-size="34.0" fill="#000000" transform="matrix(1.00, 0.00, -0.00, -1.00, 1.2, 2.9)">1</text><text xml:space="preserve" font-family="SharpSansNo1-Extrabold,Sharp Sans No1" font-weight="bold" font-size="34.0" fill="#000000" transform="matrix(1.00, 0.00, -0.00, -1.00, 21.5, 2.9)">0</text><text xml:space="preserve" font-family="SharpSansNo1-Extrabold,Sharp Sans No1" font-weight="bold" font-size="34.0" fill="#000000" transform="matrix(1.00, 0.00, -0.00, -1.00, 41.9, 2.9)">.</text><text xml:space="preserve" font-family="SharpSansNo1-Extrabold,Sharp Sans No1" font-weight="bold" font-size="34.0" fill="#000000" transform="matrix(1.00, 0.00, -0.00, -1.00, 49.3, 2.9)">7</text><text xml:space="preserve" font-family="SharpSansNo1-Extrabold,Sharp Sans No1" font-weight="bold" font-size="34.0" fill="#000000" transform="matrix(1.00, 0.00, -0.00, -1.00, 69.7, 2.9)">1</text><text xml:space="preserve" font-family="SharpSansNo1-Extrabold,Sharp Sans No1" font-weight="bold" font-size="34.0" fill="#000000" transform="matrix(1.00, 0.00, -0.00, -1.00, 90.0, 2.9)">m</text><text xml:space="preserve" font-family="SharpSansNo1-Extrabold,Sharp Sans No1" font-weight="bold" font-size="34.0" fill="#000000" transform="matrix(1.00, 0.00, -0.00, -1.00, 117.5, 2.9)">s</text><text xml:space="preserve" font-family="SharpSansNo1-Extrabold,Sharp Sans No1" font-weight="bold" font-size="34.0" fill="#000000" transform="matrix(1.00, 0.00, -0.00, -1.00, 134.1, 2.9)"> </text><text xml:space="preserve" font-family="SharpSansNo1-Extrabold,Sharp Sans No1" font-weight="bold" font-size="34.0" fill="#000000" transform="matrix(1.00, 0.00, -0.00, -1.00, 142.3, 2.9)">T</text><text xml:space="preserve" font-family="SharpSansNo1-Extrabold,Sharp Sans No1" font-weight="bold" font-size="34.0" fill="#000000" transform="matrix(1.00, 0.00, -0.00, -1.00, 159.8, 2.9)">O</text><text xml:space="preserve" font-family="SharpSansNo1-Extrabold,Sharp Sans No1" font-weight="bold" font-size="34.0" fill="#000000" transform="matrix(1.00, 0.00, -0.00, -1.00, 184.0, 2.9)">T</text><text xml:space="preserve" font-family="SharpSansNo1-Extrabold,Sharp Sans No1" font-weight="bold" font-size="34.0" fill="#000000" transform="matrix(1.00, 0.00, -0.00, -1.00, 198.4, 2.9)">A</text><text xml:space="preserve" font-family="SharpSansNo1-Extrabold,Sharp Sans No1" font-weight="bold" font-size="34.0" fill="#000000" transform="matrix(1.00, 0.00, -0.00, -1.00, 221.4, 2.9)">L</text></g></svg>