<?xml version="1.0" encoding="UTF-8" standalone="no"?><svg xmlns="http://www.w3.org/2000/svg" xmlns:xlink="http://www.w3.org/1999/xlink" clip-rule="evenodd" stroke-miterlimit="10" viewBox="0 0 649 46"><desc>SVG generated by Keynote</desc><defs></defs><g transform="matrix(1.00, 0.00, -0.00, -1.00, 0.0, 46.0)"><text xml:space="preserve" font-family="CourierNewPSMT,Courier New" font-size="22.0" fill="#000000" transform="matrix(1.00, 0.00, -0.00, -1.00, 0.6, 30.1)">r</text><text xml:space="preserve" font-family="CourierNewPSMT,Courier New" font-size="22.0" fill="#000000" transform="matrix(1.00, 0.00, -0.00, -1.00, 13.9, 30.1)">e</text><text xml:space="preserve" font-family="CourierNewPSMT,Courier New" font-size="22.0" fill="#000000" transform="matrix(1.00, 0.00, -0.00, -1.00, 27.1, 30.1)">q</text><text xml:space="preserve" font-family="CourierNewPSMT,Courier New" font-size="22.0" fill="#000000" transform="matrix(1.00, 0.00, -0.00, -1.00, 40.3, 30.1)">.</text><text xml:space="preserve" font-family="CourierNewPSMT,Courier New" font-size="22.0" fill="#000000" transform="matrix(1.00, 0.00, -0.00, -1.00, 53.5, 30.1)">b</text><text xml:space="preserve" font-family="CourierNewPSMT,Courier New" font-size="22.0" fill="#000000" transform="matrix(1.00, 0.00, -0.00, -1.00, 66.7, 30.1)">o</text><text xml:space="preserve" font-family="CourierNewPSMT,Courier New" font-size="22.0" fill="#000000" transform="matrix(1.00, 0.00, -0.00, -1.00, 79.9, 30.1)">d</text><text xml:space="preserve" font-family="CourierNewPSMT,Courier New" font-size="22.0" fill="#000000" transform="matrix(1.00, 0.00, -0.00, -1.00, 93.1, 30.1)">y</text><text xml:space="preserve" font-family="CourierNewPSMT,Courier New" font-size="22.0" fill="#000000" transform="matrix(1.00, 0.00, -0.00, -1.00, 106.3, 30.1)"> </text><text xml:space="preserve" font-family="CourierNewPSMT,Courier New" font-size="22.0" fill="#000000" transform="matrix(1.00, 0.00, -0.00, -1.00, 119.5, 30.1)">=</text><text xml:space="preserve" font-family="CourierNewPSMT,Courier New" font-size="22.0" fill="#000000" transform="matrix(1.00, 0.00, -0.00, -1.00, 132.7, 30.1)"> </text><text xml:space="preserve" font-family="CourierNewPSMT,Courier New" font-size="22.0" fill="#000000" transform="matrix(1.00, 0.00, -0.00, -1.00, 145.9, 30.1)">J</text><text xml:space="preserve" font-family="CourierNewPSMT,Courier New" font-size="22.0" fill="#000000" transform="matrix(1.00, 0.00, -0.00, -1.00, 159.1, 30.1)">S</text><text xml:space="preserve" font-family="CourierNewPSMT,Courier New" font-size="22.0" fill="#000000" transform="matrix(1.00, 0.00, -0.00, -1.00, 172.3, 30.1)">O</text><text xml:space="preserve" font-family="CourierNewPSMT,Courier New" font-size="22.0" fill="#000000" transform="matrix(1.00, 0.00, -0.00, -1.00, 185.5, 30.1)">N</text><text xml:space="preserve" font-family="CourierNewPSMT,Courier New" font-size="22.0" fill="#000000" transform="matrix(1.00, 0.00, -0.00, -1.00, 198.7, 30.1)">.</text><text xml:space="preserve" font-family="CourierNewPSMT,Courier New" font-size="22.0" fill="#021993" transform="matrix(1.00, 0.00, -0.00, -1.00, 211.9, 30.1)">p</text><text xml:space="preserve" font-family="CourierNewPSMT,Courier New" font-size="22.0" fill="#021993" transform="matrix(1.00, 0.00, -0.00, -1.00, 225.1, 30.1)">a</text><text xml:space="preserve" font-family="CourierNewPSMT,Courier New" font-size="22.0" fill="#021993" transform="matrix(1.00, 0.00, -0.00, -1.00, 238.3, 30.1)">r</text><text xml:space="preserve" font-family="CourierNewPSMT,Courier New" font-size="22.0" fill="#021993" transform="matrix(1.00, 0.00, -0.00, -1.00, 251.5, 30.1)">s</text><text xml:space="preserve" font-family="CourierNewPSMT,Courier New" font-size="22.0" fill="#021993" transform="matrix(1.00, 0.00, -0.00, -1.00, 264.7, 30.1)">e</text><text xml:space="preserve" font-family="CourierNewPSMT,Courier New" font-size="22.0" fill="#000000" transform="matrix(1.00, 0.00, -0.00, -1.00, 277.9, 30.1)">(</text><text xml:space="preserve" font-family="CourierNewPSMT,Courier New" font-size="22.0" fill="#021993" transform="matrix(1.00, 0.00, -0.00, -1.00, 291.1, 30.1)">g</text><text xml:space="preserve" font-family="CourierNewPSMT,Courier New" font-size="22.0" fill="#021993" transform="matrix(1.00, 0.00, -0.00, -1.00, 304.3, 30.1)">e</text><text xml:space="preserve" font-family="CourierNewPSMT,Courier New" font-size="22.0" fill="#021993" transform="matrix(1.00, 0.00, -0.00, -1.00, 317.5, 30.1)">t</text><text xml:space="preserve" font-family="CourierNewPSMT,Courier New" font-size="22.0" fill="#021993" transform="matrix(1.00, 0.00, -0.00, -1.00, 330.7, 30.1)">R</text><text xml:space="preserve" font-family="CourierNewPSMT,Courier New" font-size="22.0" fill="#021993" transform="matrix(1.00, 0.00, -0.00, -1.00, 343.9, 30.1)">e</text><text xml:space="preserve" font-family="CourierNewPSMT,Courier New" font-size="22.0" fill="#021993" transform="matrix(1.00, 0.00, -0.00, -1.00, 357.1, 30.1)">q</text><text xml:space="preserve" font-family="CourierNewPSMT,Courier New" font-size="22.0" fill="#021993" transform="matrix(1.00, 0.00, -0.00, -1.00, 370.3, 30.1)">u</text><text xml:space="preserve" font-family="CourierNewPSMT,Courier New" font-size="22.0" fill="#021993" transform="matrix(1.00, 0.00, -0.00, -1.00, 383.5, 30.1)">e</text><text xml:space="preserve" font-family="CourierNewPSMT,Courier New" font-size="22.0" fill="#021993" transform="matrix(1.00, 0.00, -0.00, -1.00, 396.7, 30.1)">s</text><text xml:space="preserve" font-family="CourierNewPSMT,Courier New" font-size="22.0" fill="#021993" transform="matrix(1.00, 0.00, -0.00, -1.00, 409.9, 30.1)">t</text><text xml:space="preserve" font-family="CourierNewPSMT,Courier New" font-size="22.0" fill="#021993" transform="matrix(1.00, 0.00, -0.00, -1.00, 423.1, 30.1)">B</text><text xml:space="preserve" font-family="CourierNewPSMT,Courier New" font-size="22.0" fill="#021993" transform="matrix(1.00, 0.00, -0.00, -1.00, 436.3, 30.1)">o</text><text xml:space="preserve" font-family="CourierNewPSMT,Courier New" font-size="22.0" fill="#021993" transform="matrix(1.00, 0.00, -0.00, -1.00, 449.5, 30.1)">d</text><text xml:space="preserve" font-family="CourierNewPSMT,Courier New" font-size="22.0" fill="#021993" transform="matrix(1.00, 0.00, -0.00, -1.00, 462.8, 30.1)">y</text><text xml:space="preserve" font-family="CourierNewPSMT,Courier New" font-size="22.0" fill="#000000" transform="matrix(1.00, 0.00, -0.00, -1.00, 475.9, 30.1)">(</text><text xml:space="preserve" font-family="CourierNewPSMT,Courier New" font-size="22.0" fill="#000000" transform="matrix(1.00, 0.00, -0.00, -1.00, 489.1, 30.1)">r</text><text xml:space="preserve" font-family="CourierNewPSMT,Courier New" font-size="22.0" fill="#000000" transform="matrix(1.00, 0.00, -0.00, -1.00, 502.3, 30.1)">e</text><text xml:space="preserve" font-family="CourierNewPSMT,Courier New" font-size="22.0" fill="#000000" transform="matrix(1.00, 0.00, -0.00, -1.00, 515.5, 30.1)">q</text><text xml:space="preserve" font-family="CourierNewPSMT,Courier New" font-size="22.0" fill="#000000" transform="matrix(1.00, 0.00, -0.00, -1.00, 528.7, 30.1)">)</text><text xml:space="preserve" font-family="CourierNewPSMT,Courier New" font-size="22.0" fill="#000000" transform="matrix(1.00, 0.00, -0.00, -1.00, 541.9, 30.1)">)</text><text xml:space="preserve" font-family="CourierNewPSMT,Courier New" font-size="22.0" fill="#000000" transform="matrix(1.00, 0.00, -0.00, -1.00, 555.1, 30.1)"> </text><text xml:space="preserve" font-family="CourierNewPSMT,Courier New" font-size="22.0" fill="#000000" transform="matrix(1.00, 0.00, -0.00, -1.00, 568.4, 30.1)">|</text><text xml:space="preserve" font-family="CourierNewPSMT,Courier New" font-size="22.0" fill="#000000" transform="matrix(1.00, 0.00, -0.00, -1.00, 581.6, 30.1)">|</text><text xml:space="preserve" font-family="CourierNewPSMT,Courier New" font-size="22.0" fill="#000000" transform="matrix(1.00, 0.00, -0.00, -1.00, 594.8, 30.1)"> </text><text xml:space="preserve" font-family="CourierNewPSMT,Courier New" font-size="22.0" fill="#000000" transform="matrix(1.00, 0.00, -0.00, -1.00, 608.0, 30.1)">{</text><text xml:space="preserve" font-family="CourierNewPSMT,Courier New" font-size="22.0" fill="#000000" transform="matrix(1.00, 0.00, -0.00, -1.00, 621.2, 30.1)">}</text><text xml:space="preserve" font-family="CourierNewPSMT,Courier New" font-size="22.0" fill="#000000" transform="matrix(1.00, 0.00, -0.00, -1.00, 634.4, 30.1)">;</text><text xml:space="preserve" font-family="CourierNewPSMT,Courier New" font-size="22.0" fill="#000000" transform="matrix(1.00, 0.00, -0.00, -1.00, 647.6, 30.1)"> </text><text xml:space="preserve" font-family="CourierNewPSMT,Courier New" font-size="22.0" fill="#021993" transform="matrix(1.00, 0.00, -0.00, -1.00, 0.6, 5.1)">n</text><text xml:space="preserve" font-family="CourierNewPSMT,Courier New" font-size="22.0" fill="#021993" transform="matrix(1.00, 0.00, -0.00, -1.00, 13.9, 5.1)">e</text><text xml:space="preserve" font-family="CourierNewPSMT,Courier New" font-size="22.0" fill="#021993" transform="matrix(1.00, 0.00, -0.00, -1.00, 27.1, 5.1)">x</text><text xml:space="preserve" font-family="CourierNewPSMT,Courier New" font-size="22.0" fill="#021993" transform="matrix(1.00, 0.00, -0.00, -1.00, 40.3, 5.1)">t</text><text xml:space="preserve" font-family="CourierNewPSMT,Courier New" font-size="22.0" fill="#000000" transform="matrix(1.00, 0.00, -0.00, -1.00, 53.5, 5.1)">(</text><text xml:space="preserve" font-family="CourierNewPSMT,Courier New" font-size="22.0" fill="#000000" transform="matrix(1.00, 0.00, -0.00, -1.00, 66.7, 5.1)">)</text><text xml:space="preserve" font-family="CourierNewPSMT,Courier New" font-size="22.0" fill="#000000" transform="matrix(1.00, 0.00, -0.00, -1.00, 79.9, 5.1)">;</text><text xml:space="preserve" font-family="CourierNewPSMT,Courier New" font-size="22.0" fill="#000000" transform="matrix(1.00, 0.00, -0.00, -1.00, 93.1, 5.1)"> </text></g></svg>