<?xml version="1.0" encoding="UTF-8" standalone="no"?><svg xmlns="http://www.w3.org/2000/svg" xmlns:xlink="http://www.w3.org/1999/xlink" clip-rule="evenodd" stroke-miterlimit="10" viewBox="0 0 721 252"><desc>SVG generated by Keynote</desc><defs></defs><g transform="matrix(1.00, 0.00, -0.00, -1.00, 0.0, 252.0)"><g><clipPath id="clip0x7f8418b60380"><path d="M 0.0 1.0 L 546.3 1.0 L 546.3 146.4 L 0.0 146.4 Z M 0.0 1.0 "></path></clipPath><g clip-path="url(#clip0x7f8418b60380)"><path d="M 1.0 145.0 L 545.0 145.0 L 545.0 2.0 L 1.0 2.0 Z M 1.0 145.4 " fill="#FEFFFF"></path></g></g><g><clipPath id="clip0x7f8418b61300"><path d="M 35.4 18.1 L 965.0 18.1 L 965.0 105.5 L 35.4 105.5 Z M 35.4 18.1 "></path></clipPath><g clip-path="url(#clip0x7f8418b61300)"><text xml:space="preserve" font-family="CourierNewPS-BoldMT,Courier New" font-weight="bold" font-size="22.0" fill="#000000" transform="matrix(1.00, 0.00, -0.00, -1.00, 41.6, 80.9)">i</text><text xml:space="preserve" font-family="CourierNewPS-BoldMT,Courier New" font-weight="bold" font-size="22.0" fill="#000000" transform="matrix(1.00, 0.00, -0.00, -1.00, 54.8, 80.9)">f</text><text xml:space="preserve" font-family="CourierNewPSMT,Courier New" font-size="22.0" fill="#000000" transform="matrix(1.00, 0.00, -0.00, -1.00, 68.0, 80.9)"> </text><text xml:space="preserve" font-family="CourierNewPSMT,Courier New" font-size="22.0" fill="#000000" transform="matrix(1.00, 0.00, -0.00, -1.00, 81.2, 80.9)">(</text><text xml:space="preserve" font-family="CourierNewPSMT,Courier New" font-size="22.0" fill="#000000" transform="matrix(1.00, 0.00, -0.00, -1.00, 94.4, 80.9)">!</text><text xml:space="preserve" font-family="CourierNewPSMT,Courier New" font-size="22.0" fill="#000000" transform="matrix(1.00, 0.00, -0.00, -1.00, 107.6, 80.9)">r</text><text xml:space="preserve" font-family="CourierNewPSMT,Courier New" font-size="22.0" fill="#000000" transform="matrix(1.00, 0.00, -0.00, -1.00, 120.8, 80.9)">e</text><text xml:space="preserve" font-family="CourierNewPSMT,Courier New" font-size="22.0" fill="#000000" transform="matrix(1.00, 0.00, -0.00, -1.00, 134.0, 80.9)">q</text><text xml:space="preserve" font-family="CourierNewPSMT,Courier New" font-size="22.0" fill="#000000" transform="matrix(1.00, 0.00, -0.00, -1.00, 147.3, 80.9)">.</text><text xml:space="preserve" font-family="CourierNewPSMT,Courier New" font-size="22.0" fill="#021993" transform="matrix(1.00, 0.00, -0.00, -1.00, 160.4, 80.9)">s</text><text xml:space="preserve" font-family="CourierNewPSMT,Courier New" font-size="22.0" fill="#021993" transform="matrix(1.00, 0.00, -0.00, -1.00, 173.6, 80.9)">t</text><text xml:space="preserve" font-family="CourierNewPSMT,Courier New" font-size="22.0" fill="#021993" transform="matrix(1.00, 0.00, -0.00, -1.00, 186.9, 80.9)">a</text><text xml:space="preserve" font-family="CourierNewPSMT,Courier New" font-size="22.0" fill="#021993" transform="matrix(1.00, 0.00, -0.00, -1.00, 200.1, 80.9)">r</text><text xml:space="preserve" font-family="CourierNewPSMT,Courier New" font-size="22.0" fill="#021993" transform="matrix(1.00, 0.00, -0.00, -1.00, 213.3, 80.9)">t</text><text xml:space="preserve" font-family="CourierNewPSMT,Courier New" font-size="22.0" fill="#021993" transform="matrix(1.00, 0.00, -0.00, -1.00, 226.5, 80.9)">s</text><text xml:space="preserve" font-family="CourierNewPSMT,Courier New" font-size="22.0" fill="#021993" transform="matrix(1.00, 0.00, -0.00, -1.00, 239.7, 80.9)">W</text><text xml:space="preserve" font-family="CourierNewPSMT,Courier New" font-size="22.0" fill="#021993" transform="matrix(1.00, 0.00, -0.00, -1.00, 252.9, 80.9)">i</text><text xml:space="preserve" font-family="CourierNewPSMT,Courier New" font-size="22.0" fill="#021993" transform="matrix(1.00, 0.00, -0.00, -1.00, 266.1, 80.9)">t</text><text xml:space="preserve" font-family="CourierNewPSMT,Courier New" font-size="22.0" fill="#021993" transform="matrix(1.00, 0.00, -0.00, -1.00, 279.3, 80.9)">h</text><text xml:space="preserve" font-family="CourierNewPSMT,Courier New" font-size="22.0" fill="#000000" transform="matrix(1.00, 0.00, -0.00, -1.00, 292.5, 80.9)">(</text><text xml:space="preserve" font-family="CourierNewPSMT,Courier New" font-size="22.0" fill="#CC1C00" transform="matrix(1.00, 0.00, -0.00, -1.00, 305.7, 80.9)">'</text><text xml:space="preserve" font-family="CourierNewPSMT,Courier New" font-size="22.0" fill="#CC1C00" transform="matrix(1.00, 0.00, -0.00, -1.00, 318.9, 80.9)">/</text><text xml:space="preserve" font-family="CourierNewPSMT,Courier New" font-size="22.0" fill="#CC1C00" transform="matrix(1.00, 0.00, -0.00, -1.00, 332.1, 80.9)">r</text><text xml:space="preserve" font-family="CourierNewPSMT,Courier New" font-size="22.0" fill="#CC1C00" transform="matrix(1.00, 0.00, -0.00, -1.00, 345.3, 80.9)">e</text><text xml:space="preserve" font-family="CourierNewPSMT,Courier New" font-size="22.0" fill="#CC1C00" transform="matrix(1.00, 0.00, -0.00, -1.00, 358.5, 80.9)">s</text><text xml:space="preserve" font-family="CourierNewPSMT,Courier New" font-size="22.0" fill="#CC1C00" transform="matrix(1.00, 0.00, -0.00, -1.00, 371.7, 80.9)">o</text><text xml:space="preserve" font-family="CourierNewPSMT,Courier New" font-size="22.0" fill="#CC1C00" transform="matrix(1.00, 0.00, -0.00, -1.00, 384.9, 80.9)">u</text><text xml:space="preserve" font-family="CourierNewPSMT,Courier New" font-size="22.0" fill="#CC1C00" transform="matrix(1.00, 0.00, -0.00, -1.00, 398.1, 80.9)">r</text><text xml:space="preserve" font-family="CourierNewPSMT,Courier New" font-size="22.0" fill="#CC1C00" transform="matrix(1.00, 0.00, -0.00, -1.00, 411.3, 80.9)">c</text><text xml:space="preserve" font-family="CourierNewPSMT,Courier New" font-size="22.0" fill="#CC1C00" transform="matrix(1.00, 0.00, -0.00, -1.00, 424.5, 80.9)">e</text><text xml:space="preserve" font-family="CourierNewPSMT,Courier New" font-size="22.0" fill="#CC1C00" transform="matrix(1.00, 0.00, -0.00, -1.00, 437.7, 80.9)">X</text><text xml:space="preserve" font-family="CourierNewPSMT,Courier New" font-size="22.0" fill="#CC1C00" transform="matrix(1.00, 0.00, -0.00, -1.00, 450.9, 80.9)">'</text><text xml:space="preserve" font-family="CourierNewPSMT,Courier New" font-size="22.0" fill="#000000" transform="matrix(1.00, 0.00, -0.00, -1.00, 464.1, 80.9)">)</text><text xml:space="preserve" font-family="CourierNewPSMT,Courier New" font-size="22.0" fill="#000000" transform="matrix(1.00, 0.00, -0.00, -1.00, 477.3, 80.9)">)</text><text xml:space="preserve" font-family="CourierNewPSMT,Courier New" font-size="22.0" fill="#000000" transform="matrix(1.00, 0.00, -0.00, -1.00, 490.5, 80.9)"> </text><text xml:space="preserve" font-family="CourierNewPSMT,Courier New" font-size="22.0" fill="#000000" transform="matrix(1.00, 0.00, -0.00, -1.00, 41.6, 55.9)"> </text><text xml:space="preserve" font-family="CourierNewPSMT,Courier New" font-size="22.0" fill="#000000" transform="matrix(1.00, 0.00, -0.00, -1.00, 54.8, 55.9)"> </text><text xml:space="preserve" font-family="CourierNewPSMT,Courier New" font-size="22.0" fill="#000000" transform="matrix(1.00, 0.00, -0.00, -1.00, 68.0, 55.9)"> </text><text xml:space="preserve" font-family="CourierNewPSMT,Courier New" font-size="22.0" fill="#000000" transform="matrix(1.00, 0.00, -0.00, -1.00, 81.2, 55.9)"> </text><text xml:space="preserve" font-family="CourierNewPS-BoldMT,Courier New" font-weight="bold" font-size="22.0" fill="#000000" transform="matrix(1.00, 0.00, -0.00, -1.00, 94.4, 55.9)">r</text><text xml:space="preserve" font-family="CourierNewPS-BoldMT,Courier New" font-weight="bold" font-size="22.0" fill="#000000" transform="matrix(1.00, 0.00, -0.00, -1.00, 107.6, 55.9)">e</text><text xml:space="preserve" font-family="CourierNewPS-BoldMT,Courier New" font-weight="bold" font-size="22.0" fill="#000000" transform="matrix(1.00, 0.00, -0.00, -1.00, 120.8, 55.9)">t</text><text xml:space="preserve" font-family="CourierNewPS-BoldMT,Courier New" font-weight="bold" font-size="22.0" fill="#000000" transform="matrix(1.00, 0.00, -0.00, -1.00, 134.0, 55.9)">u</text><text xml:space="preserve" font-family="CourierNewPS-BoldMT,Courier New" font-weight="bold" font-size="22.0" fill="#000000" transform="matrix(1.00, 0.00, -0.00, -1.00, 147.2, 55.9)">r</text><text xml:space="preserve" font-family="CourierNewPS-BoldMT,Courier New" font-weight="bold" font-size="22.0" fill="#000000" transform="matrix(1.00, 0.00, -0.00, -1.00, 160.5, 55.9)">n</text><text xml:space="preserve" font-family="CourierNewPSMT,Courier New" font-size="22.0" fill="#000000" transform="matrix(1.00, 0.00, -0.00, -1.00, 173.6, 55.9)"> </text><text xml:space="preserve" font-family="CourierNewPSMT,Courier New" font-size="22.0" fill="#021993" transform="matrix(1.00, 0.00, -0.00, -1.00, 186.8, 55.9)">n</text><text xml:space="preserve" font-family="CourierNewPSMT,Courier New" font-size="22.0" fill="#021993" transform="matrix(1.00, 0.00, -0.00, -1.00, 200.1, 55.9)">e</text><text xml:space="preserve" font-family="CourierNewPSMT,Courier New" font-size="22.0" fill="#021993" transform="matrix(1.00, 0.00, -0.00, -1.00, 213.3, 55.9)">x</text><text xml:space="preserve" font-family="CourierNewPSMT,Courier New" font-size="22.0" fill="#021993" transform="matrix(1.00, 0.00, -0.00, -1.00, 226.5, 55.9)">t</text><text xml:space="preserve" font-family="CourierNewPSMT,Courier New" font-size="22.0" fill="#000000" transform="matrix(1.00, 0.00, -0.00, -1.00, 239.7, 55.9)">(</text><text xml:space="preserve" font-family="CourierNewPSMT,Courier New" font-size="22.0" fill="#000000" transform="matrix(1.00, 0.00, -0.00, -1.00, 252.9, 55.9)">)</text><text xml:space="preserve" font-family="CourierNewPSMT,Courier New" font-size="22.0" fill="#000000" transform="matrix(1.00, 0.00, -0.00, -1.00, 266.1, 55.9)">;</text><text xml:space="preserve" font-family="CourierNewPSMT,Courier New" font-size="22.0" fill="#000000" transform="matrix(1.00, 0.00, -0.00, -1.00, 279.3, 55.9)"> </text></g></g><g><clipPath id="clip0x7f84189ea6f0"><path d="M 530.3 155.7 L 701.8 251.5 L 720.5 217.9 L 549.1 122.1 Z M 530.3 155.7 "></path></clipPath><g clip-path="url(#clip0x7f84189ea6f0)"><path d="M 675.2 207.9 L 681.3 197.1 L 710.3 234.2 L 663.5 228.9 L 669.6 218.1 L 537.7 144.5 L 543.4 134.3 Z M 675.2 207.9 " fill="#00872A"></path></g></g></g></svg>