<?xml version="1.0" encoding="UTF-8" standalone="no"?><svg xmlns="http://www.w3.org/2000/svg" xmlns:xlink="http://www.w3.org/1999/xlink" clip-rule="evenodd" stroke-miterlimit="10" viewBox="0 0 266 73"><desc>SVG generated by Keynote</desc><defs></defs><g transform="matrix(1.00, 0.00, -0.00, -1.00, 0.0, 73.0)"><g><clipPath id="clip0x7f84189adcd0"><path d="M -2.0 -14.9 L 268.9 -14.9 L 268.9 74.6 L -2.0 74.6 Z M -2.0 -14.9 "></path></clipPath><g clip-path="url(#clip0x7f84189adcd0)"><text xml:space="preserve" font-family="SharpSansNo1-Extrabold,Sharp Sans No1" font-weight="bold" font-size="34.0" fill="#00872A" transform="matrix(1.00, 0.00, -0.00, -1.00, 10.8, 35.6)">G</text><text xml:space="preserve" font-family="SharpSansNo1-Extrabold,Sharp Sans No1" font-weight="bold" font-size="34.0" fill="#00872A" transform="matrix(1.00, 0.00, -0.00, -1.00, 36.8, 35.6)">E</text><text xml:space="preserve" font-family="SharpSansNo1-Extrabold,Sharp Sans No1" font-weight="bold" font-size="34.0" fill="#00872A" transform="matrix(1.00, 0.00, -0.00, -1.00, 53.1, 35.6)">T</text><text xml:space="preserve" font-family="SharpSansNo1-Extrabold,Sharp Sans No1" font-weight="bold" font-size="34.0" fill="#00872A" transform="matrix(1.00, 0.00, -0.00, -1.00, 72.4, 35.6)"> </text><text xml:space="preserve" font-family="SharpSansNo1-Extrabold,Sharp Sans No1" font-weight="bold" font-size="34.0" fill="#00872A" transform="matrix(1.00, 0.00, -0.00, -1.00, 80.6, 35.6)">/</text><text xml:space="preserve" font-family="SharpSansNo1-Extrabold,Sharp Sans No1" font-weight="bold" font-size="34.0" fill="#00872A" transform="matrix(1.00, 0.00, -0.00, -1.00, 98.4, 35.6)">r</text><text xml:space="preserve" font-family="SharpSansNo1-Extrabold,Sharp Sans No1" font-weight="bold" font-size="34.0" fill="#00872A" transform="matrix(1.00, 0.00, -0.00, -1.00, 111.4, 35.6)">e</text><text xml:space="preserve" font-family="SharpSansNo1-Extrabold,Sharp Sans No1" font-weight="bold" font-size="34.0" fill="#00872A" transform="matrix(1.00, 0.00, -0.00, -1.00, 130.0, 35.6)">s</text><text xml:space="preserve" font-family="SharpSansNo1-Extrabold,Sharp Sans No1" font-weight="bold" font-size="34.0" fill="#00872A" transform="matrix(1.00, 0.00, -0.00, -1.00, 146.7, 35.6)">o</text><text xml:space="preserve" font-family="SharpSansNo1-Extrabold,Sharp Sans No1" font-weight="bold" font-size="34.0" fill="#00872A" transform="matrix(1.00, 0.00, -0.00, -1.00, 165.5, 35.6)">u</text><text xml:space="preserve" font-family="SharpSansNo1-Extrabold,Sharp Sans No1" font-weight="bold" font-size="34.0" fill="#00872A" transform="matrix(1.00, 0.00, -0.00, -1.00, 183.3, 35.6)">r</text><text xml:space="preserve" font-family="SharpSansNo1-Extrabold,Sharp Sans No1" font-weight="bold" font-size="34.0" fill="#00872A" transform="matrix(1.00, 0.00, -0.00, -1.00, 196.3, 35.6)">c</text><text xml:space="preserve" font-family="SharpSansNo1-Extrabold,Sharp Sans No1" font-weight="bold" font-size="34.0" fill="#00872A" transform="matrix(1.00, 0.00, -0.00, -1.00, 214.2, 35.6)">e</text><text xml:space="preserve" font-family="SharpSansNo1-Extrabold,Sharp Sans No1" font-weight="bold" font-size="34.0" fill="#00872A" transform="matrix(1.00, 0.00, -0.00, -1.00, 233.0, 35.6)">Y</text></g></g></g></svg>