<?xml version="1.0" encoding="UTF-8" standalone="no"?><svg xmlns="http://www.w3.org/2000/svg" xmlns:xlink="http://www.w3.org/1999/xlink" clip-rule="evenodd" stroke-miterlimit="10" viewBox="0 0 539 22"><desc>SVG generated by Keynote</desc><defs></defs><g transform="matrix(1.00, 0.00, -0.00, -1.00, 0.0, 22.0)"><text xml:space="preserve" font-family="CourierNewPS-BoldMT,Courier New" font-weight="bold" font-size="22.0" fill="#000000" transform="matrix(1.00, 0.00, -0.00, -1.00, 1.0, 6.5)">i</text><text xml:space="preserve" font-family="CourierNewPS-BoldMT,Courier New" font-weight="bold" font-size="22.0" fill="#000000" transform="matrix(1.00, 0.00, -0.00, -1.00, 14.2, 6.5)">f</text><text xml:space="preserve" font-family="CourierNewPSMT,Courier New" font-size="22.0" fill="#000000" transform="matrix(1.00, 0.00, -0.00, -1.00, 27.4, 6.5)"> </text><text xml:space="preserve" font-family="CourierNewPSMT,Courier New" font-size="22.0" fill="#000000" transform="matrix(1.00, 0.00, -0.00, -1.00, 40.6, 6.5)">(</text><text xml:space="preserve" font-family="CourierNewPSMT,Courier New" font-size="22.0" fill="#000000" transform="matrix(1.00, 0.00, -0.00, -1.00, 53.8, 6.5)">r</text><text xml:space="preserve" font-family="CourierNewPSMT,Courier New" font-size="22.0" fill="#000000" transform="matrix(1.00, 0.00, -0.00, -1.00, 67.0, 6.5)">e</text><text xml:space="preserve" font-family="CourierNewPSMT,Courier New" font-size="22.0" fill="#000000" transform="matrix(1.00, 0.00, -0.00, -1.00, 80.2, 6.5)">q</text><text xml:space="preserve" font-family="CourierNewPSMT,Courier New" font-size="22.0" fill="#000000" transform="matrix(1.00, 0.00, -0.00, -1.00, 93.4, 6.5)">.</text><text xml:space="preserve" font-family="CourierNewPSMT,Courier New" font-size="22.0" fill="#000000" transform="matrix(1.00, 0.00, -0.00, -1.00, 106.6, 6.5)">h</text><text xml:space="preserve" font-family="CourierNewPSMT,Courier New" font-size="22.0" fill="#000000" transform="matrix(1.00, 0.00, -0.00, -1.00, 119.8, 6.5)">e</text><text xml:space="preserve" font-family="CourierNewPSMT,Courier New" font-size="22.0" fill="#000000" transform="matrix(1.00, 0.00, -0.00, -1.00, 133.0, 6.5)">a</text><text xml:space="preserve" font-family="CourierNewPSMT,Courier New" font-size="22.0" fill="#000000" transform="matrix(1.00, 0.00, -0.00, -1.00, 146.2, 6.5)">d</text><text xml:space="preserve" font-family="CourierNewPSMT,Courier New" font-size="22.0" fill="#000000" transform="matrix(1.00, 0.00, -0.00, -1.00, 159.4, 6.5)">e</text><text xml:space="preserve" font-family="CourierNewPSMT,Courier New" font-size="22.0" fill="#000000" transform="matrix(1.00, 0.00, -0.00, -1.00, 172.6, 6.5)">r</text><text xml:space="preserve" font-family="CourierNewPSMT,Courier New" font-size="22.0" fill="#000000" transform="matrix(1.00, 0.00, -0.00, -1.00, 185.8, 6.5)">s</text><text xml:space="preserve" font-family="CourierNewPSMT,Courier New" font-size="22.0" fill="#000000" transform="matrix(1.00, 0.00, -0.00, -1.00, 199.0, 6.5)">[</text><text xml:space="preserve" font-family="CourierNewPSMT,Courier New" font-size="22.0" fill="#CC1C00" transform="matrix(1.00, 0.00, -0.00, -1.00, 212.2, 6.5)">'</text><text xml:space="preserve" font-family="CourierNewPSMT,Courier New" font-size="22.0" fill="#CC1C00" transform="matrix(1.00, 0.00, -0.00, -1.00, 225.4, 6.5)">x</text><text xml:space="preserve" font-family="CourierNewPSMT,Courier New" font-size="22.0" fill="#CC1C00" transform="matrix(1.00, 0.00, -0.00, -1.00, 238.6, 6.5)">-</text><text xml:space="preserve" font-family="CourierNewPSMT,Courier New" font-size="22.0" fill="#CC1C00" transform="matrix(1.00, 0.00, -0.00, -1.00, 251.8, 6.5)">t</text><text xml:space="preserve" font-family="CourierNewPSMT,Courier New" font-size="22.0" fill="#CC1C00" transform="matrix(1.00, 0.00, -0.00, -1.00, 265.0, 6.5)">o</text><text xml:space="preserve" font-family="CourierNewPSMT,Courier New" font-size="22.0" fill="#CC1C00" transform="matrix(1.00, 0.00, -0.00, -1.00, 278.2, 6.5)">k</text><text xml:space="preserve" font-family="CourierNewPSMT,Courier New" font-size="22.0" fill="#CC1C00" transform="matrix(1.00, 0.00, -0.00, -1.00, 291.4, 6.5)">e</text><text xml:space="preserve" font-family="CourierNewPSMT,Courier New" font-size="22.0" fill="#CC1C00" transform="matrix(1.00, 0.00, -0.00, -1.00, 304.6, 6.5)">n</text><text xml:space="preserve" font-family="CourierNewPSMT,Courier New" font-size="22.0" fill="#CC1C00" transform="matrix(1.00, 0.00, -0.00, -1.00, 317.8, 6.5)">'</text><text xml:space="preserve" font-family="CourierNewPSMT,Courier New" font-size="22.0" fill="#000000" transform="matrix(1.00, 0.00, -0.00, -1.00, 331.0, 6.5)">]</text><text xml:space="preserve" font-family="CourierNewPSMT,Courier New" font-size="22.0" fill="#000000" transform="matrix(1.00, 0.00, -0.00, -1.00, 344.2, 6.5)"> </text><text xml:space="preserve" font-family="CourierNewPSMT,Courier New" font-size="22.0" fill="#000000" transform="matrix(1.00, 0.00, -0.00, -1.00, 357.4, 6.5)">=</text><text xml:space="preserve" font-family="CourierNewPSMT,Courier New" font-size="22.0" fill="#000000" transform="matrix(1.00, 0.00, -0.00, -1.00, 370.6, 6.5)">=</text><text xml:space="preserve" font-family="CourierNewPSMT,Courier New" font-size="22.0" fill="#000000" transform="matrix(1.00, 0.00, -0.00, -1.00, 383.8, 6.5)">=</text><text xml:space="preserve" font-family="CourierNewPSMT,Courier New" font-size="22.0" fill="#000000" transform="matrix(1.00, 0.00, -0.00, -1.00, 397.0, 6.5)"> </text><text xml:space="preserve" font-family="CourierNewPSMT,Courier New" font-size="22.0" fill="#CC1C00" transform="matrix(1.00, 0.00, -0.00, -1.00, 410.2, 6.5)">'</text><text xml:space="preserve" font-family="CourierNewPSMT,Courier New" font-size="22.0" fill="#CC1C00" transform="matrix(1.00, 0.00, -0.00, -1.00, 423.4, 6.5)">T</text><text xml:space="preserve" font-family="CourierNewPSMT,Courier New" font-size="22.0" fill="#CC1C00" transform="matrix(1.00, 0.00, -0.00, -1.00, 436.6, 6.5)">O</text><text xml:space="preserve" font-family="CourierNewPSMT,Courier New" font-size="22.0" fill="#CC1C00" transform="matrix(1.00, 0.00, -0.00, -1.00, 449.8, 6.5)">K</text><text xml:space="preserve" font-family="CourierNewPSMT,Courier New" font-size="22.0" fill="#CC1C00" transform="matrix(1.00, 0.00, -0.00, -1.00, 463.0, 6.5)">E</text><text xml:space="preserve" font-family="CourierNewPSMT,Courier New" font-size="22.0" fill="#CC1C00" transform="matrix(1.00, 0.00, -0.00, -1.00, 476.2, 6.5)">N</text><text xml:space="preserve" font-family="CourierNewPSMT,Courier New" font-size="22.0" fill="#CC1C00" transform="matrix(1.00, 0.00, -0.00, -1.00, 489.5, 6.5)">'</text><text xml:space="preserve" font-family="CourierNewPSMT,Courier New" font-size="22.0" fill="#000000" transform="matrix(1.00, 0.00, -0.00, -1.00, 502.6, 6.5)">)</text><text xml:space="preserve" font-family="CourierNewPSMT,Courier New" font-size="22.0" fill="#000000" transform="matrix(1.00, 0.00, -0.00, -1.00, 515.8, 6.5)"> </text><text xml:space="preserve" font-family="CourierNewPSMT,Courier New" font-size="22.0" fill="#000000" transform="matrix(1.00, 0.00, -0.00, -1.00, 529.1, 6.5)">{</text></g></svg>