<?xml version="1.0" encoding="UTF-8" standalone="no"?><svg xmlns="http://www.w3.org/2000/svg" xmlns:xlink="http://www.w3.org/1999/xlink" clip-rule="evenodd" stroke-miterlimit="10" viewBox="0 0 475 21"><desc>SVG generated by Keynote</desc><defs></defs><g transform="matrix(1.00, 0.00, -0.00, -1.00, 0.0, 21.0)"><text xml:space="preserve" font-family="CourierNewPS-BoldMT,Courier New" font-weight="bold" font-size="22.0" fill="#000000" transform="matrix(1.00, 0.00, -0.00, -1.00, 2.8, 5.4)">v</text><text xml:space="preserve" font-family="CourierNewPS-BoldMT,Courier New" font-weight="bold" font-size="22.0" fill="#000000" transform="matrix(1.00, 0.00, -0.00, -1.00, 16.0, 5.4)">a</text><text xml:space="preserve" font-family="CourierNewPS-BoldMT,Courier New" font-weight="bold" font-size="22.0" fill="#000000" transform="matrix(1.00, 0.00, -0.00, -1.00, 29.2, 5.4)">r</text><text xml:space="preserve" font-family="CourierNewPSMT,Courier New" font-size="22.0" fill="#000000" transform="matrix(1.00, 0.00, -0.00, -1.00, 42.4, 5.4)"> </text><text xml:space="preserve" font-family="CourierNewPSMT,Courier New" font-size="22.0" fill="#000000" transform="matrix(1.00, 0.00, -0.00, -1.00, 55.6, 5.4)">e</text><text xml:space="preserve" font-family="CourierNewPSMT,Courier New" font-size="22.0" fill="#000000" transform="matrix(1.00, 0.00, -0.00, -1.00, 68.8, 5.4)">r</text><text xml:space="preserve" font-family="CourierNewPSMT,Courier New" font-size="22.0" fill="#000000" transform="matrix(1.00, 0.00, -0.00, -1.00, 82.0, 5.4)">r</text><text xml:space="preserve" font-family="CourierNewPSMT,Courier New" font-size="22.0" fill="#000000" transform="matrix(1.00, 0.00, -0.00, -1.00, 95.2, 5.4)"> </text><text xml:space="preserve" font-family="CourierNewPSMT,Courier New" font-size="22.0" fill="#000000" transform="matrix(1.00, 0.00, -0.00, -1.00, 108.4, 5.4)">=</text><text xml:space="preserve" font-family="CourierNewPSMT,Courier New" font-size="22.0" fill="#000000" transform="matrix(1.00, 0.00, -0.00, -1.00, 121.6, 5.4)"> </text><text xml:space="preserve" font-family="CourierNewPS-BoldMT,Courier New" font-weight="bold" font-size="22.0" fill="#000000" transform="matrix(1.00, 0.00, -0.00, -1.00, 134.8, 5.4)">n</text><text xml:space="preserve" font-family="CourierNewPS-BoldMT,Courier New" font-weight="bold" font-size="22.0" fill="#000000" transform="matrix(1.00, 0.00, -0.00, -1.00, 148.0, 5.4)">e</text><text xml:space="preserve" font-family="CourierNewPS-BoldMT,Courier New" font-weight="bold" font-size="22.0" fill="#000000" transform="matrix(1.00, 0.00, -0.00, -1.00, 161.2, 5.4)">w</text><text xml:space="preserve" font-family="CourierNewPSMT,Courier New" font-size="22.0" fill="#000000" transform="matrix(1.00, 0.00, -0.00, -1.00, 174.4, 5.4)"> </text><text xml:space="preserve" font-family="CourierNewPSMT,Courier New" font-size="22.0" fill="#021993" transform="matrix(1.00, 0.00, -0.00, -1.00, 187.6, 5.4)">E</text><text xml:space="preserve" font-family="CourierNewPSMT,Courier New" font-size="22.0" fill="#021993" transform="matrix(1.00, 0.00, -0.00, -1.00, 200.8, 5.4)">r</text><text xml:space="preserve" font-family="CourierNewPSMT,Courier New" font-size="22.0" fill="#021993" transform="matrix(1.00, 0.00, -0.00, -1.00, 214.0, 5.4)">r</text><text xml:space="preserve" font-family="CourierNewPSMT,Courier New" font-size="22.0" fill="#021993" transform="matrix(1.00, 0.00, -0.00, -1.00, 227.2, 5.4)">o</text><text xml:space="preserve" font-family="CourierNewPSMT,Courier New" font-size="22.0" fill="#021993" transform="matrix(1.00, 0.00, -0.00, -1.00, 240.4, 5.4)">r</text><text xml:space="preserve" font-family="CourierNewPSMT,Courier New" font-size="22.0" fill="#000000" transform="matrix(1.00, 0.00, -0.00, -1.00, 253.6, 5.4)">(</text><text xml:space="preserve" font-family="CourierNewPSMT,Courier New" font-size="22.0" fill="#CC1C00" transform="matrix(1.00, 0.00, -0.00, -1.00, 266.8, 5.4)">'</text><text xml:space="preserve" font-family="CourierNewPSMT,Courier New" font-size="22.0" fill="#CC1C00" transform="matrix(1.00, 0.00, -0.00, -1.00, 280.0, 5.4)">U</text><text xml:space="preserve" font-family="CourierNewPSMT,Courier New" font-size="22.0" fill="#CC1C00" transform="matrix(1.00, 0.00, -0.00, -1.00, 293.2, 5.4)">n</text><text xml:space="preserve" font-family="CourierNewPSMT,Courier New" font-size="22.0" fill="#CC1C00" transform="matrix(1.00, 0.00, -0.00, -1.00, 306.4, 5.4)">a</text><text xml:space="preserve" font-family="CourierNewPSMT,Courier New" font-size="22.0" fill="#CC1C00" transform="matrix(1.00, 0.00, -0.00, -1.00, 319.7, 5.4)">u</text><text xml:space="preserve" font-family="CourierNewPSMT,Courier New" font-size="22.0" fill="#CC1C00" transform="matrix(1.00, 0.00, -0.00, -1.00, 332.9, 5.4)">t</text><text xml:space="preserve" font-family="CourierNewPSMT,Courier New" font-size="22.0" fill="#CC1C00" transform="matrix(1.00, 0.00, -0.00, -1.00, 346.1, 5.4)">h</text><text xml:space="preserve" font-family="CourierNewPSMT,Courier New" font-size="22.0" fill="#CC1C00" transform="matrix(1.00, 0.00, -0.00, -1.00, 359.3, 5.4)">o</text><text xml:space="preserve" font-family="CourierNewPSMT,Courier New" font-size="22.0" fill="#CC1C00" transform="matrix(1.00, 0.00, -0.00, -1.00, 372.5, 5.4)">r</text><text xml:space="preserve" font-family="CourierNewPSMT,Courier New" font-size="22.0" fill="#CC1C00" transform="matrix(1.00, 0.00, -0.00, -1.00, 385.7, 5.4)">i</text><text xml:space="preserve" font-family="CourierNewPSMT,Courier New" font-size="22.0" fill="#CC1C00" transform="matrix(1.00, 0.00, -0.00, -1.00, 398.9, 5.4)">z</text><text xml:space="preserve" font-family="CourierNewPSMT,Courier New" font-size="22.0" fill="#CC1C00" transform="matrix(1.00, 0.00, -0.00, -1.00, 412.1, 5.4)">e</text><text xml:space="preserve" font-family="CourierNewPSMT,Courier New" font-size="22.0" fill="#CC1C00" transform="matrix(1.00, 0.00, -0.00, -1.00, 425.3, 5.4)">d</text><text xml:space="preserve" font-family="CourierNewPSMT,Courier New" font-size="22.0" fill="#CC1C00" transform="matrix(1.00, 0.00, -0.00, -1.00, 438.5, 5.4)">'</text><text xml:space="preserve" font-family="CourierNewPSMT,Courier New" font-size="22.0" fill="#000000" transform="matrix(1.00, 0.00, -0.00, -1.00, 451.7, 5.4)">)</text><text xml:space="preserve" font-family="CourierNewPSMT,Courier New" font-size="22.0" fill="#000000" transform="matrix(1.00, 0.00, -0.00, -1.00, 464.9, 5.4)">;</text></g></svg>