<?xml version="1.0" encoding="UTF-8" standalone="no"?><svg xmlns="http://www.w3.org/2000/svg" xmlns:xlink="http://www.w3.org/1999/xlink" clip-rule="evenodd" stroke-miterlimit="10" viewBox="0 0 327 29"><desc>SVG generated by Keynote</desc><defs></defs><g transform="matrix(1.00, 0.00, -0.00, -1.00, 0.0, 29.0)"><text xml:space="preserve" font-family="SharpSansNo1-Extrabold,Sharp Sans No1" font-weight="bold" font-size="34.0" fill="#000000" transform="matrix(1.00, 0.00, -0.00, -1.00, 2.3, 2.3)">“</text><text xml:space="preserve" font-family="SharpSansNo1-Extrabold,Sharp Sans No1" font-weight="bold" font-size="34.0" fill="#000000" transform="matrix(1.00, 0.00, -0.00, -1.00, 16.5, 2.3)">/</text><text xml:space="preserve" font-family="SharpSansNo1-Extrabold,Sharp Sans No1" font-weight="bold" font-size="34.0" fill="#000000" transform="matrix(1.00, 0.00, -0.00, -1.00, 34.3, 2.3)">r</text><text xml:space="preserve" font-family="SharpSansNo1-Extrabold,Sharp Sans No1" font-weight="bold" font-size="34.0" fill="#000000" transform="matrix(1.00, 0.00, -0.00, -1.00, 47.3, 2.3)">e</text><text xml:space="preserve" font-family="SharpSansNo1-Extrabold,Sharp Sans No1" font-weight="bold" font-size="34.0" fill="#000000" transform="matrix(1.00, 0.00, -0.00, -1.00, 65.9, 2.3)">s</text><text xml:space="preserve" font-family="SharpSansNo1-Extrabold,Sharp Sans No1" font-weight="bold" font-size="34.0" fill="#000000" transform="matrix(1.00, 0.00, -0.00, -1.00, 82.6, 2.3)">o</text><text xml:space="preserve" font-family="SharpSansNo1-Extrabold,Sharp Sans No1" font-weight="bold" font-size="34.0" fill="#000000" transform="matrix(1.00, 0.00, -0.00, -1.00, 101.4, 2.3)">u</text><text xml:space="preserve" font-family="SharpSansNo1-Extrabold,Sharp Sans No1" font-weight="bold" font-size="34.0" fill="#000000" transform="matrix(1.00, 0.00, -0.00, -1.00, 119.2, 2.3)">r</text><text xml:space="preserve" font-family="SharpSansNo1-Extrabold,Sharp Sans No1" font-weight="bold" font-size="34.0" fill="#000000" transform="matrix(1.00, 0.00, -0.00, -1.00, 132.2, 2.3)">c</text><text xml:space="preserve" font-family="SharpSansNo1-Extrabold,Sharp Sans No1" font-weight="bold" font-size="34.0" fill="#000000" transform="matrix(1.00, 0.00, -0.00, -1.00, 150.2, 2.3)">e</text><text xml:space="preserve" font-family="SharpSansNo1-Extrabold,Sharp Sans No1" font-weight="bold" font-size="34.0" fill="#000000" transform="matrix(1.00, 0.00, -0.00, -1.00, 168.9, 2.3)">X</text><text xml:space="preserve" font-family="SharpSansNo1-Extrabold,Sharp Sans No1" font-weight="bold" font-size="34.0" fill="#000000" transform="matrix(1.00, 0.00, -0.00, -1.00, 190.3, 2.3)">”</text><text xml:space="preserve" font-family="SharpSansNo1-Extrabold,Sharp Sans No1" font-weight="bold" font-size="34.0" fill="#000000" transform="matrix(1.00, 0.00, -0.00, -1.00, 204.4, 2.3)"> </text><text xml:space="preserve" font-family="SharpSansNo1-Extrabold,Sharp Sans No1" font-weight="bold" font-size="34.0" fill="#000000" transform="matrix(1.00, 0.00, -0.00, -1.00, 212.7, 2.3)">h</text><text xml:space="preserve" font-family="SharpSansNo1-Extrabold,Sharp Sans No1" font-weight="bold" font-size="34.0" fill="#000000" transform="matrix(1.00, 0.00, -0.00, -1.00, 230.4, 2.3)">a</text><text xml:space="preserve" font-family="SharpSansNo1-Extrabold,Sharp Sans No1" font-weight="bold" font-size="34.0" fill="#000000" transform="matrix(1.00, 0.00, -0.00, -1.00, 249.7, 2.3)">n</text><text xml:space="preserve" font-family="SharpSansNo1-Extrabold,Sharp Sans No1" font-weight="bold" font-size="34.0" fill="#000000" transform="matrix(1.00, 0.00, -0.00, -1.00, 267.4, 2.3)">d</text><text xml:space="preserve" font-family="SharpSansNo1-Extrabold,Sharp Sans No1" font-weight="bold" font-size="34.0" fill="#000000" transform="matrix(1.00, 0.00, -0.00, -1.00, 286.7, 2.3)">l</text><text xml:space="preserve" font-family="SharpSansNo1-Extrabold,Sharp Sans No1" font-weight="bold" font-size="34.0" fill="#000000" transform="matrix(1.00, 0.00, -0.00, -1.00, 293.9, 2.3)">e</text><text xml:space="preserve" font-family="SharpSansNo1-Extrabold,Sharp Sans No1" font-weight="bold" font-size="34.0" fill="#000000" transform="matrix(1.00, 0.00, -0.00, -1.00, 312.7, 2.3)">r</text></g></svg>