<?xml version="1.0" encoding="UTF-8" standalone="no"?><svg xmlns="http://www.w3.org/2000/svg" xmlns:xlink="http://www.w3.org/1999/xlink" clip-rule="evenodd" stroke-miterlimit="10" viewBox="0 0 420 21"><desc>SVG generated by Keynote</desc><defs></defs><g transform="matrix(1.00, 0.00, -0.00, -1.00, 0.0, 21.0)"><text xml:space="preserve" font-family="CourierNewPS-BoldMT,Courier New" font-weight="bold" font-size="22.0" fill="#000000" transform="matrix(1.00, 0.00, -0.00, -1.00, 1.0, 5.5)">r</text><text xml:space="preserve" font-family="CourierNewPS-BoldMT,Courier New" font-weight="bold" font-size="22.0" fill="#000000" transform="matrix(1.00, 0.00, -0.00, -1.00, 14.2, 5.5)">e</text><text xml:space="preserve" font-family="CourierNewPS-BoldMT,Courier New" font-weight="bold" font-size="22.0" fill="#000000" transform="matrix(1.00, 0.00, -0.00, -1.00, 27.4, 5.5)">t</text><text xml:space="preserve" font-family="CourierNewPS-BoldMT,Courier New" font-weight="bold" font-size="22.0" fill="#000000" transform="matrix(1.00, 0.00, -0.00, -1.00, 40.6, 5.5)">u</text><text xml:space="preserve" font-family="CourierNewPS-BoldMT,Courier New" font-weight="bold" font-size="22.0" fill="#000000" transform="matrix(1.00, 0.00, -0.00, -1.00, 53.8, 5.5)">r</text><text xml:space="preserve" font-family="CourierNewPS-BoldMT,Courier New" font-weight="bold" font-size="22.0" fill="#000000" transform="matrix(1.00, 0.00, -0.00, -1.00, 67.0, 5.5)">n</text><text xml:space="preserve" font-family="CourierNewPSMT,Courier New" font-size="22.0" fill="#000000" transform="matrix(1.00, 0.00, -0.00, -1.00, 80.2, 5.5)"> </text><text xml:space="preserve" font-family="CourierNewPSMT,Courier New" font-size="22.0" fill="#000000" transform="matrix(1.00, 0.00, -0.00, -1.00, 93.4, 5.5)">r</text><text xml:space="preserve" font-family="CourierNewPSMT,Courier New" font-size="22.0" fill="#000000" transform="matrix(1.00, 0.00, -0.00, -1.00, 106.6, 5.5)">e</text><text xml:space="preserve" font-family="CourierNewPSMT,Courier New" font-size="22.0" fill="#000000" transform="matrix(1.00, 0.00, -0.00, -1.00, 119.8, 5.5)">s</text><text xml:space="preserve" font-family="CourierNewPSMT,Courier New" font-size="22.0" fill="#000000" transform="matrix(1.00, 0.00, -0.00, -1.00, 133.0, 5.5)">.</text><text xml:space="preserve" font-family="CourierNewPSMT,Courier New" font-size="22.0" fill="#021993" transform="matrix(1.00, 0.00, -0.00, -1.00, 146.2, 5.5)">s</text><text xml:space="preserve" font-family="CourierNewPSMT,Courier New" font-size="22.0" fill="#021993" transform="matrix(1.00, 0.00, -0.00, -1.00, 159.4, 5.5)">e</text><text xml:space="preserve" font-family="CourierNewPSMT,Courier New" font-size="22.0" fill="#021993" transform="matrix(1.00, 0.00, -0.00, -1.00, 172.6, 5.5)">n</text><text xml:space="preserve" font-family="CourierNewPSMT,Courier New" font-size="22.0" fill="#021993" transform="matrix(1.00, 0.00, -0.00, -1.00, 185.8, 5.5)">d</text><text xml:space="preserve" font-family="CourierNewPSMT,Courier New" font-size="22.0" fill="#000000" transform="matrix(1.00, 0.00, -0.00, -1.00, 199.0, 5.5)">(</text><text xml:space="preserve" font-family="CourierNewPSMT,Courier New" font-size="22.0" fill="#CC1C00" transform="matrix(1.00, 0.00, -0.00, -1.00, 212.2, 5.5)">'</text><text xml:space="preserve" font-family="CourierNewPSMT,Courier New" font-size="22.0" fill="#CC1C00" transform="matrix(1.00, 0.00, -0.00, -1.00, 225.4, 5.5)">U</text><text xml:space="preserve" font-family="CourierNewPSMT,Courier New" font-size="22.0" fill="#CC1C00" transform="matrix(1.00, 0.00, -0.00, -1.00, 238.6, 5.5)">n</text><text xml:space="preserve" font-family="CourierNewPSMT,Courier New" font-size="22.0" fill="#CC1C00" transform="matrix(1.00, 0.00, -0.00, -1.00, 251.8, 5.5)">a</text><text xml:space="preserve" font-family="CourierNewPSMT,Courier New" font-size="22.0" fill="#CC1C00" transform="matrix(1.00, 0.00, -0.00, -1.00, 265.0, 5.5)">u</text><text xml:space="preserve" font-family="CourierNewPSMT,Courier New" font-size="22.0" fill="#CC1C00" transform="matrix(1.00, 0.00, -0.00, -1.00, 278.2, 5.5)">t</text><text xml:space="preserve" font-family="CourierNewPSMT,Courier New" font-size="22.0" fill="#CC1C00" transform="matrix(1.00, 0.00, -0.00, -1.00, 291.4, 5.5)">h</text><text xml:space="preserve" font-family="CourierNewPSMT,Courier New" font-size="22.0" fill="#CC1C00" transform="matrix(1.00, 0.00, -0.00, -1.00, 304.6, 5.5)">o</text><text xml:space="preserve" font-family="CourierNewPSMT,Courier New" font-size="22.0" fill="#CC1C00" transform="matrix(1.00, 0.00, -0.00, -1.00, 317.8, 5.5)">r</text><text xml:space="preserve" font-family="CourierNewPSMT,Courier New" font-size="22.0" fill="#CC1C00" transform="matrix(1.00, 0.00, -0.00, -1.00, 331.0, 5.5)">i</text><text xml:space="preserve" font-family="CourierNewPSMT,Courier New" font-size="22.0" fill="#CC1C00" transform="matrix(1.00, 0.00, -0.00, -1.00, 344.2, 5.5)">z</text><text xml:space="preserve" font-family="CourierNewPSMT,Courier New" font-size="22.0" fill="#CC1C00" transform="matrix(1.00, 0.00, -0.00, -1.00, 357.4, 5.5)">e</text><text xml:space="preserve" font-family="CourierNewPSMT,Courier New" font-size="22.0" fill="#CC1C00" transform="matrix(1.00, 0.00, -0.00, -1.00, 370.6, 5.5)">d</text><text xml:space="preserve" font-family="CourierNewPSMT,Courier New" font-size="22.0" fill="#CC1C00" transform="matrix(1.00, 0.00, -0.00, -1.00, 383.9, 5.5)">'</text><text xml:space="preserve" font-family="CourierNewPSMT,Courier New" font-size="22.0" fill="#000000" transform="matrix(1.00, 0.00, -0.00, -1.00, 397.0, 5.5)">)</text><text xml:space="preserve" font-family="CourierNewPSMT,Courier New" font-size="22.0" fill="#000000" transform="matrix(1.00, 0.00, -0.00, -1.00, 410.2, 5.5)">;</text></g></svg>