<?xml version="1.0" encoding="UTF-8" standalone="no"?><svg xmlns="http://www.w3.org/2000/svg" xmlns:xlink="http://www.w3.org/1999/xlink" clip-rule="evenodd" stroke-miterlimit="10" viewBox="0 0 351 145"><desc>SVG generated by Keynote</desc><defs></defs><g transform="matrix(1.00, 0.00, -0.00, -1.00, 0.0, 145.0)"><g><clipPath id="clip0x7f84189c7120"><path d="M 0.4 52.0 L 93.3 52.0 L 93.3 144.8 L 0.4 144.8 Z M 0.4 52.0 "></path></clipPath><g clip-path="url(#clip0x7f84189c7120)"><image xlink:href="../../64BB4636-2949-42F6-B500-CF14DB6465B3/assets/C6BFB33819CE82142561D331551856C3.png" width="83.00" height="83.00" transform="matrix(1.12, 0.00, -0.00, -1.12, 0.0, 145.0)"></image></g></g><g><clipPath id="clip0x7f84189c82f0"><path d="M 101.5 -14.7 L 577.0 -14.7 L 577.0 141.3 L 101.5 141.3 Z M 101.5 -14.7 "></path></clipPath><g clip-path="url(#clip0x7f84189c82f0)"><text xml:space="preserve" font-family="SharpSansNo1-Extrabold,Sharp Sans No1" font-weight="bold" font-size="34.0" fill="#000000" transform="matrix(1.00, 0.00, -0.00, -1.00, 114.3, 102.3)">E</text><text xml:space="preserve" font-family="SharpSansNo1-Extrabold,Sharp Sans No1" font-weight="bold" font-size="34.0" fill="#000000" transform="matrix(1.00, 0.00, -0.00, -1.00, 130.7, 102.3)">X</text><text xml:space="preserve" font-family="SharpSansNo1-Extrabold,Sharp Sans No1" font-weight="bold" font-size="34.0" fill="#000000" transform="matrix(1.00, 0.00, -0.00, -1.00, 152.2, 102.3)">P</text><text xml:space="preserve" font-family="SharpSansNo1-Extrabold,Sharp Sans No1" font-weight="bold" font-size="34.0" fill="#000000" transform="matrix(1.00, 0.00, -0.00, -1.00, 171.6, 102.3)">R</text><text xml:space="preserve" font-family="SharpSansNo1-Extrabold,Sharp Sans No1" font-weight="bold" font-size="34.0" fill="#000000" transform="matrix(1.00, 0.00, -0.00, -1.00, 190.9, 102.3)">E</text><text xml:space="preserve" font-family="SharpSansNo1-Extrabold,Sharp Sans No1" font-weight="bold" font-size="34.0" fill="#000000" transform="matrix(1.00, 0.00, -0.00, -1.00, 207.1, 102.3)">S</text><text xml:space="preserve" font-family="SharpSansNo1-Extrabold,Sharp Sans No1" font-weight="bold" font-size="34.0" fill="#000000" transform="matrix(1.00, 0.00, -0.00, -1.00, 226.2, 102.3)">S</text><text xml:space="preserve" font-family="SharpSansNo1-Extrabold,Sharp Sans No1" font-weight="bold" font-size="34.0" fill="#000000" transform="matrix(1.00, 0.00, -0.00, -1.00, 245.7, 102.3)"> </text><text xml:space="preserve" font-family="SharpSansNo1-Extrabold,Sharp Sans No1" font-weight="bold" font-size="34.0" fill="#000000" transform="matrix(1.00, 0.00, -0.00, -1.00, 114.3, 69.0)">M</text><text xml:space="preserve" font-family="SharpSansNo1-Extrabold,Sharp Sans No1" font-weight="bold" font-size="34.0" fill="#000000" transform="matrix(1.00, 0.00, -0.00, -1.00, 140.3, 69.0)">I</text><text xml:space="preserve" font-family="SharpSansNo1-Extrabold,Sharp Sans No1" font-weight="bold" font-size="34.0" fill="#000000" transform="matrix(1.00, 0.00, -0.00, -1.00, 148.2, 69.0)">D</text><text xml:space="preserve" font-family="SharpSansNo1-Extrabold,Sharp Sans No1" font-weight="bold" font-size="34.0" fill="#000000" transform="matrix(1.00, 0.00, -0.00, -1.00, 169.9, 69.0)">D</text><text xml:space="preserve" font-family="SharpSansNo1-Extrabold,Sharp Sans No1" font-weight="bold" font-size="34.0" fill="#000000" transform="matrix(1.00, 0.00, -0.00, -1.00, 191.6, 69.0)">L</text><text xml:space="preserve" font-family="SharpSansNo1-Extrabold,Sharp Sans No1" font-weight="bold" font-size="34.0" fill="#000000" transform="matrix(1.00, 0.00, -0.00, -1.00, 207.2, 69.0)">E</text><text xml:space="preserve" font-family="SharpSansNo1-Extrabold,Sharp Sans No1" font-weight="bold" font-size="34.0" fill="#000000" transform="matrix(1.00, 0.00, -0.00, -1.00, 223.6, 69.0)">W</text><text xml:space="preserve" font-family="SharpSansNo1-Extrabold,Sharp Sans No1" font-weight="bold" font-size="34.0" fill="#000000" transform="matrix(1.00, 0.00, -0.00, -1.00, 253.1, 69.0)">A</text><text xml:space="preserve" font-family="SharpSansNo1-Extrabold,Sharp Sans No1" font-weight="bold" font-size="34.0" fill="#000000" transform="matrix(1.00, 0.00, -0.00, -1.00, 276.1, 69.0)">R</text><text xml:space="preserve" font-family="SharpSansNo1-Extrabold,Sharp Sans No1" font-weight="bold" font-size="34.0" fill="#000000" transform="matrix(1.00, 0.00, -0.00, -1.00, 295.4, 69.0)">E</text><text xml:space="preserve" font-family="SharpSansNo1-Extrabold,Sharp Sans No1" font-weight="bold" font-size="34.0" fill="#000000" transform="matrix(1.00, 0.00, -0.00, -1.00, 311.6, 69.0)">S</text><text xml:space="preserve" font-family="SharpSansNo1-Extrabold,Sharp Sans No1" font-weight="bold" font-size="34.0" fill="#000000" transform="matrix(1.00, 0.00, -0.00, -1.00, 331.1, 69.0)"> </text></g></g></g></svg>