<?xml version="1.0" encoding="UTF-8" standalone="no"?><svg xmlns="http://www.w3.org/2000/svg" xmlns:xlink="http://www.w3.org/1999/xlink" clip-rule="evenodd" stroke-miterlimit="10" viewBox="0 0 202 29"><desc>SVG generated by Keynote</desc><defs></defs><g transform="matrix(1.00, 0.00, -0.00, -1.00, 0.0, 29.0)"><g><clipPath id="clip0x7f84189ef7d0"><path d="M 0.0 0.0 L 202.0 0.0 L 202.0 28.8 L 0.0 28.8 Z M 0.0 0.0 "></path></clipPath><g clip-path="url(#clip0x7f84189ef7d0)"><text xml:space="preserve" font-family="SharpSansNo1-Extrabold,Sharp Sans No1" font-weight="bold" font-size="34.0" fill="#000000" transform="matrix(1.00, 0.00, -0.00, -1.00, 0.7, 2.6)">e</text><text xml:space="preserve" font-family="SharpSansNo1-Extrabold,Sharp Sans No1" font-weight="bold" font-size="34.0" fill="#000000" transform="matrix(1.00, 0.00, -0.00, -1.00, 19.5, 2.6)">r</text><text xml:space="preserve" font-family="SharpSansNo1-Extrabold,Sharp Sans No1" font-weight="bold" font-size="34.0" fill="#000000" transform="matrix(1.00, 0.00, -0.00, -1.00, 33.0, 2.6)">r</text><text xml:space="preserve" font-family="SharpSansNo1-Extrabold,Sharp Sans No1" font-weight="bold" font-size="34.0" fill="#000000" transform="matrix(1.00, 0.00, -0.00, -1.00, 46.0, 2.6)">o</text><text xml:space="preserve" font-family="SharpSansNo1-Extrabold,Sharp Sans No1" font-weight="bold" font-size="34.0" fill="#000000" transform="matrix(1.00, 0.00, -0.00, -1.00, 64.8, 2.6)">r</text><text xml:space="preserve" font-family="SharpSansNo1-Extrabold,Sharp Sans No1" font-weight="bold" font-size="34.0" fill="#000000" transform="matrix(1.00, 0.00, -0.00, -1.00, 78.3, 2.6)"> </text><text xml:space="preserve" font-family="SharpSansNo1-Extrabold,Sharp Sans No1" font-weight="bold" font-size="34.0" fill="#000000" transform="matrix(1.00, 0.00, -0.00, -1.00, 86.5, 2.6)">h</text><text xml:space="preserve" font-family="SharpSansNo1-Extrabold,Sharp Sans No1" font-weight="bold" font-size="34.0" fill="#000000" transform="matrix(1.00, 0.00, -0.00, -1.00, 104.2, 2.6)">a</text><text xml:space="preserve" font-family="SharpSansNo1-Extrabold,Sharp Sans No1" font-weight="bold" font-size="34.0" fill="#000000" transform="matrix(1.00, 0.00, -0.00, -1.00, 123.6, 2.6)">n</text><text xml:space="preserve" font-family="SharpSansNo1-Extrabold,Sharp Sans No1" font-weight="bold" font-size="34.0" fill="#000000" transform="matrix(1.00, 0.00, -0.00, -1.00, 141.3, 2.6)">d</text><text xml:space="preserve" font-family="SharpSansNo1-Extrabold,Sharp Sans No1" font-weight="bold" font-size="34.0" fill="#000000" transform="matrix(1.00, 0.00, -0.00, -1.00, 160.5, 2.6)">l</text><text xml:space="preserve" font-family="SharpSansNo1-Extrabold,Sharp Sans No1" font-weight="bold" font-size="34.0" fill="#000000" transform="matrix(1.00, 0.00, -0.00, -1.00, 167.8, 2.6)">e</text><text xml:space="preserve" font-family="SharpSansNo1-Extrabold,Sharp Sans No1" font-weight="bold" font-size="34.0" fill="#000000" transform="matrix(1.00, 0.00, -0.00, -1.00, 186.6, 2.6)">r</text></g></g></g></svg>