<?xml version="1.0" encoding="UTF-8" standalone="no"?><svg xmlns="http://www.w3.org/2000/svg" xmlns:xlink="http://www.w3.org/1999/xlink" clip-rule="evenodd" stroke-miterlimit="10" viewBox="0 0 1920 1080"><desc>SVG generated by Keynote</desc><defs></defs><g transform="matrix(1.00, 0.00, -0.00, -1.00, 0.0, 1080.0)"><path d="M 0.0 1080.0 L 1920.0 1080.0 L 1920.0 0.0 L 0.0 0.0 Z M 0.0 1080.0 " fill="#FEFFFF"></path><path d="M 0.0 1080.0 L 1920.0 1080.0 L 1920.0 0.0 L 0.0 0.0 Z M -0.0 1080.0 " fill="#252525"></path><text xml:space="preserve" font-family="SharpSansNo1-Bold,Sharp Sans No1" font-weight="bold" font-size="42.0" fill="#FFFFFF" transform="matrix(1.00, 0.00, -0.00, -1.00, 700.6, 551.9)">/</text><text xml:space="preserve" font-family="SharpSansNo1-Bold,Sharp Sans No1" font-weight="bold" font-size="42.0" fill="#FFFFFF" transform="matrix(1.00, 0.00, -0.00, -1.00, 722.1, 551.9)">/</text><text xml:space="preserve" font-family="SharpSansNo1-Bold,Sharp Sans No1" font-weight="bold" font-size="42.0" fill="#FFFFFF" transform="matrix(1.00, 0.00, -0.00, -1.00, 743.6, 551.9)"> </text><text xml:space="preserve" font-family="SharpSansNo1-Bold,Sharp Sans No1" font-weight="bold" font-size="42.0" fill="#FFFFFF" transform="matrix(1.00, 0.00, -0.00, -1.00, 753.9, 551.9)">E</text><text xml:space="preserve" font-family="SharpSansNo1-Bold,Sharp Sans No1" font-weight="bold" font-size="42.0" fill="#FFFFFF" transform="matrix(1.00, 0.00, -0.00, -1.00, 775.1, 551.9)">X</text><text xml:space="preserve" font-family="SharpSansNo1-Bold,Sharp Sans No1" font-weight="bold" font-size="42.0" fill="#FFFFFF" transform="matrix(1.00, 0.00, -0.00, -1.00, 801.5, 551.9)">P</text><text xml:space="preserve" font-family="SharpSansNo1-Bold,Sharp Sans No1" font-weight="bold" font-size="42.0" fill="#FFFFFF" transform="matrix(1.00, 0.00, -0.00, -1.00, 825.8, 551.9)">R</text><text xml:space="preserve" font-family="SharpSansNo1-Bold,Sharp Sans No1" font-weight="bold" font-size="42.0" fill="#FFFFFF" transform="matrix(1.00, 0.00, -0.00, -1.00, 849.9, 551.9)">E</text><text xml:space="preserve" font-family="SharpSansNo1-Bold,Sharp Sans No1" font-weight="bold" font-size="42.0" fill="#FFFFFF" transform="matrix(1.00, 0.00, -0.00, -1.00, 871.1, 551.9)">S</text><text xml:space="preserve" font-family="SharpSansNo1-Bold,Sharp Sans No1" font-weight="bold" font-size="42.0" fill="#FFFFFF" transform="matrix(1.00, 0.00, -0.00, -1.00, 895.0, 551.9)">S</text><text xml:space="preserve" font-family="SharpSansNo1-Bold,Sharp Sans No1" font-weight="bold" font-size="42.0" fill="#FFFFFF" transform="matrix(1.00, 0.00, -0.00, -1.00, 918.6, 551.9)"> </text><text xml:space="preserve" font-family="SharpSansNo1-Bold,Sharp Sans No1" font-weight="bold" font-size="42.0" fill="#FDEC4A" transform="matrix(1.00, 0.00, -0.00, -1.00, 928.9, 551.9)">A</text><text xml:space="preserve" font-family="SharpSansNo1-Bold,Sharp Sans No1" font-weight="bold" font-size="42.0" fill="#FDEC4A" transform="matrix(1.00, 0.00, -0.00, -1.00, 957.7, 551.9)">R</text><text xml:space="preserve" font-family="SharpSansNo1-Bold,Sharp Sans No1" font-weight="bold" font-size="42.0" fill="#FDEC4A" transform="matrix(1.00, 0.00, -0.00, -1.00, 982.0, 551.9)">C</text><text xml:space="preserve" font-family="SharpSansNo1-Bold,Sharp Sans No1" font-weight="bold" font-size="42.0" fill="#FDEC4A" transform="matrix(1.00, 0.00, -0.00, -1.00, 1012.9, 551.9)">H</text><text xml:space="preserve" font-family="SharpSansNo1-Bold,Sharp Sans No1" font-weight="bold" font-size="42.0" fill="#FDEC4A" transform="matrix(1.00, 0.00, -0.00, -1.00, 1039.4, 551.9)">I</text><text xml:space="preserve" font-family="SharpSansNo1-Bold,Sharp Sans No1" font-weight="bold" font-size="42.0" fill="#FDEC4A" transform="matrix(1.00, 0.00, -0.00, -1.00, 1049.1, 551.9)">T</text><text xml:space="preserve" font-family="SharpSansNo1-Bold,Sharp Sans No1" font-weight="bold" font-size="42.0" fill="#FDEC4A" transform="matrix(1.00, 0.00, -0.00, -1.00, 1073.3, 551.9)">E</text><text xml:space="preserve" font-family="SharpSansNo1-Bold,Sharp Sans No1" font-weight="bold" font-size="42.0" fill="#FDEC4A" transform="matrix(1.00, 0.00, -0.00, -1.00, 1094.7, 551.9)">C</text><text xml:space="preserve" font-family="SharpSansNo1-Bold,Sharp Sans No1" font-weight="bold" font-size="42.0" fill="#FDEC4A" transform="matrix(1.00, 0.00, -0.00, -1.00, 1124.5, 551.9)">T</text><text xml:space="preserve" font-family="SharpSansNo1-Bold,Sharp Sans No1" font-weight="bold" font-size="42.0" fill="#FDEC4A" transform="matrix(1.00, 0.00, -0.00, -1.00, 1148.8, 551.9)">U</text><text xml:space="preserve" font-family="SharpSansNo1-Bold,Sharp Sans No1" font-weight="bold" font-size="42.0" fill="#FDEC4A" transform="matrix(1.00, 0.00, -0.00, -1.00, 1174.3, 551.9)">R</text><text xml:space="preserve" font-family="SharpSansNo1-Bold,Sharp Sans No1" font-weight="bold" font-size="42.0" fill="#FDEC4A" transform="matrix(1.00, 0.00, -0.00, -1.00, 1198.3, 551.9)">E</text></g></svg>