<?xml version="1.0" encoding="UTF-8" standalone="no"?><svg xmlns="http://www.w3.org/2000/svg" xmlns:xlink="http://www.w3.org/1999/xlink" clip-rule="evenodd" stroke-miterlimit="10" viewBox="0 0 1920 1080"><desc>SVG generated by Keynote</desc><defs></defs><g transform="matrix(1.00, 0.00, -0.00, -1.00, 0.0, 1080.0)"><path d="M 0.0 1080.0 L 1920.0 1080.0 L 1920.0 0.0 L 0.0 0.0 Z M 0.0 1080.0 " fill="#FEFFFF"></path><path d="M -1.0 1081.0 L 671.0 1081.0 L 671.0 1.0 L -1.0 1.0 Z M -1.0 1081.0 " fill="#F2F2F2"></path><g><clipPath id="clip0x7f841c80a210"><path d="M 180.3 503.3 L 273.2 503.3 L 273.2 596.1 L 180.3 596.1 Z M 180.3 503.3 "></path></clipPath><g clip-path="url(#clip0x7f841c80a210)"><image xlink:href="../../FC63EAD1-EBCA-4F88-AB1B-2777182F088D/assets/54A08302D51AFB988B42DB3A75CCEBD1.png" width="83.00" height="83.00" transform="matrix(1.12, 0.00, -0.00, -1.12, 180.0, 596.0)"></image></g></g><g><clipPath id="clip0x7f841c80b6e0"><path d="M 287.1 470.0 L 671.6 470.0 L 671.6 592.7 L 287.1 592.7 Z M 287.1 470.0 "></path></clipPath><g clip-path="url(#clip0x7f841c80b6e0)"><text xml:space="preserve" font-family="SharpSansNo1-Extrabold,Sharp Sans No1" font-weight="bold" font-size="34.0" fill="#000000" transform="matrix(1.00, 0.00, -0.00, -1.00, 299.9, 553.7)">D</text><text xml:space="preserve" font-family="SharpSansNo1-Extrabold,Sharp Sans No1" font-weight="bold" font-size="34.0" fill="#000000" transform="matrix(1.00, 0.00, -0.00, -1.00, 321.6, 553.7)">I</text><text xml:space="preserve" font-family="SharpSansNo1-Extrabold,Sharp Sans No1" font-weight="bold" font-size="34.0" fill="#000000" transform="matrix(1.00, 0.00, -0.00, -1.00, 329.4, 553.7)">R</text><text xml:space="preserve" font-family="SharpSansNo1-Extrabold,Sharp Sans No1" font-weight="bold" font-size="34.0" fill="#000000" transform="matrix(1.00, 0.00, -0.00, -1.00, 348.8, 553.7)">E</text><text xml:space="preserve" font-family="SharpSansNo1-Extrabold,Sharp Sans No1" font-weight="bold" font-size="34.0" fill="#000000" transform="matrix(1.00, 0.00, -0.00, -1.00, 365.2, 553.7)">C</text><text xml:space="preserve" font-family="SharpSansNo1-Extrabold,Sharp Sans No1" font-weight="bold" font-size="34.0" fill="#000000" transform="matrix(1.00, 0.00, -0.00, -1.00, 389.2, 553.7)">T</text><text xml:space="preserve" font-family="SharpSansNo1-Extrabold,Sharp Sans No1" font-weight="bold" font-size="34.0" fill="#000000" transform="matrix(1.00, 0.00, -0.00, -1.00, 406.6, 553.7)">O</text><text xml:space="preserve" font-family="SharpSansNo1-Extrabold,Sharp Sans No1" font-weight="bold" font-size="34.0" fill="#000000" transform="matrix(1.00, 0.00, -0.00, -1.00, 433.0, 553.7)">R</text><text xml:space="preserve" font-family="SharpSansNo1-Extrabold,Sharp Sans No1" font-weight="bold" font-size="34.0" fill="#000000" transform="matrix(1.00, 0.00, -0.00, -1.00, 450.0, 553.7)">Y</text><text xml:space="preserve" font-family="SharpSansNo1-Extrabold,Sharp Sans No1" font-weight="bold" font-size="34.0" fill="#000000" transform="matrix(1.00, 0.00, -0.00, -1.00, 471.2, 553.7)"> </text><text xml:space="preserve" font-family="SharpSansNo1-Extrabold,Sharp Sans No1" font-weight="bold" font-size="34.0" fill="#000000" transform="matrix(1.00, 0.00, -0.00, -1.00, 299.9, 520.5)">S</text><text xml:space="preserve" font-family="SharpSansNo1-Extrabold,Sharp Sans No1" font-weight="bold" font-size="34.0" fill="#000000" transform="matrix(1.00, 0.00, -0.00, -1.00, 318.5, 520.5)">T</text><text xml:space="preserve" font-family="SharpSansNo1-Extrabold,Sharp Sans No1" font-weight="bold" font-size="34.0" fill="#000000" transform="matrix(1.00, 0.00, -0.00, -1.00, 337.8, 520.5)">R</text><text xml:space="preserve" font-family="SharpSansNo1-Extrabold,Sharp Sans No1" font-weight="bold" font-size="34.0" fill="#000000" transform="matrix(1.00, 0.00, -0.00, -1.00, 357.1, 520.5)">U</text><text xml:space="preserve" font-family="SharpSansNo1-Extrabold,Sharp Sans No1" font-weight="bold" font-size="34.0" fill="#000000" transform="matrix(1.00, 0.00, -0.00, -1.00, 377.3, 520.5)">C</text><text xml:space="preserve" font-family="SharpSansNo1-Extrabold,Sharp Sans No1" font-weight="bold" font-size="34.0" fill="#000000" transform="matrix(1.00, 0.00, -0.00, -1.00, 401.3, 520.5)">T</text><text xml:space="preserve" font-family="SharpSansNo1-Extrabold,Sharp Sans No1" font-weight="bold" font-size="34.0" fill="#000000" transform="matrix(1.00, 0.00, -0.00, -1.00, 420.6, 520.5)">U</text><text xml:space="preserve" font-family="SharpSansNo1-Extrabold,Sharp Sans No1" font-weight="bold" font-size="34.0" fill="#000000" transform="matrix(1.00, 0.00, -0.00, -1.00, 440.8, 520.5)">R</text><text xml:space="preserve" font-family="SharpSansNo1-Extrabold,Sharp Sans No1" font-weight="bold" font-size="34.0" fill="#000000" transform="matrix(1.00, 0.00, -0.00, -1.00, 460.2, 520.5)">E</text></g></g><text xml:space="preserve" font-family="CourierNewPSMT,Courier New" font-size="50.0" fill="#000000" transform="matrix(1.00, 0.00, -0.00, -1.00, 821.7, 897.0)">.</text><text xml:space="preserve" font-family="CourierNewPSMT,Courier New" font-size="50.0" fill="#000000" transform="matrix(1.00, 0.00, -0.00, -1.00, 851.8, 897.0)"> </text><text xml:space="preserve" font-family="CourierNewPSMT,Courier New" font-size="50.0" fill="#000000" transform="matrix(1.00, 0.00, -0.00, -1.00, 821.7, 840.0)">├</text><text xml:space="preserve" font-family="CourierNewPSMT,Courier New" font-size="50.0" fill="#000000" transform="matrix(1.00, 0.00, -0.00, -1.00, 851.8, 840.0)">─</text><text xml:space="preserve" font-family="CourierNewPSMT,Courier New" font-size="50.0" fill="#000000" transform="matrix(1.00, 0.00, -0.00, -1.00, 881.8, 840.0)">─</text><text xml:space="preserve" font-family="CourierNewPSMT,Courier New" font-size="50.0" fill="#000000" transform="matrix(1.00, 0.00, -0.00, -1.00, 911.8, 840.0)"> </text><text xml:space="preserve" font-family="CourierNewPSMT,Courier New" font-size="50.0" fill="#000000" transform="matrix(1.00, 0.00, -0.00, -1.00, 941.8, 840.0)">d</text><text xml:space="preserve" font-family="CourierNewPSMT,Courier New" font-size="50.0" fill="#000000" transform="matrix(1.00, 0.00, -0.00, -1.00, 971.8, 840.0)">o</text><text xml:space="preserve" font-family="CourierNewPSMT,Courier New" font-size="50.0" fill="#000000" transform="matrix(1.00, 0.00, -0.00, -1.00, 1001.8, 840.0)">c</text><text xml:space="preserve" font-family="CourierNewPSMT,Courier New" font-size="50.0" fill="#000000" transform="matrix(1.00, 0.00, -0.00, -1.00, 1031.8, 840.0)">s</text><text xml:space="preserve" font-family="CourierNewPSMT,Courier New" font-size="50.0" fill="#000000" transform="matrix(1.00, 0.00, -0.00, -1.00, 1061.8, 840.0)"> </text><text xml:space="preserve" font-family="CourierNewPSMT,Courier New" font-size="50.0" fill="#000000" transform="matrix(1.00, 0.00, -0.00, -1.00, 821.7, 783.0)">├</text><text xml:space="preserve" font-family="CourierNewPSMT,Courier New" font-size="50.0" fill="#000000" transform="matrix(1.00, 0.00, -0.00, -1.00, 851.8, 783.0)">─</text><text xml:space="preserve" font-family="CourierNewPSMT,Courier New" font-size="50.0" fill="#000000" transform="matrix(1.00, 0.00, -0.00, -1.00, 881.8, 783.0)">─</text><text xml:space="preserve" font-family="CourierNewPSMT,Courier New" font-size="50.0" fill="#000000" transform="matrix(1.00, 0.00, -0.00, -1.00, 911.8, 783.0)"> </text><text xml:space="preserve" font-family="CourierNewPSMT,Courier New" font-size="50.0" fill="#000000" transform="matrix(1.00, 0.00, -0.00, -1.00, 941.8, 783.0)">m</text><text xml:space="preserve" font-family="CourierNewPSMT,Courier New" font-size="50.0" fill="#000000" transform="matrix(1.00, 0.00, -0.00, -1.00, 971.8, 783.0)">i</text><text xml:space="preserve" font-family="CourierNewPSMT,Courier New" font-size="50.0" fill="#000000" transform="matrix(1.00, 0.00, -0.00, -1.00, 1001.8, 783.0)">g</text><text xml:space="preserve" font-family="CourierNewPSMT,Courier New" font-size="50.0" fill="#000000" transform="matrix(1.00, 0.00, -0.00, -1.00, 1031.8, 783.0)">r</text><text xml:space="preserve" font-family="CourierNewPSMT,Courier New" font-size="50.0" fill="#000000" transform="matrix(1.00, 0.00, -0.00, -1.00, 1061.8, 783.0)">a</text><text xml:space="preserve" font-family="CourierNewPSMT,Courier New" font-size="50.0" fill="#000000" transform="matrix(1.00, 0.00, -0.00, -1.00, 1091.8, 783.0)">t</text><text xml:space="preserve" font-family="CourierNewPSMT,Courier New" font-size="50.0" fill="#000000" transform="matrix(1.00, 0.00, -0.00, -1.00, 1121.8, 783.0)">i</text><text xml:space="preserve" font-family="CourierNewPSMT,Courier New" font-size="50.0" fill="#000000" transform="matrix(1.00, 0.00, -0.00, -1.00, 1151.9, 783.0)">o</text><text xml:space="preserve" font-family="CourierNewPSMT,Courier New" font-size="50.0" fill="#000000" transform="matrix(1.00, 0.00, -0.00, -1.00, 1181.9, 783.0)">n</text><text xml:space="preserve" font-family="CourierNewPSMT,Courier New" font-size="50.0" fill="#000000" transform="matrix(1.00, 0.00, -0.00, -1.00, 1211.9, 783.0)">s</text><text xml:space="preserve" font-family="CourierNewPSMT,Courier New" font-size="50.0" fill="#000000" transform="matrix(1.00, 0.00, -0.00, -1.00, 1241.9, 783.0)"> </text><text xml:space="preserve" font-family="CourierNewPSMT,Courier New" font-size="50.0" fill="#000000" transform="matrix(1.00, 0.00, -0.00, -1.00, 821.7, 726.0)">├</text><text xml:space="preserve" font-family="CourierNewPSMT,Courier New" font-size="50.0" fill="#000000" transform="matrix(1.00, 0.00, -0.00, -1.00, 851.8, 726.0)">─</text><text xml:space="preserve" font-family="CourierNewPSMT,Courier New" font-size="50.0" fill="#000000" transform="matrix(1.00, 0.00, -0.00, -1.00, 881.8, 726.0)">─</text><text xml:space="preserve" font-family="CourierNewPSMT,Courier New" font-size="50.0" fill="#000000" transform="matrix(1.00, 0.00, -0.00, -1.00, 911.8, 726.0)"> </text><text xml:space="preserve" font-family="CourierNewPSMT,Courier New" font-size="50.0" fill="#000000" transform="matrix(1.00, 0.00, -0.00, -1.00, 941.8, 726.0)">n</text><text xml:space="preserve" font-family="CourierNewPSMT,Courier New" font-size="50.0" fill="#000000" transform="matrix(1.00, 0.00, -0.00, -1.00, 971.8, 726.0)">o</text><text xml:space="preserve" font-family="CourierNewPSMT,Courier New" font-size="50.0" fill="#000000" transform="matrix(1.00, 0.00, -0.00, -1.00, 1001.8, 726.0)">d</text><text xml:space="preserve" font-family="CourierNewPSMT,Courier New" font-size="50.0" fill="#000000" transform="matrix(1.00, 0.00, -0.00, -1.00, 1031.8, 726.0)">e</text><text xml:space="preserve" font-family="CourierNewPSMT,Courier New" font-size="50.0" fill="#000000" transform="matrix(1.00, 0.00, -0.00, -1.00, 1061.8, 726.0)">_</text><text xml:space="preserve" font-family="CourierNewPSMT,Courier New" font-size="50.0" fill="#000000" transform="matrix(1.00, 0.00, -0.00, -1.00, 1091.8, 726.0)">m</text><text xml:space="preserve" font-family="CourierNewPSMT,Courier New" font-size="50.0" fill="#000000" transform="matrix(1.00, 0.00, -0.00, -1.00, 1121.8, 726.0)">o</text><text xml:space="preserve" font-family="CourierNewPSMT,Courier New" font-size="50.0" fill="#000000" transform="matrix(1.00, 0.00, -0.00, -1.00, 1151.9, 726.0)">d</text><text xml:space="preserve" font-family="CourierNewPSMT,Courier New" font-size="50.0" fill="#000000" transform="matrix(1.00, 0.00, -0.00, -1.00, 1181.9, 726.0)">u</text><text xml:space="preserve" font-family="CourierNewPSMT,Courier New" font-size="50.0" fill="#000000" transform="matrix(1.00, 0.00, -0.00, -1.00, 1211.9, 726.0)">l</text><text xml:space="preserve" font-family="CourierNewPSMT,Courier New" font-size="50.0" fill="#000000" transform="matrix(1.00, 0.00, -0.00, -1.00, 1241.9, 726.0)">e</text><text xml:space="preserve" font-family="CourierNewPSMT,Courier New" font-size="50.0" fill="#000000" transform="matrix(1.00, 0.00, -0.00, -1.00, 1271.9, 726.0)">s</text><text xml:space="preserve" font-family="CourierNewPSMT,Courier New" font-size="50.0" fill="#000000" transform="matrix(1.00, 0.00, -0.00, -1.00, 1301.9, 726.0)"> </text><text xml:space="preserve" font-family="CourierNewPSMT,Courier New" font-size="50.0" fill="#000000" transform="matrix(1.00, 0.00, -0.00, -1.00, 821.7, 669.0)">├</text><text xml:space="preserve" font-family="CourierNewPSMT,Courier New" font-size="50.0" fill="#000000" transform="matrix(1.00, 0.00, -0.00, -1.00, 851.8, 669.0)">─</text><text xml:space="preserve" font-family="CourierNewPSMT,Courier New" font-size="50.0" fill="#000000" transform="matrix(1.00, 0.00, -0.00, -1.00, 881.8, 669.0)">─</text><text xml:space="preserve" font-family="CourierNewPSMT,Courier New" font-size="50.0" fill="#000000" transform="matrix(1.00, 0.00, -0.00, -1.00, 911.8, 669.0)"> </text><text xml:space="preserve" font-family="CourierNewPSMT,Courier New" font-size="50.0" fill="#000000" transform="matrix(1.00, 0.00, -0.00, -1.00, 941.8, 669.0)">s</text><text xml:space="preserve" font-family="CourierNewPSMT,Courier New" font-size="50.0" fill="#000000" transform="matrix(1.00, 0.00, -0.00, -1.00, 971.8, 669.0)">e</text><text xml:space="preserve" font-family="CourierNewPSMT,Courier New" font-size="50.0" fill="#000000" transform="matrix(1.00, 0.00, -0.00, -1.00, 1001.8, 669.0)">e</text><text xml:space="preserve" font-family="CourierNewPSMT,Courier New" font-size="50.0" fill="#000000" transform="matrix(1.00, 0.00, -0.00, -1.00, 1031.8, 669.0)">d</text><text xml:space="preserve" font-family="CourierNewPSMT,Courier New" font-size="50.0" fill="#000000" transform="matrix(1.00, 0.00, -0.00, -1.00, 1061.8, 669.0)">s</text><text xml:space="preserve" font-family="CourierNewPSMT,Courier New" font-size="50.0" fill="#000000" transform="matrix(1.00, 0.00, -0.00, -1.00, 1091.8, 669.0)"> </text><text xml:space="preserve" font-family="CourierNewPSMT,Courier New" font-size="50.0" fill="#000000" transform="matrix(1.00, 0.00, -0.00, -1.00, 821.7, 612.0)">├</text><text xml:space="preserve" font-family="CourierNewPSMT,Courier New" font-size="50.0" fill="#000000" transform="matrix(1.00, 0.00, -0.00, -1.00, 851.8, 612.0)">─</text><text xml:space="preserve" font-family="CourierNewPSMT,Courier New" font-size="50.0" fill="#000000" transform="matrix(1.00, 0.00, -0.00, -1.00, 881.8, 612.0)">─</text><text xml:space="preserve" font-family="CourierNewPSMT,Courier New" font-size="50.0" fill="#000000" transform="matrix(1.00, 0.00, -0.00, -1.00, 911.8, 612.0)"> </text><text xml:space="preserve" font-family="CourierNewPSMT,Courier New" font-size="50.0" fill="#000000" transform="matrix(1.00, 0.00, -0.00, -1.00, 941.8, 612.0)">s</text><text xml:space="preserve" font-family="CourierNewPSMT,Courier New" font-size="50.0" fill="#000000" transform="matrix(1.00, 0.00, -0.00, -1.00, 971.8, 612.0)">r</text><text xml:space="preserve" font-family="CourierNewPSMT,Courier New" font-size="50.0" fill="#000000" transform="matrix(1.00, 0.00, -0.00, -1.00, 1001.8, 612.0)">c</text><text xml:space="preserve" font-family="CourierNewPSMT,Courier New" font-size="50.0" fill="#000000" transform="matrix(1.00, 0.00, -0.00, -1.00, 1031.8, 612.0)"> </text><text xml:space="preserve" font-family="CourierNewPSMT,Courier New" font-size="50.0" fill="#000000" transform="matrix(1.00, 0.00, -0.00, -1.00, 821.7, 555.0)">│</text><text xml:space="preserve" font-family="CourierNewPSMT,Courier New" font-size="50.0" fill="#000000" transform="matrix(1.00, 0.00, -0.00, -1.00, 851.8, 555.0)"> </text><text xml:space="preserve" font-family="CourierNewPSMT,Courier New" font-size="50.0" fill="#000000" transform="matrix(1.00, 0.00, -0.00, -1.00, 881.8, 555.0)"> </text><text xml:space="preserve" font-family="CourierNewPSMT,Courier New" font-size="50.0" fill="#000000" transform="matrix(1.00, 0.00, -0.00, -1.00, 911.8, 555.0)"> </text><text xml:space="preserve" font-family="CourierNewPSMT,Courier New" font-size="50.0" fill="#000000" transform="matrix(1.00, 0.00, -0.00, -1.00, 941.8, 555.0)">├</text><text xml:space="preserve" font-family="CourierNewPSMT,Courier New" font-size="50.0" fill="#000000" transform="matrix(1.00, 0.00, -0.00, -1.00, 971.8, 555.0)">─</text><text xml:space="preserve" font-family="CourierNewPSMT,Courier New" font-size="50.0" fill="#000000" transform="matrix(1.00, 0.00, -0.00, -1.00, 1001.8, 555.0)">─</text><text xml:space="preserve" font-family="CourierNewPSMT,Courier New" font-size="50.0" fill="#000000" transform="matrix(1.00, 0.00, -0.00, -1.00, 1031.8, 555.0)"> </text><text xml:space="preserve" font-family="CourierNewPSMT,Courier New" font-size="50.0" fill="#000000" transform="matrix(1.00, 0.00, -0.00, -1.00, 1061.8, 555.0)">c</text><text xml:space="preserve" font-family="CourierNewPSMT,Courier New" font-size="50.0" fill="#000000" transform="matrix(1.00, 0.00, -0.00, -1.00, 1091.8, 555.0)">o</text><text xml:space="preserve" font-family="CourierNewPSMT,Courier New" font-size="50.0" fill="#000000" transform="matrix(1.00, 0.00, -0.00, -1.00, 1121.8, 555.0)">n</text><text xml:space="preserve" font-family="CourierNewPSMT,Courier New" font-size="50.0" fill="#000000" transform="matrix(1.00, 0.00, -0.00, -1.00, 1151.9, 555.0)">t</text><text xml:space="preserve" font-family="CourierNewPSMT,Courier New" font-size="50.0" fill="#000000" transform="matrix(1.00, 0.00, -0.00, -1.00, 1181.9, 555.0)">r</text><text xml:space="preserve" font-family="CourierNewPSMT,Courier New" font-size="50.0" fill="#000000" transform="matrix(1.00, 0.00, -0.00, -1.00, 1211.9, 555.0)">o</text><text xml:space="preserve" font-family="CourierNewPSMT,Courier New" font-size="50.0" fill="#000000" transform="matrix(1.00, 0.00, -0.00, -1.00, 1241.9, 555.0)">l</text><text xml:space="preserve" font-family="CourierNewPSMT,Courier New" font-size="50.0" fill="#000000" transform="matrix(1.00, 0.00, -0.00, -1.00, 1271.9, 555.0)">l</text><text xml:space="preserve" font-family="CourierNewPSMT,Courier New" font-size="50.0" fill="#000000" transform="matrix(1.00, 0.00, -0.00, -1.00, 1301.9, 555.0)">e</text><text xml:space="preserve" font-family="CourierNewPSMT,Courier New" font-size="50.0" fill="#000000" transform="matrix(1.00, 0.00, -0.00, -1.00, 1331.9, 555.0)">r</text><text xml:space="preserve" font-family="CourierNewPSMT,Courier New" font-size="50.0" fill="#000000" transform="matrix(1.00, 0.00, -0.00, -1.00, 1361.9, 555.0)">s</text><text xml:space="preserve" font-family="CourierNewPSMT,Courier New" font-size="50.0" fill="#000000" transform="matrix(1.00, 0.00, -0.00, -1.00, 1391.9, 555.0)"> </text><text xml:space="preserve" font-family="CourierNewPSMT,Courier New" font-size="50.0" fill="#000000" transform="matrix(1.00, 0.00, -0.00, -1.00, 821.7, 498.0)">│</text><text xml:space="preserve" font-family="CourierNewPSMT,Courier New" font-size="50.0" fill="#000000" transform="matrix(1.00, 0.00, -0.00, -1.00, 851.8, 498.0)"> </text><text xml:space="preserve" font-family="CourierNewPSMT,Courier New" font-size="50.0" fill="#000000" transform="matrix(1.00, 0.00, -0.00, -1.00, 881.8, 498.0)"> </text><text xml:space="preserve" font-family="CourierNewPSMT,Courier New" font-size="50.0" fill="#000000" transform="matrix(1.00, 0.00, -0.00, -1.00, 911.8, 498.0)"> </text><text xml:space="preserve" font-family="CourierNewPSMT,Courier New" font-size="50.0" fill="#000000" transform="matrix(1.00, 0.00, -0.00, -1.00, 941.8, 498.0)">├</text><text xml:space="preserve" font-family="CourierNewPSMT,Courier New" font-size="50.0" fill="#000000" transform="matrix(1.00, 0.00, -0.00, -1.00, 971.8, 498.0)">─</text><text xml:space="preserve" font-family="CourierNewPSMT,Courier New" font-size="50.0" fill="#000000" transform="matrix(1.00, 0.00, -0.00, -1.00, 1001.8, 498.0)">─</text><text xml:space="preserve" font-family="CourierNewPSMT,Courier New" font-size="50.0" fill="#000000" transform="matrix(1.00, 0.00, -0.00, -1.00, 1031.8, 498.0)"> </text><text xml:space="preserve" font-family="CourierNewPSMT,Courier New" font-size="50.0" fill="#000000" transform="matrix(1.00, 0.00, -0.00, -1.00, 1061.8, 498.0)">m</text><text xml:space="preserve" font-family="CourierNewPSMT,Courier New" font-size="50.0" fill="#000000" transform="matrix(1.00, 0.00, -0.00, -1.00, 1091.8, 498.0)">o</text><text xml:space="preserve" font-family="CourierNewPSMT,Courier New" font-size="50.0" fill="#000000" transform="matrix(1.00, 0.00, -0.00, -1.00, 1121.8, 498.0)">d</text><text xml:space="preserve" font-family="CourierNewPSMT,Courier New" font-size="50.0" fill="#000000" transform="matrix(1.00, 0.00, -0.00, -1.00, 1151.9, 498.0)">e</text><text xml:space="preserve" font-family="CourierNewPSMT,Courier New" font-size="50.0" fill="#000000" transform="matrix(1.00, 0.00, -0.00, -1.00, 1181.9, 498.0)">l</text><text xml:space="preserve" font-family="CourierNewPSMT,Courier New" font-size="50.0" fill="#000000" transform="matrix(1.00, 0.00, -0.00, -1.00, 1211.9, 498.0)">s</text><text xml:space="preserve" font-family="CourierNewPSMT,Courier New" font-size="50.0" fill="#000000" transform="matrix(1.00, 0.00, -0.00, -1.00, 1241.9, 498.0)"> </text><text xml:space="preserve" font-family="CourierNewPSMT,Courier New" font-size="50.0" fill="#000000" transform="matrix(1.00, 0.00, -0.00, -1.00, 821.7, 441.0)">│</text><text xml:space="preserve" font-family="CourierNewPSMT,Courier New" font-size="50.0" fill="#000000" transform="matrix(1.00, 0.00, -0.00, -1.00, 851.8, 441.0)"> </text><text xml:space="preserve" font-family="CourierNewPSMT,Courier New" font-size="50.0" fill="#000000" transform="matrix(1.00, 0.00, -0.00, -1.00, 881.8, 441.0)"> </text><text xml:space="preserve" font-family="CourierNewPSMT,Courier New" font-size="50.0" fill="#000000" transform="matrix(1.00, 0.00, -0.00, -1.00, 911.8, 441.0)"> </text><text xml:space="preserve" font-family="CourierNewPSMT,Courier New" font-size="50.0" fill="#000000" transform="matrix(1.00, 0.00, -0.00, -1.00, 941.8, 441.0)">├</text><text xml:space="preserve" font-family="CourierNewPSMT,Courier New" font-size="50.0" fill="#000000" transform="matrix(1.00, 0.00, -0.00, -1.00, 971.8, 441.0)">─</text><text xml:space="preserve" font-family="CourierNewPSMT,Courier New" font-size="50.0" fill="#000000" transform="matrix(1.00, 0.00, -0.00, -1.00, 1001.8, 441.0)">─</text><text xml:space="preserve" font-family="CourierNewPSMT,Courier New" font-size="50.0" fill="#000000" transform="matrix(1.00, 0.00, -0.00, -1.00, 1031.8, 441.0)"> </text><text xml:space="preserve" font-family="CourierNewPSMT,Courier New" font-size="50.0" fill="#000000" transform="matrix(1.00, 0.00, -0.00, -1.00, 1061.8, 441.0)">s</text><text xml:space="preserve" font-family="CourierNewPSMT,Courier New" font-size="50.0" fill="#000000" transform="matrix(1.00, 0.00, -0.00, -1.00, 1091.8, 441.0)">e</text><text xml:space="preserve" font-family="CourierNewPSMT,Courier New" font-size="50.0" fill="#000000" transform="matrix(1.00, 0.00, -0.00, -1.00, 1121.8, 441.0)">r</text><text xml:space="preserve" font-family="CourierNewPSMT,Courier New" font-size="50.0" fill="#000000" transform="matrix(1.00, 0.00, -0.00, -1.00, 1151.9, 441.0)">v</text><text xml:space="preserve" font-family="CourierNewPSMT,Courier New" font-size="50.0" fill="#000000" transform="matrix(1.00, 0.00, -0.00, -1.00, 1181.9, 441.0)">i</text><text xml:space="preserve" font-family="CourierNewPSMT,Courier New" font-size="50.0" fill="#000000" transform="matrix(1.00, 0.00, -0.00, -1.00, 1211.9, 441.0)">c</text><text xml:space="preserve" font-family="CourierNewPSMT,Courier New" font-size="50.0" fill="#000000" transform="matrix(1.00, 0.00, -0.00, -1.00, 1241.9, 441.0)">e</text><text xml:space="preserve" font-family="CourierNewPSMT,Courier New" font-size="50.0" fill="#000000" transform="matrix(1.00, 0.00, -0.00, -1.00, 1271.9, 441.0)">s</text><text xml:space="preserve" font-family="CourierNewPSMT,Courier New" font-size="50.0" fill="#000000" transform="matrix(1.00, 0.00, -0.00, -1.00, 1301.9, 441.0)"> </text><text xml:space="preserve" font-family="CourierNewPSMT,Courier New" font-size="50.0" fill="#000000" transform="matrix(1.00, 0.00, -0.00, -1.00, 821.7, 384.0)">│</text><text xml:space="preserve" font-family="CourierNewPSMT,Courier New" font-size="50.0" fill="#000000" transform="matrix(1.00, 0.00, -0.00, -1.00, 851.8, 384.0)"> </text><text xml:space="preserve" font-family="CourierNewPSMT,Courier New" font-size="50.0" fill="#000000" transform="matrix(1.00, 0.00, -0.00, -1.00, 881.8, 384.0)"> </text><text xml:space="preserve" font-family="CourierNewPSMT,Courier New" font-size="50.0" fill="#000000" transform="matrix(1.00, 0.00, -0.00, -1.00, 911.8, 384.0)"> </text><text xml:space="preserve" font-family="CourierNewPSMT,Courier New" font-size="50.0" fill="#000000" transform="matrix(1.00, 0.00, -0.00, -1.00, 941.8, 384.0)">└</text><text xml:space="preserve" font-family="CourierNewPSMT,Courier New" font-size="50.0" fill="#000000" transform="matrix(1.00, 0.00, -0.00, -1.00, 971.8, 384.0)">─</text><text xml:space="preserve" font-family="CourierNewPSMT,Courier New" font-size="50.0" fill="#000000" transform="matrix(1.00, 0.00, -0.00, -1.00, 1001.8, 384.0)">─</text><text xml:space="preserve" font-family="CourierNewPSMT,Courier New" font-size="50.0" fill="#000000" transform="matrix(1.00, 0.00, -0.00, -1.00, 1031.8, 384.0)"> </text><text xml:space="preserve" font-family="CourierNewPSMT,Courier New" font-size="50.0" fill="#000000" transform="matrix(1.00, 0.00, -0.00, -1.00, 1061.8, 384.0)">t</text><text xml:space="preserve" font-family="CourierNewPSMT,Courier New" font-size="50.0" fill="#000000" transform="matrix(1.00, 0.00, -0.00, -1.00, 1091.8, 384.0)">a</text><text xml:space="preserve" font-family="CourierNewPSMT,Courier New" font-size="50.0" fill="#000000" transform="matrix(1.00, 0.00, -0.00, -1.00, 1121.8, 384.0)">s</text><text xml:space="preserve" font-family="CourierNewPSMT,Courier New" font-size="50.0" fill="#000000" transform="matrix(1.00, 0.00, -0.00, -1.00, 1151.9, 384.0)">k</text><text xml:space="preserve" font-family="CourierNewPSMT,Courier New" font-size="50.0" fill="#000000" transform="matrix(1.00, 0.00, -0.00, -1.00, 1181.9, 384.0)">s</text><text xml:space="preserve" font-family="CourierNewPSMT,Courier New" font-size="50.0" fill="#000000" transform="matrix(1.00, 0.00, -0.00, -1.00, 1211.9, 384.0)"> </text><text xml:space="preserve" font-family="CourierNewPSMT,Courier New" font-size="50.0" fill="#000000" transform="matrix(1.00, 0.00, -0.00, -1.00, 821.7, 327.0)">├</text><text xml:space="preserve" font-family="CourierNewPSMT,Courier New" font-size="50.0" fill="#000000" transform="matrix(1.00, 0.00, -0.00, -1.00, 851.8, 327.0)">─</text><text xml:space="preserve" font-family="CourierNewPSMT,Courier New" font-size="50.0" fill="#000000" transform="matrix(1.00, 0.00, -0.00, -1.00, 881.8, 327.0)">─</text><text xml:space="preserve" font-family="CourierNewPSMT,Courier New" font-size="50.0" fill="#000000" transform="matrix(1.00, 0.00, -0.00, -1.00, 911.8, 327.0)"> </text><text xml:space="preserve" font-family="CourierNewPSMT,Courier New" font-size="50.0" fill="#000000" transform="matrix(1.00, 0.00, -0.00, -1.00, 941.8, 327.0)">t</text><text xml:space="preserve" font-family="CourierNewPSMT,Courier New" font-size="50.0" fill="#000000" transform="matrix(1.00, 0.00, -0.00, -1.00, 971.8, 327.0)">e</text><text xml:space="preserve" font-family="CourierNewPSMT,Courier New" font-size="50.0" fill="#000000" transform="matrix(1.00, 0.00, -0.00, -1.00, 1001.8, 327.0)">s</text><text xml:space="preserve" font-family="CourierNewPSMT,Courier New" font-size="50.0" fill="#000000" transform="matrix(1.00, 0.00, -0.00, -1.00, 1031.8, 327.0)">t</text><text xml:space="preserve" font-family="CourierNewPSMT,Courier New" font-size="50.0" fill="#000000" transform="matrix(1.00, 0.00, -0.00, -1.00, 1061.8, 327.0)"> </text><text xml:space="preserve" font-family="CourierNewPSMT,Courier New" font-size="50.0" fill="#000000" transform="matrix(1.00, 0.00, -0.00, -1.00, 821.7, 270.0)">└</text><text xml:space="preserve" font-family="CourierNewPSMT,Courier New" font-size="50.0" fill="#000000" transform="matrix(1.00, 0.00, -0.00, -1.00, 851.8, 270.0)">─</text><text xml:space="preserve" font-family="CourierNewPSMT,Courier New" font-size="50.0" fill="#000000" transform="matrix(1.00, 0.00, -0.00, -1.00, 881.8, 270.0)">─</text><text xml:space="preserve" font-family="CourierNewPSMT,Courier New" font-size="50.0" fill="#000000" transform="matrix(1.00, 0.00, -0.00, -1.00, 911.8, 270.0)"> </text><text xml:space="preserve" font-family="CourierNewPSMT,Courier New" font-size="50.0" fill="#000000" transform="matrix(1.00, 0.00, -0.00, -1.00, 941.8, 270.0)">t</text><text xml:space="preserve" font-family="CourierNewPSMT,Courier New" font-size="50.0" fill="#000000" transform="matrix(1.00, 0.00, -0.00, -1.00, 971.8, 270.0)">o</text><text xml:space="preserve" font-family="CourierNewPSMT,Courier New" font-size="50.0" fill="#000000" transform="matrix(1.00, 0.00, -0.00, -1.00, 1001.8, 270.0)">o</text><text xml:space="preserve" font-family="CourierNewPSMT,Courier New" font-size="50.0" fill="#000000" transform="matrix(1.00, 0.00, -0.00, -1.00, 1031.8, 270.0)">l</text><text xml:space="preserve" font-family="CourierNewPSMT,Courier New" font-size="50.0" fill="#000000" transform="matrix(1.00, 0.00, -0.00, -1.00, 1061.8, 270.0)">s</text><text xml:space="preserve" font-family="CourierNewPSMT,Courier New" font-size="50.0" fill="#000000" transform="matrix(1.00, 0.00, -0.00, -1.00, 1091.8, 270.0)"> </text><text xml:space="preserve" font-family="CourierNewPSMT,Courier New" font-size="50.0" fill="#000000" transform="matrix(1.00, 0.00, -0.00, -1.00, 821.7, 156.0)">1</text><text xml:space="preserve" font-family="CourierNewPSMT,Courier New" font-size="50.0" fill="#000000" transform="matrix(1.00, 0.00, -0.00, -1.00, 851.8, 156.0)">0</text><text xml:space="preserve" font-family="CourierNewPSMT,Courier New" font-size="50.0" fill="#000000" transform="matrix(1.00, 0.00, -0.00, -1.00, 881.8, 156.0)"> </text><text xml:space="preserve" font-family="CourierNewPSMT,Courier New" font-size="50.0" fill="#000000" transform="matrix(1.00, 0.00, -0.00, -1.00, 911.8, 156.0)">d</text><text xml:space="preserve" font-family="CourierNewPSMT,Courier New" font-size="50.0" fill="#000000" transform="matrix(1.00, 0.00, -0.00, -1.00, 941.8, 156.0)">i</text><text xml:space="preserve" font-family="CourierNewPSMT,Courier New" font-size="50.0" fill="#000000" transform="matrix(1.00, 0.00, -0.00, -1.00, 971.8, 156.0)">r</text><text xml:space="preserve" font-family="CourierNewPSMT,Courier New" font-size="50.0" fill="#000000" transform="matrix(1.00, 0.00, -0.00, -1.00, 1001.8, 156.0)">e</text><text xml:space="preserve" font-family="CourierNewPSMT,Courier New" font-size="50.0" fill="#000000" transform="matrix(1.00, 0.00, -0.00, -1.00, 1031.8, 156.0)">c</text><text xml:space="preserve" font-family="CourierNewPSMT,Courier New" font-size="50.0" fill="#000000" transform="matrix(1.00, 0.00, -0.00, -1.00, 1061.8, 156.0)">t</text><text xml:space="preserve" font-family="CourierNewPSMT,Courier New" font-size="50.0" fill="#000000" transform="matrix(1.00, 0.00, -0.00, -1.00, 1091.8, 156.0)">o</text><text xml:space="preserve" font-family="CourierNewPSMT,Courier New" font-size="50.0" fill="#000000" transform="matrix(1.00, 0.00, -0.00, -1.00, 1121.8, 156.0)">r</text><text xml:space="preserve" font-family="CourierNewPSMT,Courier New" font-size="50.0" fill="#000000" transform="matrix(1.00, 0.00, -0.00, -1.00, 1151.9, 156.0)">i</text><text xml:space="preserve" font-family="CourierNewPSMT,Courier New" font-size="50.0" fill="#000000" transform="matrix(1.00, 0.00, -0.00, -1.00, 1181.9, 156.0)">e</text><text xml:space="preserve" font-family="CourierNewPSMT,Courier New" font-size="50.0" fill="#000000" transform="matrix(1.00, 0.00, -0.00, -1.00, 1211.9, 156.0)">s</text></g></svg>