<?xml version="1.0" encoding="UTF-8" standalone="no"?><svg xmlns="http://www.w3.org/2000/svg" xmlns:xlink="http://www.w3.org/1999/xlink" clip-rule="evenodd" stroke-miterlimit="10" viewBox="0 0 1920 1080"><desc>SVG generated by Keynote</desc><defs></defs><g transform="matrix(1.00, 0.00, -0.00, -1.00, 0.0, 1080.0)"><path d="M 0.0 1080.0 L 1920.0 1080.0 L 1920.0 0.0 L 0.0 0.0 Z M 0.0 1080.0 " fill="#FEFFFF"></path><image xlink:href="D26E83F84AC3D85A8449988790B3B9C7.png" width="1500.00" height="845.00" transform="matrix(1.28, 0.00, -0.00, -1.28, 0.0, 1080.0)"></image><text xml:space="preserve" font-family="SharpSansNo1-Extrabold,Sharp Sans No1" font-weight="bold" font-size="140.0" fill="#FEFFFE" transform="matrix(1.00, 0.00, -0.00, -1.00, 804.6, 817.8)">N</text><text xml:space="preserve" font-family="SharpSansNo1-Extrabold,Sharp Sans No1" font-weight="bold" font-size="140.0" fill="#FEFFFE" transform="matrix(1.00, 0.00, -0.00, -1.00, 898.8, 817.8)">o</text><text xml:space="preserve" font-family="SharpSansNo1-Extrabold,Sharp Sans No1" font-weight="bold" font-size="140.0" fill="#FEFFFE" transform="matrix(1.00, 0.00, -0.00, -1.00, 972.8, 817.8)">t</text><text xml:space="preserve" font-family="SharpSansNo1-Extrabold,Sharp Sans No1" font-weight="bold" font-size="140.0" fill="#FEFFFE" transform="matrix(1.00, 0.00, -0.00, -1.00, 1026.2, 817.8)">i</text><text xml:space="preserve" font-family="SharpSansNo1-Extrabold,Sharp Sans No1" font-weight="bold" font-size="140.0" fill="#FEFFFE" transform="matrix(1.00, 0.00, -0.00, -1.00, 1057.0, 817.8)">c</text><text xml:space="preserve" font-family="SharpSansNo1-Extrabold,Sharp Sans No1" font-weight="bold" font-size="140.0" fill="#FEFFFE" transform="matrix(1.00, 0.00, -0.00, -1.00, 1131.0, 817.8)">e</text><text xml:space="preserve" font-family="SharpSansNo1-Extrabold,Sharp Sans No1" font-weight="bold" font-size="140.0" fill="#FEFFFE" transform="matrix(1.00, 0.00, -0.00, -1.00, 1208.1, 817.8)"> </text><text xml:space="preserve" font-family="SharpSansNo1-Medium,Sharp Sans No1" font-size="34.5" fill="#FEFFFE" transform="matrix(1.00, 0.00, -0.00, -1.00, 804.6, 648.5)">-</text><text xml:space="preserve" font-family="SharpSansNo1-Medium,Sharp Sans No1" font-size="46.0" fill="#FEFFFE" transform="matrix(1.00, 0.00, -0.00, -1.00, 850.5, 645.3)">Y</text><text xml:space="preserve" font-family="SharpSansNo1-Medium,Sharp Sans No1" font-size="46.0" fill="#FEFFFE" transform="matrix(1.00, 0.00, -0.00, -1.00, 873.0, 645.3)">o</text><text xml:space="preserve" font-family="SharpSansNo1-Medium,Sharp Sans No1" font-size="46.0" fill="#FEFFFE" transform="matrix(1.00, 0.00, -0.00, -1.00, 901.3, 645.3)">u</text><text xml:space="preserve" font-family="SharpSansNo1-Medium,Sharp Sans No1" font-size="46.0" fill="#FEFFFE" transform="matrix(1.00, 0.00, -0.00, -1.00, 928.6, 645.3)"> </text><text xml:space="preserve" font-family="SharpSansNo1-Semibold,Sharp Sans No1" font-weight="bold" font-size="46.0" fill="#FEFFFE" transform="matrix(1.00, 0.00, -0.00, -1.00, 940.1, 645.3)">m</text><text xml:space="preserve" font-family="SharpSansNo1-Semibold,Sharp Sans No1" font-weight="bold" font-size="46.0" fill="#FEFFFE" transform="matrix(1.00, 0.00, -0.00, -1.00, 981.3, 645.3)">u</text><text xml:space="preserve" font-family="SharpSansNo1-Semibold,Sharp Sans No1" font-weight="bold" font-size="46.0" fill="#FEFFFE" transform="matrix(1.00, 0.00, -0.00, -1.00, 1007.3, 645.3)">s</text><text xml:space="preserve" font-family="SharpSansNo1-Semibold,Sharp Sans No1" font-weight="bold" font-size="46.0" fill="#FEFFFE" transform="matrix(1.00, 0.00, -0.00, -1.00, 1028.6, 645.3)">t</text><text xml:space="preserve" font-family="SharpSansNo1-Semibold,Sharp Sans No1" font-weight="bold" font-size="46.0" fill="#FEFFFE" transform="matrix(1.00, 0.00, -0.00, -1.00, 1045.4, 645.3)"> </text><text xml:space="preserve" font-family="SharpSansNo1-Medium,Sharp Sans No1" font-size="46.0" fill="#FEFFFE" transform="matrix(1.00, 0.00, -0.00, -1.00, 1056.8, 645.3)">r</text><text xml:space="preserve" font-family="SharpSansNo1-Medium,Sharp Sans No1" font-size="46.0" fill="#FEFFFE" transform="matrix(1.00, 0.00, -0.00, -1.00, 1073.4, 645.3)">e</text><text xml:space="preserve" font-family="SharpSansNo1-Medium,Sharp Sans No1" font-size="46.0" fill="#FEFFFE" transform="matrix(1.00, 0.00, -0.00, -1.00, 1101.5, 645.3)">s</text><text xml:space="preserve" font-family="SharpSansNo1-Medium,Sharp Sans No1" font-size="46.0" fill="#FEFFFE" transform="matrix(1.00, 0.00, -0.00, -1.00, 1123.4, 645.3)">p</text><text xml:space="preserve" font-family="SharpSansNo1-Medium,Sharp Sans No1" font-size="46.0" fill="#FEFFFE" transform="matrix(1.00, 0.00, -0.00, -1.00, 1152.5, 645.3)">o</text><text xml:space="preserve" font-family="SharpSansNo1-Medium,Sharp Sans No1" font-size="46.0" fill="#FEFFFE" transform="matrix(1.00, 0.00, -0.00, -1.00, 1180.8, 645.3)">n</text><text xml:space="preserve" font-family="SharpSansNo1-Medium,Sharp Sans No1" font-size="46.0" fill="#FEFFFE" transform="matrix(1.00, 0.00, -0.00, -1.00, 1208.2, 645.3)">d</text><text xml:space="preserve" font-family="SharpSansNo1-Medium,Sharp Sans No1" font-size="46.0" fill="#FEFFFE" transform="matrix(1.00, 0.00, -0.00, -1.00, 1237.2, 645.3)"> </text><text xml:space="preserve" font-family="SharpSansNo1-Medium,Sharp Sans No1" font-size="46.0" fill="#FEFFFE" transform="matrix(1.00, 0.00, -0.00, -1.00, 1248.7, 645.3)">o</text><text xml:space="preserve" font-family="SharpSansNo1-Medium,Sharp Sans No1" font-size="46.0" fill="#FEFFFE" transform="matrix(1.00, 0.00, -0.00, -1.00, 1277.0, 645.3)">r</text><text xml:space="preserve" font-family="SharpSansNo1-Medium,Sharp Sans No1" font-size="46.0" fill="#FEFFFE" transform="matrix(1.00, 0.00, -0.00, -1.00, 1294.9, 645.3)"> </text><text xml:space="preserve" font-family="SharpSansNo1-Medium,Sharp Sans No1" font-size="46.0" fill="#FEFFFE" transform="matrix(1.00, 0.00, -0.00, -1.00, 1306.4, 645.3)">c</text><text xml:space="preserve" font-family="SharpSansNo1-Medium,Sharp Sans No1" font-size="46.0" fill="#FEFFFE" transform="matrix(1.00, 0.00, -0.00, -1.00, 1333.4, 645.3)">a</text><text xml:space="preserve" font-family="SharpSansNo1-Medium,Sharp Sans No1" font-size="46.0" fill="#FEFFFE" transform="matrix(1.00, 0.00, -0.00, -1.00, 1362.4, 645.3)">l</text><text xml:space="preserve" font-family="SharpSansNo1-Medium,Sharp Sans No1" font-size="46.0" fill="#FEFFFE" transform="matrix(1.00, 0.00, -0.00, -1.00, 1372.5, 645.3)">l</text><text xml:space="preserve" font-family="SharpSansNo1-Medium,Sharp Sans No1" font-size="46.0" fill="#FEFFFE" transform="matrix(1.00, 0.00, -0.00, -1.00, 1382.3, 645.3)"> </text><text xml:space="preserve" font-family="SharpSansNo1-Medium,Sharp Sans No1" font-size="46.0" fill="#FEFFFE" transform="matrix(1.00, 0.00, -0.00, -1.00, 1393.8, 645.3)">n</text><text xml:space="preserve" font-family="SharpSansNo1-Medium,Sharp Sans No1" font-size="46.0" fill="#FEFFFE" transform="matrix(1.00, 0.00, -0.00, -1.00, 1421.2, 645.3)">e</text><text xml:space="preserve" font-family="SharpSansNo1-Medium,Sharp Sans No1" font-size="46.0" fill="#FEFFFE" transform="matrix(1.00, 0.00, -0.00, -1.00, 1448.2, 645.3)">x</text><text xml:space="preserve" font-family="SharpSansNo1-Medium,Sharp Sans No1" font-size="46.0" fill="#FEFFFE" transform="matrix(1.00, 0.00, -0.00, -1.00, 1472.7, 645.3)">t</text><text xml:space="preserve" font-family="SharpSansNo1-Medium,Sharp Sans No1" font-size="46.0" fill="#FEFFFE" transform="matrix(1.00, 0.00, -0.00, -1.00, 1489.4, 645.3)">,</text><text xml:space="preserve" font-family="SharpSansNo1-Medium,Sharp Sans No1" font-size="46.0" fill="#FEFFFE" transform="matrix(1.00, 0.00, -0.00, -1.00, 1498.7, 645.3)"> </text><text xml:space="preserve" font-family="SharpSansNo1-Medium,Sharp Sans No1" font-size="46.0" fill="#FEFFFE" transform="matrix(1.00, 0.00, -0.00, -1.00, 1510.2, 645.3)">d</text><text xml:space="preserve" font-family="SharpSansNo1-Medium,Sharp Sans No1" font-size="46.0" fill="#FEFFFE" transform="matrix(1.00, 0.00, -0.00, -1.00, 1539.2, 645.3)">o</text><text xml:space="preserve" font-family="SharpSansNo1-Medium,Sharp Sans No1" font-size="46.0" fill="#FEFFFE" transform="matrix(1.00, 0.00, -0.00, -1.00, 1567.5, 645.3)">n</text><text xml:space="preserve" font-family="SharpSansNo1-Medium,Sharp Sans No1" font-size="46.0" fill="#FEFFFE" transform="matrix(1.00, 0.00, -0.00, -1.00, 1594.9, 645.3)">’</text><text xml:space="preserve" font-family="SharpSansNo1-Medium,Sharp Sans No1" font-size="46.0" fill="#FEFFFE" transform="matrix(1.00, 0.00, -0.00, -1.00, 1604.1, 645.3)">t</text><text xml:space="preserve" font-family="SharpSansNo1-Medium,Sharp Sans No1" font-size="46.0" fill="#FEFFFE" transform="matrix(1.00, 0.00, -0.00, -1.00, 1620.8, 645.3)"> </text><text xml:space="preserve" font-family="SharpSansNo1-Medium,Sharp Sans No1" font-size="46.0" fill="#FEFFFE" transform="matrix(1.00, 0.00, -0.00, -1.00, 850.5, 591.0)">f</text><text xml:space="preserve" font-family="SharpSansNo1-Medium,Sharp Sans No1" font-size="46.0" fill="#FEFFFE" transform="matrix(1.00, 0.00, -0.00, -1.00, 865.3, 591.0)">o</text><text xml:space="preserve" font-family="SharpSansNo1-Medium,Sharp Sans No1" font-size="46.0" fill="#FEFFFE" transform="matrix(1.00, 0.00, -0.00, -1.00, 893.6, 591.0)">r</text><text xml:space="preserve" font-family="SharpSansNo1-Medium,Sharp Sans No1" font-size="46.0" fill="#FEFFFE" transform="matrix(1.00, 0.00, -0.00, -1.00, 910.1, 591.0)">g</text><text xml:space="preserve" font-family="SharpSansNo1-Medium,Sharp Sans No1" font-size="46.0" fill="#FEFFFE" transform="matrix(1.00, 0.00, -0.00, -1.00, 939.2, 591.0)">e</text><text xml:space="preserve" font-family="SharpSansNo1-Medium,Sharp Sans No1" font-size="46.0" fill="#FEFFFE" transform="matrix(1.00, 0.00, -0.00, -1.00, 966.7, 591.0)">t</text><text xml:space="preserve" font-family="SharpSansNo1-Medium,Sharp Sans No1" font-size="46.0" fill="#FEFFFE" transform="matrix(1.00, 0.00, -0.00, -1.00, 983.4, 591.0)"> </text><text xml:space="preserve" font-family="SharpSansNo1-Medium,Sharp Sans No1" font-size="46.0" fill="#FEFFFE" transform="matrix(1.00, 0.00, -0.00, -1.00, 994.9, 591.0)">i</text><text xml:space="preserve" font-family="SharpSansNo1-Medium,Sharp Sans No1" font-size="46.0" fill="#FEFFFE" transform="matrix(1.00, 0.00, -0.00, -1.00, 1004.6, 591.0)">t</text><text xml:space="preserve" font-family="SharpSansNo1-Medium,Sharp Sans No1" font-size="46.0" fill="#FEFFFE" transform="matrix(1.00, 0.00, -0.00, -1.00, 1021.3, 591.0)"> </text><text xml:space="preserve" font-family="SharpSansNo1-Medium,Sharp Sans No1" font-size="46.0" fill="#FEFFFE" transform="matrix(1.00, 0.00, -0.00, -1.00, 1032.8, 591.0)">o</text><text xml:space="preserve" font-family="SharpSansNo1-Medium,Sharp Sans No1" font-size="46.0" fill="#FEFFFE" transform="matrix(1.00, 0.00, -0.00, -1.00, 1061.1, 591.0)">r</text><text xml:space="preserve" font-family="SharpSansNo1-Medium,Sharp Sans No1" font-size="46.0" fill="#FEFFFE" transform="matrix(1.00, 0.00, -0.00, -1.00, 1079.0, 591.0)"> </text><text xml:space="preserve" font-family="SharpSansNo1-Medium,Sharp Sans No1" font-size="46.0" fill="#FEFFFE" transform="matrix(1.00, 0.00, -0.00, -1.00, 1090.5, 591.0)">r</text><text xml:space="preserve" font-family="SharpSansNo1-Medium,Sharp Sans No1" font-size="46.0" fill="#FEFFFE" transform="matrix(1.00, 0.00, -0.00, -1.00, 1107.0, 591.0)">e</text><text xml:space="preserve" font-family="SharpSansNo1-Medium,Sharp Sans No1" font-size="46.0" fill="#FEFFFE" transform="matrix(1.00, 0.00, -0.00, -1.00, 1135.2, 591.0)">q</text><text xml:space="preserve" font-family="SharpSansNo1-Medium,Sharp Sans No1" font-size="46.0" fill="#FEFFFE" transform="matrix(1.00, 0.00, -0.00, -1.00, 1164.2, 591.0)">u</text><text xml:space="preserve" font-family="SharpSansNo1-Medium,Sharp Sans No1" font-size="46.0" fill="#FEFFFE" transform="matrix(1.00, 0.00, -0.00, -1.00, 1191.5, 591.0)">e</text><text xml:space="preserve" font-family="SharpSansNo1-Medium,Sharp Sans No1" font-size="46.0" fill="#FEFFFE" transform="matrix(1.00, 0.00, -0.00, -1.00, 1219.7, 591.0)">s</text><text xml:space="preserve" font-family="SharpSansNo1-Medium,Sharp Sans No1" font-size="46.0" fill="#FEFFFE" transform="matrix(1.00, 0.00, -0.00, -1.00, 1241.3, 591.0)">t</text><text xml:space="preserve" font-family="SharpSansNo1-Medium,Sharp Sans No1" font-size="46.0" fill="#FEFFFE" transform="matrix(1.00, 0.00, -0.00, -1.00, 1258.0, 591.0)"> </text><text xml:space="preserve" font-family="SharpSansNo1-Medium,Sharp Sans No1" font-size="46.0" fill="#FEFFFE" transform="matrix(1.00, 0.00, -0.00, -1.00, 1269.5, 591.0)">w</text><text xml:space="preserve" font-family="SharpSansNo1-Medium,Sharp Sans No1" font-size="46.0" fill="#FEFFFE" transform="matrix(1.00, 0.00, -0.00, -1.00, 1309.3, 591.0)">i</text><text xml:space="preserve" font-family="SharpSansNo1-Medium,Sharp Sans No1" font-size="46.0" fill="#FEFFFE" transform="matrix(1.00, 0.00, -0.00, -1.00, 1319.2, 591.0)">l</text><text xml:space="preserve" font-family="SharpSansNo1-Medium,Sharp Sans No1" font-size="46.0" fill="#FEFFFE" transform="matrix(1.00, 0.00, -0.00, -1.00, 1329.3, 591.0)">l</text><text xml:space="preserve" font-family="SharpSansNo1-Medium,Sharp Sans No1" font-size="46.0" fill="#FEFFFE" transform="matrix(1.00, 0.00, -0.00, -1.00, 1339.2, 591.0)"> </text><text xml:space="preserve" font-family="SharpSansNo1-Medium,Sharp Sans No1" font-size="46.0" fill="#FEFFFE" transform="matrix(1.00, 0.00, -0.00, -1.00, 1350.7, 591.0)">h</text><text xml:space="preserve" font-family="SharpSansNo1-Medium,Sharp Sans No1" font-size="46.0" fill="#FEFFFE" transform="matrix(1.00, 0.00, -0.00, -1.00, 1378.1, 591.0)">a</text><text xml:space="preserve" font-family="SharpSansNo1-Medium,Sharp Sans No1" font-size="46.0" fill="#FEFFFE" transform="matrix(1.00, 0.00, -0.00, -1.00, 1407.5, 591.0)">n</text><text xml:space="preserve" font-family="SharpSansNo1-Medium,Sharp Sans No1" font-size="46.0" fill="#FEFFFE" transform="matrix(1.00, 0.00, -0.00, -1.00, 1434.8, 591.0)">g</text><text xml:space="preserve" font-family="SharpSansNo1-Medium,Sharp Sans No1" font-size="46.0" fill="#FEFFFE" transform="matrix(1.00, 0.00, -0.00, -1.00, 1463.9, 591.0)"> </text><text xml:space="preserve" font-family="SharpSansNo1-Medium,Sharp Sans No1" font-size="46.0" fill="#FEFFFE" transform="matrix(1.00, 0.00, -0.00, -1.00, 1475.4, 591.0)">u</text><text xml:space="preserve" font-family="SharpSansNo1-Medium,Sharp Sans No1" font-size="46.0" fill="#FEFFFE" transform="matrix(1.00, 0.00, -0.00, -1.00, 1503.1, 591.0)">n</text><text xml:space="preserve" font-family="SharpSansNo1-Medium,Sharp Sans No1" font-size="46.0" fill="#FEFFFE" transform="matrix(1.00, 0.00, -0.00, -1.00, 1529.3, 591.0)">t</text><text xml:space="preserve" font-family="SharpSansNo1-Medium,Sharp Sans No1" font-size="46.0" fill="#FEFFFE" transform="matrix(1.00, 0.00, -0.00, -1.00, 1546.0, 591.0)">i</text><text xml:space="preserve" font-family="SharpSansNo1-Medium,Sharp Sans No1" font-size="46.0" fill="#FEFFFE" transform="matrix(1.00, 0.00, -0.00, -1.00, 1556.0, 591.0)">l</text><text xml:space="preserve" font-family="SharpSansNo1-Medium,Sharp Sans No1" font-size="46.0" fill="#FEFFFE" transform="matrix(1.00, 0.00, -0.00, -1.00, 1565.8, 591.0)"> </text><text xml:space="preserve" font-family="SharpSansNo1-Medium,Sharp Sans No1" font-size="46.0" fill="#FEFFFE" transform="matrix(1.00, 0.00, -0.00, -1.00, 850.5, 536.8)">t</text><text xml:space="preserve" font-family="SharpSansNo1-Medium,Sharp Sans No1" font-size="46.0" fill="#FEFFFE" transform="matrix(1.00, 0.00, -0.00, -1.00, 867.2, 536.8)">i</text><text xml:space="preserve" font-family="SharpSansNo1-Medium,Sharp Sans No1" font-size="46.0" fill="#FEFFFE" transform="matrix(1.00, 0.00, -0.00, -1.00, 876.9, 536.8)">m</text><text xml:space="preserve" font-family="SharpSansNo1-Medium,Sharp Sans No1" font-size="46.0" fill="#FEFFFE" transform="matrix(1.00, 0.00, -0.00, -1.00, 920.7, 536.8)">e</text><text xml:space="preserve" font-family="SharpSansNo1-Medium,Sharp Sans No1" font-size="46.0" fill="#FEFFFE" transform="matrix(1.00, 0.00, -0.00, -1.00, 948.8, 536.8)">o</text><text xml:space="preserve" font-family="SharpSansNo1-Medium,Sharp Sans No1" font-size="46.0" fill="#FEFFFE" transform="matrix(1.00, 0.00, -0.00, -1.00, 977.1, 536.8)">u</text><text xml:space="preserve" font-family="SharpSansNo1-Medium,Sharp Sans No1" font-size="46.0" fill="#FEFFFE" transform="matrix(1.00, 0.00, -0.00, -1.00, 1004.5, 536.8)">t</text><text xml:space="preserve" font-family="SharpSansNo1-Medium,Sharp Sans No1" font-size="46.0" fill="#FEFFFE" transform="matrix(1.00, 0.00, -0.00, -1.00, 1021.2, 536.8)"> </text><text xml:space="preserve" font-family="SharpSansNo1-Medium,Sharp Sans No1" font-size="34.5" fill="#FEFFFE" transform="matrix(1.00, 0.00, -0.00, -1.00, 804.6, 431.5)">-</text><text xml:space="preserve" font-family="SharpSansNo1-Medium,Sharp Sans No1" font-size="46.0" fill="#FEFFFE" transform="matrix(1.00, 0.00, -0.00, -1.00, 850.5, 428.3)">D</text><text xml:space="preserve" font-family="SharpSansNo1-Medium,Sharp Sans No1" font-size="46.0" fill="#FEFFFE" transform="matrix(1.00, 0.00, -0.00, -1.00, 883.4, 428.3)">o</text><text xml:space="preserve" font-family="SharpSansNo1-Medium,Sharp Sans No1" font-size="46.0" fill="#FEFFFE" transform="matrix(1.00, 0.00, -0.00, -1.00, 911.7, 428.3)">n</text><text xml:space="preserve" font-family="SharpSansNo1-Medium,Sharp Sans No1" font-size="46.0" fill="#FEFFFE" transform="matrix(1.00, 0.00, -0.00, -1.00, 939.1, 428.3)">’</text><text xml:space="preserve" font-family="SharpSansNo1-Medium,Sharp Sans No1" font-size="46.0" fill="#FEFFFE" transform="matrix(1.00, 0.00, -0.00, -1.00, 948.3, 428.3)">t</text><text xml:space="preserve" font-family="SharpSansNo1-Medium,Sharp Sans No1" font-size="46.0" fill="#FEFFFE" transform="matrix(1.00, 0.00, -0.00, -1.00, 965.0, 428.3)"> </text><text xml:space="preserve" font-family="SharpSansNo1-Medium,Sharp Sans No1" font-size="46.0" fill="#FEFFFE" transform="matrix(1.00, 0.00, -0.00, -1.00, 976.5, 428.3)">c</text><text xml:space="preserve" font-family="SharpSansNo1-Medium,Sharp Sans No1" font-size="46.0" fill="#FEFFFE" transform="matrix(1.00, 0.00, -0.00, -1.00, 1003.5, 428.3)">a</text><text xml:space="preserve" font-family="SharpSansNo1-Medium,Sharp Sans No1" font-size="46.0" fill="#FEFFFE" transform="matrix(1.00, 0.00, -0.00, -1.00, 1032.6, 428.3)">l</text><text xml:space="preserve" font-family="SharpSansNo1-Medium,Sharp Sans No1" font-size="46.0" fill="#FEFFFE" transform="matrix(1.00, 0.00, -0.00, -1.00, 1042.6, 428.3)">l</text><text xml:space="preserve" font-family="SharpSansNo1-Medium,Sharp Sans No1" font-size="46.0" fill="#FEFFFE" transform="matrix(1.00, 0.00, -0.00, -1.00, 1052.5, 428.3)"> </text><text xml:space="preserve" font-family="SharpSansNo1-Medium,Sharp Sans No1" font-size="46.0" fill="#FEFFFE" transform="matrix(1.00, 0.00, -0.00, -1.00, 1064.0, 428.3)">n</text><text xml:space="preserve" font-family="SharpSansNo1-Medium,Sharp Sans No1" font-size="46.0" fill="#FEFFFE" transform="matrix(1.00, 0.00, -0.00, -1.00, 1091.3, 428.3)">e</text><text xml:space="preserve" font-family="SharpSansNo1-Medium,Sharp Sans No1" font-size="46.0" fill="#FEFFFE" transform="matrix(1.00, 0.00, -0.00, -1.00, 1118.4, 428.3)">x</text><text xml:space="preserve" font-family="SharpSansNo1-Medium,Sharp Sans No1" font-size="46.0" fill="#FEFFFE" transform="matrix(1.00, 0.00, -0.00, -1.00, 1142.9, 428.3)">t</text><text xml:space="preserve" font-family="SharpSansNo1-Medium,Sharp Sans No1" font-size="46.0" fill="#FEFFFE" transform="matrix(1.00, 0.00, -0.00, -1.00, 1159.6, 428.3)"> </text><text xml:space="preserve" font-family="SharpSansNo1-Medium,Sharp Sans No1" font-size="46.0" fill="#FEFFFE" transform="matrix(1.00, 0.00, -0.00, -1.00, 1171.1, 428.3)">m</text><text xml:space="preserve" font-family="SharpSansNo1-Medium,Sharp Sans No1" font-size="46.0" fill="#FEFFFE" transform="matrix(1.00, 0.00, -0.00, -1.00, 1214.8, 428.3)">u</text><text xml:space="preserve" font-family="SharpSansNo1-Medium,Sharp Sans No1" font-size="46.0" fill="#FEFFFE" transform="matrix(1.00, 0.00, -0.00, -1.00, 1242.2, 428.3)">l</text><text xml:space="preserve" font-family="SharpSansNo1-Medium,Sharp Sans No1" font-size="46.0" fill="#FEFFFE" transform="matrix(1.00, 0.00, -0.00, -1.00, 1252.0, 428.3)">t</text><text xml:space="preserve" font-family="SharpSansNo1-Medium,Sharp Sans No1" font-size="46.0" fill="#FEFFFE" transform="matrix(1.00, 0.00, -0.00, -1.00, 1268.7, 428.3)">i</text><text xml:space="preserve" font-family="SharpSansNo1-Medium,Sharp Sans No1" font-size="46.0" fill="#FEFFFE" transform="matrix(1.00, 0.00, -0.00, -1.00, 1278.5, 428.3)">p</text><text xml:space="preserve" font-family="SharpSansNo1-Medium,Sharp Sans No1" font-size="46.0" fill="#FEFFFE" transform="matrix(1.00, 0.00, -0.00, -1.00, 1307.4, 428.3)">l</text><text xml:space="preserve" font-family="SharpSansNo1-Medium,Sharp Sans No1" font-size="46.0" fill="#FEFFFE" transform="matrix(1.00, 0.00, -0.00, -1.00, 1317.3, 428.3)">e</text><text xml:space="preserve" font-family="SharpSansNo1-Medium,Sharp Sans No1" font-size="46.0" fill="#FEFFFE" transform="matrix(1.00, 0.00, -0.00, -1.00, 1345.4, 428.3)"> </text><text xml:space="preserve" font-family="SharpSansNo1-Medium,Sharp Sans No1" font-size="46.0" fill="#FEFFFE" transform="matrix(1.00, 0.00, -0.00, -1.00, 1356.9, 428.3)">t</text><text xml:space="preserve" font-family="SharpSansNo1-Medium,Sharp Sans No1" font-size="46.0" fill="#FEFFFE" transform="matrix(1.00, 0.00, -0.00, -1.00, 1373.6, 428.3)">i</text><text xml:space="preserve" font-family="SharpSansNo1-Medium,Sharp Sans No1" font-size="46.0" fill="#FEFFFE" transform="matrix(1.00, 0.00, -0.00, -1.00, 1383.4, 428.3)">m</text><text xml:space="preserve" font-family="SharpSansNo1-Medium,Sharp Sans No1" font-size="46.0" fill="#FEFFFE" transform="matrix(1.00, 0.00, -0.00, -1.00, 1427.1, 428.3)">e</text><text xml:space="preserve" font-family="SharpSansNo1-Medium,Sharp Sans No1" font-size="46.0" fill="#FEFFFE" transform="matrix(1.00, 0.00, -0.00, -1.00, 1455.3, 428.3)">s</text><text xml:space="preserve" font-family="SharpSansNo1-Medium,Sharp Sans No1" font-size="46.0" fill="#FEFFFE" transform="matrix(1.00, 0.00, -0.00, -1.00, 1477.1, 428.3)"> </text><text xml:space="preserve" font-family="SharpSansNo1-Medium,Sharp Sans No1" font-size="46.0" fill="#FEFFFE" transform="matrix(1.00, 0.00, -0.00, -1.00, 1488.6, 428.3)">i</text><text xml:space="preserve" font-family="SharpSansNo1-Medium,Sharp Sans No1" font-size="46.0" fill="#FEFFFE" transform="matrix(1.00, 0.00, -0.00, -1.00, 1498.4, 428.3)">n</text><text xml:space="preserve" font-family="SharpSansNo1-Medium,Sharp Sans No1" font-size="46.0" fill="#FEFFFE" transform="matrix(1.00, 0.00, -0.00, -1.00, 1525.7, 428.3)"> </text><text xml:space="preserve" font-family="SharpSansNo1-Medium,Sharp Sans No1" font-size="46.0" fill="#FEFFFE" transform="matrix(1.00, 0.00, -0.00, -1.00, 1537.2, 428.3)">o</text><text xml:space="preserve" font-family="SharpSansNo1-Medium,Sharp Sans No1" font-size="46.0" fill="#FEFFFE" transform="matrix(1.00, 0.00, -0.00, -1.00, 1565.5, 428.3)">n</text><text xml:space="preserve" font-family="SharpSansNo1-Medium,Sharp Sans No1" font-size="46.0" fill="#FEFFFE" transform="matrix(1.00, 0.00, -0.00, -1.00, 1592.9, 428.3)">e</text><text xml:space="preserve" font-family="SharpSansNo1-Medium,Sharp Sans No1" font-size="46.0" fill="#FEFFFE" transform="matrix(1.00, 0.00, -0.00, -1.00, 1621.0, 428.3)"> </text><text xml:space="preserve" font-family="SharpSansNo1-Medium,Sharp Sans No1" font-size="46.0" fill="#FEFFFE" transform="matrix(1.00, 0.00, -0.00, -1.00, 850.5, 374.0)">m</text><text xml:space="preserve" font-family="SharpSansNo1-Medium,Sharp Sans No1" font-size="46.0" fill="#FEFFFE" transform="matrix(1.00, 0.00, -0.00, -1.00, 894.2, 374.0)">i</text><text xml:space="preserve" font-family="SharpSansNo1-Medium,Sharp Sans No1" font-size="46.0" fill="#FEFFFE" transform="matrix(1.00, 0.00, -0.00, -1.00, 904.0, 374.0)">d</text><text xml:space="preserve" font-family="SharpSansNo1-Medium,Sharp Sans No1" font-size="46.0" fill="#FEFFFE" transform="matrix(1.00, 0.00, -0.00, -1.00, 933.0, 374.0)">d</text><text xml:space="preserve" font-family="SharpSansNo1-Medium,Sharp Sans No1" font-size="46.0" fill="#FEFFFE" transform="matrix(1.00, 0.00, -0.00, -1.00, 962.2, 374.0)">l</text><text xml:space="preserve" font-family="SharpSansNo1-Medium,Sharp Sans No1" font-size="46.0" fill="#FEFFFE" transform="matrix(1.00, 0.00, -0.00, -1.00, 972.0, 374.0)">e</text><text xml:space="preserve" font-family="SharpSansNo1-Medium,Sharp Sans No1" font-size="46.0" fill="#FEFFFE" transform="matrix(1.00, 0.00, -0.00, -1.00, 999.5, 374.0)">w</text><text xml:space="preserve" font-family="SharpSansNo1-Medium,Sharp Sans No1" font-size="46.0" fill="#FEFFFE" transform="matrix(1.00, 0.00, -0.00, -1.00, 1038.3, 374.0)">a</text><text xml:space="preserve" font-family="SharpSansNo1-Medium,Sharp Sans No1" font-size="46.0" fill="#FEFFFE" transform="matrix(1.00, 0.00, -0.00, -1.00, 1067.7, 374.0)">r</text><text xml:space="preserve" font-family="SharpSansNo1-Medium,Sharp Sans No1" font-size="46.0" fill="#FEFFFE" transform="matrix(1.00, 0.00, -0.00, -1.00, 1084.2, 374.0)">e</text><text xml:space="preserve" font-family="SharpSansNo1-Medium,Sharp Sans No1" font-size="46.0" fill="#FEFFFE" transform="matrix(1.00, 0.00, -0.00, -1.00, 1112.3, 374.0)"> </text><path d="M -1.0 1081.0 L 671.0 1081.0 L 671.0 -3.0 L -1.0 -3.0 Z M -1.0 1081.0 " fill="#F2F2F2"></path><g><clipPath id="clip0x7f841b236710"><path d="M 160.4 519.0 L 253.3 519.0 L 253.3 611.8 L 160.4 611.8 Z M 160.4 519.0 "></path></clipPath><g clip-path="url(#clip0x7f841b236710)"><image xlink:href="../../64BB4636-2949-42F6-B500-CF14DB6465B3/assets/C6BFB33819CE82142561D331551856C3.png" width="83.00" height="83.00" transform="matrix(1.12, 0.00, -0.00, -1.12, 160.0, 612.0)"></image></g></g><g><clipPath id="clip0x7f8418e84cb0"><path d="M 261.5 452.3 L 737.0 452.3 L 737.0 608.3 L 261.5 608.3 Z M 261.5 452.3 "></path></clipPath><g clip-path="url(#clip0x7f8418e84cb0)"><text xml:space="preserve" font-family="SharpSansNo1-Extrabold,Sharp Sans No1" font-weight="bold" font-size="34.0" fill="#000000" transform="matrix(1.00, 0.00, -0.00, -1.00, 274.3, 569.3)">E</text><text xml:space="preserve" font-family="SharpSansNo1-Extrabold,Sharp Sans No1" font-weight="bold" font-size="34.0" fill="#000000" transform="matrix(1.00, 0.00, -0.00, -1.00, 290.7, 569.3)">X</text><text xml:space="preserve" font-family="SharpSansNo1-Extrabold,Sharp Sans No1" font-weight="bold" font-size="34.0" fill="#000000" transform="matrix(1.00, 0.00, -0.00, -1.00, 312.2, 569.3)">P</text><text xml:space="preserve" font-family="SharpSansNo1-Extrabold,Sharp Sans No1" font-weight="bold" font-size="34.0" fill="#000000" transform="matrix(1.00, 0.00, -0.00, -1.00, 331.6, 569.3)">R</text><text xml:space="preserve" font-family="SharpSansNo1-Extrabold,Sharp Sans No1" font-weight="bold" font-size="34.0" fill="#000000" transform="matrix(1.00, 0.00, -0.00, -1.00, 350.9, 569.3)">E</text><text xml:space="preserve" font-family="SharpSansNo1-Extrabold,Sharp Sans No1" font-weight="bold" font-size="34.0" fill="#000000" transform="matrix(1.00, 0.00, -0.00, -1.00, 367.1, 569.3)">S</text><text xml:space="preserve" font-family="SharpSansNo1-Extrabold,Sharp Sans No1" font-weight="bold" font-size="34.0" fill="#000000" transform="matrix(1.00, 0.00, -0.00, -1.00, 386.2, 569.3)">S</text><text xml:space="preserve" font-family="SharpSansNo1-Extrabold,Sharp Sans No1" font-weight="bold" font-size="34.0" fill="#000000" transform="matrix(1.00, 0.00, -0.00, -1.00, 405.7, 569.3)"> </text><text xml:space="preserve" font-family="SharpSansNo1-Extrabold,Sharp Sans No1" font-weight="bold" font-size="34.0" fill="#000000" transform="matrix(1.00, 0.00, -0.00, -1.00, 274.3, 536.0)">M</text><text xml:space="preserve" font-family="SharpSansNo1-Extrabold,Sharp Sans No1" font-weight="bold" font-size="34.0" fill="#000000" transform="matrix(1.00, 0.00, -0.00, -1.00, 300.3, 536.0)">I</text><text xml:space="preserve" font-family="SharpSansNo1-Extrabold,Sharp Sans No1" font-weight="bold" font-size="34.0" fill="#000000" transform="matrix(1.00, 0.00, -0.00, -1.00, 308.2, 536.0)">D</text><text xml:space="preserve" font-family="SharpSansNo1-Extrabold,Sharp Sans No1" font-weight="bold" font-size="34.0" fill="#000000" transform="matrix(1.00, 0.00, -0.00, -1.00, 329.9, 536.0)">D</text><text xml:space="preserve" font-family="SharpSansNo1-Extrabold,Sharp Sans No1" font-weight="bold" font-size="34.0" fill="#000000" transform="matrix(1.00, 0.00, -0.00, -1.00, 351.6, 536.0)">L</text><text xml:space="preserve" font-family="SharpSansNo1-Extrabold,Sharp Sans No1" font-weight="bold" font-size="34.0" fill="#000000" transform="matrix(1.00, 0.00, -0.00, -1.00, 367.2, 536.0)">E</text><text xml:space="preserve" font-family="SharpSansNo1-Extrabold,Sharp Sans No1" font-weight="bold" font-size="34.0" fill="#000000" transform="matrix(1.00, 0.00, -0.00, -1.00, 383.6, 536.0)">W</text><text xml:space="preserve" font-family="SharpSansNo1-Extrabold,Sharp Sans No1" font-weight="bold" font-size="34.0" fill="#000000" transform="matrix(1.00, 0.00, -0.00, -1.00, 413.1, 536.0)">A</text><text xml:space="preserve" font-family="SharpSansNo1-Extrabold,Sharp Sans No1" font-weight="bold" font-size="34.0" fill="#000000" transform="matrix(1.00, 0.00, -0.00, -1.00, 436.1, 536.0)">R</text><text xml:space="preserve" font-family="SharpSansNo1-Extrabold,Sharp Sans No1" font-weight="bold" font-size="34.0" fill="#000000" transform="matrix(1.00, 0.00, -0.00, -1.00, 455.4, 536.0)">E</text><text xml:space="preserve" font-family="SharpSansNo1-Extrabold,Sharp Sans No1" font-weight="bold" font-size="34.0" fill="#000000" transform="matrix(1.00, 0.00, -0.00, -1.00, 471.6, 536.0)">S</text><text xml:space="preserve" font-family="SharpSansNo1-Extrabold,Sharp Sans No1" font-weight="bold" font-size="34.0" fill="#000000" transform="matrix(1.00, 0.00, -0.00, -1.00, 491.1, 536.0)"> </text></g></g></g></svg>