<?xml version="1.0" encoding="UTF-8" standalone="no"?><svg xmlns="http://www.w3.org/2000/svg" xmlns:xlink="http://www.w3.org/1999/xlink" clip-rule="evenodd" stroke-miterlimit="10" viewBox="0 0 1542 756"><desc>SVG generated by Keynote</desc><defs></defs><g transform="matrix(1.00, 0.00, -0.00, -1.00, 0.0, 756.0)"><g><clipPath id="clip0x7f84175453c0"><path d="M -77.7 1109.0 L 2385.5 1109.0 L 2385.5 -532.9 L -77.7 -532.9 Z M -77.7 1109.0 "></path></clipPath><g clip-path="url(#clip0x7f84175453c0)"><g><clipPath id="clip0x7f8417548af0"><path d="M 2.0 1.0 L 1540.0 1.0 L 1540.0 755.0 L 2.0 755.0 Z M 2.0 1.0 "></path></clipPath><g clip-path="url(#clip0x7f8417548af0)"><path d="M 519.5 633.8 C 519.5 568.2 466.4 515.1 400.9 515.1 C 335.3 515.1 282.2 568.2 282.2 633.8 C 282.2 699.4 335.3 752.5 400.9 752.5 C 466.4 752.5 519.5 699.4 519.5 633.8 " fill="#FFFFFF"></path><path d="M 0.0 0.0 C 0.0 -52.9 -42.9 -95.9 -95.9 -95.9 C -148.8 -95.9 -191.7 -52.9 -191.7 0.0 C -191.7 52.9 -148.8 95.9 -95.9 95.9 C -42.9 95.9 0.0 52.9 0.0 0.0 Z M 0.0 0.0 " fill="none" stroke="#000000" stroke-width="4.00" transform="matrix(1.24, 0.00, 0.00, 1.24, 519.5, 633.8)"></path></g></g></g></g><g><clipPath id="clip0x7f8417e6ae00"><path d="M 2.0 1.0 L 1540.0 1.0 L 1540.0 755.0 L 2.0 755.0 Z M 2.0 1.0 "></path></clipPath><g clip-path="url(#clip0x7f8417e6ae00)"><text xml:space="preserve" font-family="SharpSansNo1-Bold,Sharp Sans No1" font-weight="bold" font-size="23.0" fill="#000000" transform="matrix(1.24, 0.00, -0.00, -1.24, 338.4, 635.7)">E</text><text xml:space="preserve" font-family="SharpSansNo1-Bold,Sharp Sans No1" font-weight="bold" font-size="23.0" fill="#000000" transform="matrix(1.24, 0.00, -0.00, -1.24, 352.4, 635.7)">x</text><text xml:space="preserve" font-family="SharpSansNo1-Bold,Sharp Sans No1" font-weight="bold" font-size="23.0" fill="#000000" transform="matrix(1.24, 0.00, -0.00, -1.24, 368.4, 635.7)">p</text><text xml:space="preserve" font-family="SharpSansNo1-Bold,Sharp Sans No1" font-weight="bold" font-size="23.0" fill="#000000" transform="matrix(1.24, 0.00, -0.00, -1.24, 384.9, 635.7)">r</text><text xml:space="preserve" font-family="SharpSansNo1-Bold,Sharp Sans No1" font-weight="bold" font-size="23.0" fill="#000000" transform="matrix(1.24, 0.00, -0.00, -1.24, 395.4, 635.7)">e</text><text xml:space="preserve" font-family="SharpSansNo1-Bold,Sharp Sans No1" font-weight="bold" font-size="23.0" fill="#000000" transform="matrix(1.24, 0.00, -0.00, -1.24, 411.3, 635.7)">s</text><text xml:space="preserve" font-family="SharpSansNo1-Bold,Sharp Sans No1" font-weight="bold" font-size="23.0" fill="#000000" transform="matrix(1.24, 0.00, -0.00, -1.24, 424.9, 635.7)">s</text><text xml:space="preserve" font-family="SharpSansNo1-Bold,Sharp Sans No1" font-weight="bold" font-size="23.0" fill="#000000" transform="matrix(1.24, 0.00, -0.00, -1.24, 438.2, 635.7)">.</text><text xml:space="preserve" font-family="SharpSansNo1-Bold,Sharp Sans No1" font-weight="bold" font-size="23.0" fill="#000000" transform="matrix(1.24, 0.00, -0.00, -1.24, 444.1, 635.7)">j</text><text xml:space="preserve" font-family="SharpSansNo1-Bold,Sharp Sans No1" font-weight="bold" font-size="23.0" fill="#000000" transform="matrix(1.24, 0.00, -0.00, -1.24, 450.0, 635.7)">s</text><text xml:space="preserve" font-family="SharpSansNo1-Bold,Sharp Sans No1" font-weight="bold" font-size="23.0" fill="#000000" transform="matrix(1.24, 0.00, -0.00, -1.24, 376.0, 601.5)">a</text><text xml:space="preserve" font-family="SharpSansNo1-Bold,Sharp Sans No1" font-weight="bold" font-size="23.0" fill="#000000" transform="matrix(1.24, 0.00, -0.00, -1.24, 392.7, 601.5)">p</text><text xml:space="preserve" font-family="SharpSansNo1-Bold,Sharp Sans No1" font-weight="bold" font-size="23.0" fill="#000000" transform="matrix(1.24, 0.00, -0.00, -1.24, 409.2, 601.5)">p</text></g></g><g><clipPath id="clip0x7f8417300660"><path d="M -77.7 1109.0 L 2385.5 1109.0 L 2385.5 -532.9 L -77.7 -532.9 Z M -77.7 1109.0 "></path></clipPath><g clip-path="url(#clip0x7f8417300660)"><g><clipPath id="clip0x7f84174e27b0"><path d="M 2.0 1.0 L 1540.0 1.0 L 1540.0 755.0 L 2.0 755.0 Z M 2.0 1.0 "></path></clipPath><g clip-path="url(#clip0x7f84174e27b0)"><path d="M 821.4 633.8 C 821.4 568.2 768.3 515.1 702.7 515.1 C 637.2 515.1 584.1 568.2 584.1 633.8 C 584.1 699.4 637.2 752.5 702.7 752.5 C 768.3 752.5 821.4 699.4 821.4 633.8 " fill="#FFFFFF"></path><path d="M 0.0 0.0 C 0.0 -52.9 -42.9 -95.9 -95.9 -95.9 C -148.8 -95.9 -191.7 -52.9 -191.7 0.0 C -191.7 52.9 -148.8 95.9 -95.9 95.9 C -42.9 95.9 0.0 52.9 0.0 0.0 Z M 0.0 0.0 " fill="none" stroke="#000000" stroke-width="4.00" transform="matrix(1.24, 0.00, 0.00, 1.24, 821.4, 633.8)"></path></g></g></g></g><g><clipPath id="clip0x7f8417cb4060"><path d="M 2.0 1.0 L 1540.0 1.0 L 1540.0 755.0 L 2.0 755.0 Z M 2.0 1.0 "></path></clipPath><g clip-path="url(#clip0x7f8417cb4060)"><text xml:space="preserve" font-family="SharpSansNo1-Bold,Sharp Sans No1" font-weight="bold" font-size="23.0" fill="#000000" transform="matrix(1.24, 0.00, -0.00, -1.24, 640.3, 635.7)">E</text><text xml:space="preserve" font-family="SharpSansNo1-Bold,Sharp Sans No1" font-weight="bold" font-size="23.0" fill="#000000" transform="matrix(1.24, 0.00, -0.00, -1.24, 654.3, 635.7)">x</text><text xml:space="preserve" font-family="SharpSansNo1-Bold,Sharp Sans No1" font-weight="bold" font-size="23.0" fill="#000000" transform="matrix(1.24, 0.00, -0.00, -1.24, 670.3, 635.7)">p</text><text xml:space="preserve" font-family="SharpSansNo1-Bold,Sharp Sans No1" font-weight="bold" font-size="23.0" fill="#000000" transform="matrix(1.24, 0.00, -0.00, -1.24, 686.8, 635.7)">r</text><text xml:space="preserve" font-family="SharpSansNo1-Bold,Sharp Sans No1" font-weight="bold" font-size="23.0" fill="#000000" transform="matrix(1.24, 0.00, -0.00, -1.24, 697.3, 635.7)">e</text><text xml:space="preserve" font-family="SharpSansNo1-Bold,Sharp Sans No1" font-weight="bold" font-size="23.0" fill="#000000" transform="matrix(1.24, 0.00, -0.00, -1.24, 713.2, 635.7)">s</text><text xml:space="preserve" font-family="SharpSansNo1-Bold,Sharp Sans No1" font-weight="bold" font-size="23.0" fill="#000000" transform="matrix(1.24, 0.00, -0.00, -1.24, 726.8, 635.7)">s</text><text xml:space="preserve" font-family="SharpSansNo1-Bold,Sharp Sans No1" font-weight="bold" font-size="23.0" fill="#000000" transform="matrix(1.24, 0.00, -0.00, -1.24, 740.1, 635.7)">.</text><text xml:space="preserve" font-family="SharpSansNo1-Bold,Sharp Sans No1" font-weight="bold" font-size="23.0" fill="#000000" transform="matrix(1.24, 0.00, -0.00, -1.24, 746.0, 635.7)">j</text><text xml:space="preserve" font-family="SharpSansNo1-Bold,Sharp Sans No1" font-weight="bold" font-size="23.0" fill="#000000" transform="matrix(1.24, 0.00, -0.00, -1.24, 751.9, 635.7)">s</text><text xml:space="preserve" font-family="SharpSansNo1-Bold,Sharp Sans No1" font-weight="bold" font-size="23.0" fill="#000000" transform="matrix(1.24, 0.00, -0.00, -1.24, 677.9, 601.5)">a</text><text xml:space="preserve" font-family="SharpSansNo1-Bold,Sharp Sans No1" font-weight="bold" font-size="23.0" fill="#000000" transform="matrix(1.24, 0.00, -0.00, -1.24, 694.6, 601.5)">p</text><text xml:space="preserve" font-family="SharpSansNo1-Bold,Sharp Sans No1" font-weight="bold" font-size="23.0" fill="#000000" transform="matrix(1.24, 0.00, -0.00, -1.24, 711.1, 601.5)">p</text><text xml:space="preserve" font-family="SharpSansNo1-Bold,Sharp Sans No1" font-weight="bold" font-size="23.0" fill="#000000" transform="matrix(1.24, 0.00, -0.00, -1.24, 17.3, 633.8)">H</text><text xml:space="preserve" font-family="SharpSansNo1-Bold,Sharp Sans No1" font-weight="bold" font-size="23.0" fill="#000000" transform="matrix(1.24, 0.00, -0.00, -1.24, 35.3, 633.8)">e</text><text xml:space="preserve" font-family="SharpSansNo1-Bold,Sharp Sans No1" font-weight="bold" font-size="23.0" fill="#000000" transform="matrix(1.24, 0.00, -0.00, -1.24, 51.2, 633.8)">r</text><text xml:space="preserve" font-family="SharpSansNo1-Bold,Sharp Sans No1" font-weight="bold" font-size="23.0" fill="#000000" transform="matrix(1.24, 0.00, -0.00, -1.24, 61.8, 633.8)">o</text><text xml:space="preserve" font-family="SharpSansNo1-Bold,Sharp Sans No1" font-weight="bold" font-size="23.0" fill="#000000" transform="matrix(1.24, 0.00, -0.00, -1.24, 77.7, 633.8)">k</text><text xml:space="preserve" font-family="SharpSansNo1-Bold,Sharp Sans No1" font-weight="bold" font-size="23.0" fill="#000000" transform="matrix(1.24, 0.00, -0.00, -1.24, 92.5, 633.8)">u</text><text xml:space="preserve" font-family="SharpSansNo1-Bold,Sharp Sans No1" font-weight="bold" font-size="23.0" fill="#000000" transform="matrix(1.24, 0.00, -0.00, -1.24, 107.7, 633.8)"> </text><text xml:space="preserve" font-family="SharpSansNo1-Bold,Sharp Sans No1" font-weight="bold" font-size="23.0" fill="#000000" transform="matrix(1.24, 0.00, -0.00, -1.24, 114.7, 633.8)">d</text><text xml:space="preserve" font-family="SharpSansNo1-Bold,Sharp Sans No1" font-weight="bold" font-size="23.0" fill="#000000" transform="matrix(1.24, 0.00, -0.00, -1.24, 131.3, 633.8)">y</text><text xml:space="preserve" font-family="SharpSansNo1-Bold,Sharp Sans No1" font-weight="bold" font-size="23.0" fill="#000000" transform="matrix(1.24, 0.00, -0.00, -1.24, 147.0, 633.8)">n</text><text xml:space="preserve" font-family="SharpSansNo1-Bold,Sharp Sans No1" font-weight="bold" font-size="23.0" fill="#000000" transform="matrix(1.24, 0.00, -0.00, -1.24, 162.1, 633.8)">o</text><text xml:space="preserve" font-family="SharpSansNo1-Bold,Sharp Sans No1" font-weight="bold" font-size="23.0" fill="#000000" transform="matrix(1.24, 0.00, -0.00, -1.24, 178.0, 633.8)">s</text><text xml:space="preserve" font-family="SharpSansNo1-Bold,Sharp Sans No1" font-weight="bold" font-size="23.0" fill="#000000" transform="matrix(1.24, 0.00, -0.00, -1.24, 2.0, 97.5)">H</text><text xml:space="preserve" font-family="SharpSansNo1-Bold,Sharp Sans No1" font-weight="bold" font-size="23.0" fill="#000000" transform="matrix(1.24, 0.00, -0.00, -1.24, 20.0, 97.5)">e</text><text xml:space="preserve" font-family="SharpSansNo1-Bold,Sharp Sans No1" font-weight="bold" font-size="23.0" fill="#000000" transform="matrix(1.24, 0.00, -0.00, -1.24, 35.9, 97.5)">r</text><text xml:space="preserve" font-family="SharpSansNo1-Bold,Sharp Sans No1" font-weight="bold" font-size="23.0" fill="#000000" transform="matrix(1.24, 0.00, -0.00, -1.24, 46.5, 97.5)">o</text><text xml:space="preserve" font-family="SharpSansNo1-Bold,Sharp Sans No1" font-weight="bold" font-size="23.0" fill="#000000" transform="matrix(1.24, 0.00, -0.00, -1.24, 62.4, 97.5)">k</text><text xml:space="preserve" font-family="SharpSansNo1-Bold,Sharp Sans No1" font-weight="bold" font-size="23.0" fill="#000000" transform="matrix(1.24, 0.00, -0.00, -1.24, 77.2, 97.5)">u</text><text xml:space="preserve" font-family="SharpSansNo1-Bold,Sharp Sans No1" font-weight="bold" font-size="23.0" fill="#000000" transform="matrix(1.24, 0.00, -0.00, -1.24, 92.4, 97.5)"> </text><text xml:space="preserve" font-family="SharpSansNo1-Bold,Sharp Sans No1" font-weight="bold" font-size="23.0" fill="#000000" transform="matrix(1.24, 0.00, -0.00, -1.24, 99.9, 97.5)">a</text><text xml:space="preserve" font-family="SharpSansNo1-Bold,Sharp Sans No1" font-weight="bold" font-size="23.0" fill="#000000" transform="matrix(1.24, 0.00, -0.00, -1.24, 116.5, 97.5)">d</text><text xml:space="preserve" font-family="SharpSansNo1-Bold,Sharp Sans No1" font-weight="bold" font-size="23.0" fill="#000000" transform="matrix(1.24, 0.00, -0.00, -1.24, 133.2, 97.5)">d</text><text xml:space="preserve" font-family="SharpSansNo1-Bold,Sharp Sans No1" font-weight="bold" font-size="23.0" fill="#000000" transform="matrix(1.24, 0.00, -0.00, -1.24, 149.8, 97.5)">-</text><text xml:space="preserve" font-family="SharpSansNo1-Bold,Sharp Sans No1" font-weight="bold" font-size="23.0" fill="#000000" transform="matrix(1.24, 0.00, -0.00, -1.24, 162.3, 97.5)">o</text><text xml:space="preserve" font-family="SharpSansNo1-Bold,Sharp Sans No1" font-weight="bold" font-size="23.0" fill="#000000" transform="matrix(1.24, 0.00, -0.00, -1.24, 178.2, 97.5)">n</text><text xml:space="preserve" font-family="SharpSansNo1-Bold,Sharp Sans No1" font-weight="bold" font-size="23.0" fill="#000000" transform="matrix(1.24, 0.00, -0.00, -1.24, 193.4, 97.5)">s</text></g></g><g><clipPath id="clip0x7f841775e260"><path d="M -77.7 1109.0 L 2385.5 1109.0 L 2385.5 -532.9 L -77.7 -532.9 Z M -77.7 1109.0 "></path></clipPath><g clip-path="url(#clip0x7f841775e260)"><g><clipPath id="clip0x7f841779b880"><path d="M 2.0 1.0 L 1540.0 1.0 L 1540.0 755.0 L 2.0 755.0 Z M 2.0 1.0 "></path></clipPath><g clip-path="url(#clip0x7f841779b880)"><path d="M 445.5 437.3 L 311.1 437.3 L 311.1 610.1 L 445.5 610.1 Z M 445.5 437.3 " fill="none" stroke="#000000" stroke-width="2.92" transform="matrix(1.24, 0.00, 0.00, 1.24, -77.7, -532.9)"></path></g></g></g></g><g><clipPath id="clip0x7f8417ce8cc0"><path d="M 2.0 1.0 L 1540.0 1.0 L 1540.0 755.0 L 2.0 755.0 Z M 2.0 1.0 "></path></clipPath><g clip-path="url(#clip0x7f8417ce8cc0)"><text xml:space="preserve" font-family="SharpSansNo1-Bold,Sharp Sans No1" font-weight="bold" font-size="23.0" fill="#000000" transform="matrix(1.24, 0.00, -0.00, -1.24, 334.7, 104.9)">P</text><text xml:space="preserve" font-family="SharpSansNo1-Bold,Sharp Sans No1" font-weight="bold" font-size="23.0" fill="#000000" transform="matrix(1.24, 0.00, -0.00, -1.24, 350.6, 104.9)">o</text><text xml:space="preserve" font-family="SharpSansNo1-Bold,Sharp Sans No1" font-weight="bold" font-size="23.0" fill="#000000" transform="matrix(1.24, 0.00, -0.00, -1.24, 366.5, 104.9)">s</text><text xml:space="preserve" font-family="SharpSansNo1-Bold,Sharp Sans No1" font-weight="bold" font-size="23.0" fill="#000000" transform="matrix(1.24, 0.00, -0.00, -1.24, 379.5, 104.9)">t</text><text xml:space="preserve" font-family="SharpSansNo1-Bold,Sharp Sans No1" font-weight="bold" font-size="23.0" fill="#000000" transform="matrix(1.24, 0.00, -0.00, -1.24, 389.5, 104.9)">g</text><text xml:space="preserve" font-family="SharpSansNo1-Bold,Sharp Sans No1" font-weight="bold" font-size="23.0" fill="#000000" transform="matrix(1.24, 0.00, -0.00, -1.24, 406.3, 104.9)">r</text><text xml:space="preserve" font-family="SharpSansNo1-Bold,Sharp Sans No1" font-weight="bold" font-size="23.0" fill="#000000" transform="matrix(1.24, 0.00, -0.00, -1.24, 416.8, 104.9)">e</text><text xml:space="preserve" font-family="SharpSansNo1-Bold,Sharp Sans No1" font-weight="bold" font-size="23.0" fill="#000000" transform="matrix(1.24, 0.00, -0.00, -1.24, 432.7, 104.9)">s</text></g></g><g><clipPath id="clip0x7f8417c36df0"><path d="M -77.7 1109.0 L 2385.5 1109.0 L 2385.5 -532.9 L -77.7 -532.9 Z M -77.7 1109.0 "></path></clipPath><g clip-path="url(#clip0x7f8417c36df0)"><g><clipPath id="clip0x7f8417797bc0"><path d="M 2.0 1.0 L 1540.0 1.0 L 1540.0 755.0 L 2.0 755.0 Z M 2.0 1.0 "></path></clipPath><g clip-path="url(#clip0x7f8417797bc0)"><path d="M 630.8 437.3 L 496.3 437.3 L 496.3 610.1 L 630.8 610.1 Z M 630.8 437.3 " fill="none" stroke="#000000" stroke-width="2.92" transform="matrix(1.24, 0.00, 0.00, 1.24, -77.7, -532.9)"></path></g></g></g></g><g><clipPath id="clip0x7f84174a4010"><path d="M 2.0 1.0 L 1540.0 1.0 L 1540.0 755.0 L 2.0 755.0 Z M 2.0 1.0 "></path></clipPath><g clip-path="url(#clip0x7f84174a4010)"><text xml:space="preserve" font-family="SharpSansNo1-Bold,Sharp Sans No1" font-weight="bold" font-size="23.0" fill="#000000" transform="matrix(1.24, 0.00, -0.00, -1.24, 586.1, 104.9)">R</text><text xml:space="preserve" font-family="SharpSansNo1-Bold,Sharp Sans No1" font-weight="bold" font-size="23.0" fill="#000000" transform="matrix(1.24, 0.00, -0.00, -1.24, 601.2, 104.9)">e</text><text xml:space="preserve" font-family="SharpSansNo1-Bold,Sharp Sans No1" font-weight="bold" font-size="23.0" fill="#000000" transform="matrix(1.24, 0.00, -0.00, -1.24, 617.1, 104.9)">d</text><text xml:space="preserve" font-family="SharpSansNo1-Bold,Sharp Sans No1" font-weight="bold" font-size="23.0" fill="#000000" transform="matrix(1.24, 0.00, -0.00, -1.24, 633.8, 104.9)">i</text><text xml:space="preserve" font-family="SharpSansNo1-Bold,Sharp Sans No1" font-weight="bold" font-size="23.0" fill="#000000" transform="matrix(1.24, 0.00, -0.00, -1.24, 639.7, 104.9)">s</text></g></g><g><clipPath id="clip0x7f84173352c0"><path d="M -77.7 1109.0 L 2385.5 1109.0 L 2385.5 -532.9 L -77.7 -532.9 Z M -77.7 1109.0 "></path></clipPath><g clip-path="url(#clip0x7f84173352c0)"><g><clipPath id="clip0x7f8417c83f50"><path d="M 2.0 1.0 L 1540.0 1.0 L 1540.0 755.0 L 2.0 755.0 Z M 2.0 1.0 "></path></clipPath><g clip-path="url(#clip0x7f8417c83f50)"><path d="M 1281.4 104.3 C 1281.4 47.2 1235.2 1.0 1178.3 1.0 C 1121.3 1.0 1075.1 47.2 1075.1 104.3 C 1075.1 161.3 1121.3 207.5 1178.3 207.5 C 1235.2 207.5 1281.4 161.3 1281.4 104.3 " fill="#FF5240"></path></g></g></g></g><g><clipPath id="clip0x7f8417c40bb0"><path d="M 2.0 1.0 L 1540.0 1.0 L 1540.0 755.0 L 2.0 755.0 Z M 2.0 1.0 "></path></clipPath><g clip-path="url(#clip0x7f8417c40bb0)"><text xml:space="preserve" font-family="SharpSansNo1-Bold,Sharp Sans No1" font-weight="bold" font-size="18.0" fill="#FFFFFF" transform="matrix(1.24, 0.00, -0.00, -1.24, 1129.7, 97.5)">N</text><text xml:space="preserve" font-family="SharpSansNo1-Bold,Sharp Sans No1" font-weight="bold" font-size="18.0" fill="#FFFFFF" transform="matrix(1.24, 0.00, -0.00, -1.24, 1145.0, 97.5)">e</text><text xml:space="preserve" font-family="SharpSansNo1-Bold,Sharp Sans No1" font-weight="bold" font-size="18.0" fill="#FFFFFF" transform="matrix(1.24, 0.00, -0.00, -1.24, 1156.4, 97.5)">w</text><text xml:space="preserve" font-family="SharpSansNo1-Bold,Sharp Sans No1" font-weight="bold" font-size="18.0" fill="#FFFFFF" transform="matrix(1.24, 0.00, -0.00, -1.24, 1176.0, 97.5)"> </text><text xml:space="preserve" font-family="SharpSansNo1-Bold,Sharp Sans No1" font-weight="bold" font-size="18.0" fill="#FFFFFF" transform="matrix(1.24, 0.00, -0.00, -1.24, 1181.5, 97.5)">R</text><text xml:space="preserve" font-family="SharpSansNo1-Bold,Sharp Sans No1" font-weight="bold" font-size="18.0" fill="#FFFFFF" transform="matrix(1.24, 0.00, -0.00, -1.24, 1193.2, 97.5)">e</text><text xml:space="preserve" font-family="SharpSansNo1-Bold,Sharp Sans No1" font-weight="bold" font-size="18.0" fill="#FFFFFF" transform="matrix(1.24, 0.00, -0.00, -1.24, 1205.6, 97.5)">l</text><text xml:space="preserve" font-family="SharpSansNo1-Bold,Sharp Sans No1" font-weight="bold" font-size="18.0" fill="#FFFFFF" transform="matrix(1.24, 0.00, -0.00, -1.24, 1210.3, 97.5)">i</text><text xml:space="preserve" font-family="SharpSansNo1-Bold,Sharp Sans No1" font-weight="bold" font-size="18.0" fill="#FFFFFF" transform="matrix(1.24, 0.00, -0.00, -1.24, 1214.9, 97.5)">c</text></g></g><g><clipPath id="clip0x7f841747f040"><path d="M -77.7 1109.0 L 2385.5 1109.0 L 2385.5 -532.9 L -77.7 -532.9 Z M -77.7 1109.0 "></path></clipPath><g clip-path="url(#clip0x7f841747f040)"><g><clipPath id="clip0x7f8417728860"><path d="M 2.0 1.0 L 1540.0 1.0 L 1540.0 755.0 L 2.0 755.0 Z M 2.0 1.0 "></path></clipPath><g clip-path="url(#clip0x7f8417728860)"><path d="M 1021.6 106.7 C 1021.6 49.7 975.4 3.5 918.4 3.5 C 861.5 3.5 815.3 49.7 815.3 106.7 C 815.3 163.8 861.5 210.0 918.4 210.0 C 975.4 210.0 1021.6 163.8 1021.6 106.7 " fill="#FF5240"></path></g></g></g></g><g><clipPath id="clip0x7f84174b3860"><path d="M 2.0 1.0 L 1540.0 1.0 L 1540.0 755.0 L 2.0 755.0 Z M 2.0 1.0 "></path></clipPath><g clip-path="url(#clip0x7f84174b3860)"><text xml:space="preserve" font-family="SharpSansNo1-Bold,Sharp Sans No1" font-weight="bold" font-size="18.0" fill="#FFFFFF" transform="matrix(1.24, 0.00, -0.00, -1.24, 884.1, 113.6)">H</text><text xml:space="preserve" font-family="SharpSansNo1-Bold,Sharp Sans No1" font-weight="bold" font-size="18.0" fill="#FFFFFF" transform="matrix(1.24, 0.00, -0.00, -1.24, 898.2, 113.6)">e</text><text xml:space="preserve" font-family="SharpSansNo1-Bold,Sharp Sans No1" font-weight="bold" font-size="18.0" fill="#FFFFFF" transform="matrix(1.24, 0.00, -0.00, -1.24, 910.6, 113.6)">r</text><text xml:space="preserve" font-family="SharpSansNo1-Bold,Sharp Sans No1" font-weight="bold" font-size="18.0" fill="#FFFFFF" transform="matrix(1.24, 0.00, -0.00, -1.24, 918.9, 113.6)">o</text><text xml:space="preserve" font-family="SharpSansNo1-Bold,Sharp Sans No1" font-weight="bold" font-size="18.0" fill="#FFFFFF" transform="matrix(1.24, 0.00, -0.00, -1.24, 931.3, 113.6)">k</text><text xml:space="preserve" font-family="SharpSansNo1-Bold,Sharp Sans No1" font-weight="bold" font-size="18.0" fill="#FFFFFF" transform="matrix(1.24, 0.00, -0.00, -1.24, 942.9, 113.6)">u</text><text xml:space="preserve" font-family="SharpSansNo1-Bold,Sharp Sans No1" font-weight="bold" font-size="18.0" fill="#FFFFFF" transform="matrix(1.24, 0.00, -0.00, -1.24, 954.7, 113.6)"> </text><text xml:space="preserve" font-family="SharpSansNo1-Bold,Sharp Sans No1" font-weight="bold" font-size="18.0" fill="#FFFFFF" transform="matrix(1.24, 0.00, -0.00, -1.24, 879.1, 86.9)">S</text><text xml:space="preserve" font-family="SharpSansNo1-Bold,Sharp Sans No1" font-weight="bold" font-size="18.0" fill="#FFFFFF" transform="matrix(1.24, 0.00, -0.00, -1.24, 891.9, 86.9)">c</text><text xml:space="preserve" font-family="SharpSansNo1-Bold,Sharp Sans No1" font-weight="bold" font-size="18.0" fill="#FFFFFF" transform="matrix(1.24, 0.00, -0.00, -1.24, 903.8, 86.9)">h</text><text xml:space="preserve" font-family="SharpSansNo1-Bold,Sharp Sans No1" font-weight="bold" font-size="18.0" fill="#FFFFFF" transform="matrix(1.24, 0.00, -0.00, -1.24, 915.6, 86.9)">d</text><text xml:space="preserve" font-family="SharpSansNo1-Bold,Sharp Sans No1" font-weight="bold" font-size="18.0" fill="#FFFFFF" transform="matrix(1.24, 0.00, -0.00, -1.24, 928.6, 86.9)">u</text><text xml:space="preserve" font-family="SharpSansNo1-Bold,Sharp Sans No1" font-weight="bold" font-size="18.0" fill="#FFFFFF" transform="matrix(1.24, 0.00, -0.00, -1.24, 940.4, 86.9)">l</text><text xml:space="preserve" font-family="SharpSansNo1-Bold,Sharp Sans No1" font-weight="bold" font-size="18.0" fill="#FFFFFF" transform="matrix(1.24, 0.00, -0.00, -1.24, 945.0, 86.9)">e</text><text xml:space="preserve" font-family="SharpSansNo1-Bold,Sharp Sans No1" font-weight="bold" font-size="18.0" fill="#FFFFFF" transform="matrix(1.24, 0.00, -0.00, -1.24, 957.5, 86.9)">r</text></g></g><g><clipPath id="clip0x7f8417c36940"><path d="M -77.7 1109.0 L 2385.5 1109.0 L 2385.5 -532.9 L -77.7 -532.9 Z M -77.7 1109.0 "></path></clipPath><g clip-path="url(#clip0x7f8417c36940)"><g><clipPath id="clip0x7f84174be8e0"><path d="M 2.0 1.0 L 1540.0 1.0 L 1540.0 755.0 L 2.0 755.0 Z M 2.0 1.0 "></path></clipPath><g clip-path="url(#clip0x7f84174be8e0)"><path d="M 1540.0 106.7 C 1540.0 49.7 1493.8 3.5 1436.8 3.5 C 1379.9 3.5 1333.7 49.7 1333.7 106.7 C 1333.7 163.8 1379.9 210.0 1436.8 210.0 C 1493.8 210.0 1540.0 163.8 1540.0 106.7 " fill="#FF5240"></path></g></g></g></g><g><clipPath id="clip0x7f8417492b90"><path d="M 2.0 1.0 L 1540.0 1.0 L 1540.0 755.0 L 2.0 755.0 Z M 2.0 1.0 "></path></clipPath><g clip-path="url(#clip0x7f8417492b90)"><text xml:space="preserve" font-family="SharpSansNo1-Bold,Sharp Sans No1" font-weight="bold" font-size="18.0" fill="#FFFFFF" transform="matrix(1.24, 0.00, -0.00, -1.24, 1387.7, 100.0)">P</text><text xml:space="preserve" font-family="SharpSansNo1-Bold,Sharp Sans No1" font-weight="bold" font-size="18.0" fill="#FFFFFF" transform="matrix(1.24, 0.00, -0.00, -1.24, 1400.1, 100.0)">a</text><text xml:space="preserve" font-family="SharpSansNo1-Bold,Sharp Sans No1" font-weight="bold" font-size="18.0" fill="#FFFFFF" transform="matrix(1.24, 0.00, -0.00, -1.24, 1413.2, 100.0)">p</text><text xml:space="preserve" font-family="SharpSansNo1-Bold,Sharp Sans No1" font-weight="bold" font-size="18.0" fill="#FFFFFF" transform="matrix(1.24, 0.00, -0.00, -1.24, 1426.2, 100.0)">e</text><text xml:space="preserve" font-family="SharpSansNo1-Bold,Sharp Sans No1" font-weight="bold" font-size="18.0" fill="#FFFFFF" transform="matrix(1.24, 0.00, -0.00, -1.24, 1438.6, 100.0)">r</text><text xml:space="preserve" font-family="SharpSansNo1-Bold,Sharp Sans No1" font-weight="bold" font-size="18.0" fill="#FFFFFF" transform="matrix(1.24, 0.00, -0.00, -1.24, 1447.3, 100.0)">t</text><text xml:space="preserve" font-family="SharpSansNo1-Bold,Sharp Sans No1" font-weight="bold" font-size="18.0" fill="#FFFFFF" transform="matrix(1.24, 0.00, -0.00, -1.24, 1455.5, 100.0)">r</text><text xml:space="preserve" font-family="SharpSansNo1-Bold,Sharp Sans No1" font-weight="bold" font-size="18.0" fill="#FFFFFF" transform="matrix(1.24, 0.00, -0.00, -1.24, 1463.7, 100.0)">a</text><text xml:space="preserve" font-family="SharpSansNo1-Bold,Sharp Sans No1" font-weight="bold" font-size="18.0" fill="#FFFFFF" transform="matrix(1.24, 0.00, -0.00, -1.24, 1476.7, 100.0)">i</text><text xml:space="preserve" font-family="SharpSansNo1-Bold,Sharp Sans No1" font-weight="bold" font-size="18.0" fill="#FFFFFF" transform="matrix(1.24, 0.00, -0.00, -1.24, 1481.4, 100.0)">l</text></g></g><g><clipPath id="clip0x7f8417711db0"><path d="M -77.7 1109.0 L 2385.5 1109.0 L 2385.5 -532.9 L -77.7 -532.9 Z M -77.7 1109.0 "></path></clipPath><g clip-path="url(#clip0x7f8417711db0)"><g><clipPath id="clip0x7f84174fb360"><path d="M 2.0 1.0 L 1540.0 1.0 L 1540.0 755.0 L 2.0 755.0 Z M 2.0 1.0 "></path></clipPath><g clip-path="url(#clip0x7f84174fb360)"><path d="M 1128.2 633.8 C 1128.2 568.2 1075.1 515.1 1009.6 515.1 C 944.1 515.1 891.0 568.2 891.0 633.8 C 891.0 699.4 944.1 752.5 1009.6 752.5 C 1075.1 752.5 1128.2 699.4 1128.2 633.8 " fill="#FFFFFF"></path><path d="M 0.0 0.0 C 0.0 -52.9 -42.9 -95.9 -95.9 -95.9 C -148.8 -95.9 -191.7 -52.9 -191.7 0.0 C -191.7 52.9 -148.8 95.9 -95.9 95.9 C -42.9 95.9 0.0 52.9 0.0 0.0 Z M 0.0 0.0 " fill="none" stroke="#000000" stroke-width="4.00" transform="matrix(1.24, 0.00, 0.00, 1.24, 1128.2, 633.8)"></path></g></g></g></g><g><clipPath id="clip0x7f841878b150"><path d="M 2.0 1.0 L 1540.0 1.0 L 1540.0 755.0 L 2.0 755.0 Z M 2.0 1.0 "></path></clipPath><g clip-path="url(#clip0x7f841878b150)"><text xml:space="preserve" font-family="SharpSansNo1-Bold,Sharp Sans No1" font-weight="bold" font-size="23.0" fill="#000000" transform="matrix(1.24, 0.00, -0.00, -1.24, 953.8, 635.7)">S</text><text xml:space="preserve" font-family="SharpSansNo1-Bold,Sharp Sans No1" font-weight="bold" font-size="23.0" fill="#000000" transform="matrix(1.24, 0.00, -0.00, -1.24, 970.3, 635.7)">c</text><text xml:space="preserve" font-family="SharpSansNo1-Bold,Sharp Sans No1" font-weight="bold" font-size="23.0" fill="#000000" transform="matrix(1.24, 0.00, -0.00, -1.24, 985.5, 635.7)">h</text><text xml:space="preserve" font-family="SharpSansNo1-Bold,Sharp Sans No1" font-weight="bold" font-size="23.0" fill="#000000" transform="matrix(1.24, 0.00, -0.00, -1.24, 1000.7, 635.7)">d</text><text xml:space="preserve" font-family="SharpSansNo1-Bold,Sharp Sans No1" font-weight="bold" font-size="23.0" fill="#000000" transform="matrix(1.24, 0.00, -0.00, -1.24, 1017.3, 635.7)">u</text><text xml:space="preserve" font-family="SharpSansNo1-Bold,Sharp Sans No1" font-weight="bold" font-size="23.0" fill="#000000" transform="matrix(1.24, 0.00, -0.00, -1.24, 1032.4, 635.7)">l</text><text xml:space="preserve" font-family="SharpSansNo1-Bold,Sharp Sans No1" font-weight="bold" font-size="23.0" fill="#000000" transform="matrix(1.24, 0.00, -0.00, -1.24, 1038.3, 635.7)">e</text><text xml:space="preserve" font-family="SharpSansNo1-Bold,Sharp Sans No1" font-weight="bold" font-size="23.0" fill="#000000" transform="matrix(1.24, 0.00, -0.00, -1.24, 1054.2, 635.7)">r</text><text xml:space="preserve" font-family="SharpSansNo1-Bold,Sharp Sans No1" font-weight="bold" font-size="23.0" fill="#000000" transform="matrix(1.24, 0.00, -0.00, -1.24, 977.9, 601.5)">d</text><text xml:space="preserve" font-family="SharpSansNo1-Bold,Sharp Sans No1" font-weight="bold" font-size="23.0" fill="#000000" transform="matrix(1.24, 0.00, -0.00, -1.24, 994.5, 601.5)">y</text><text xml:space="preserve" font-family="SharpSansNo1-Bold,Sharp Sans No1" font-weight="bold" font-size="23.0" fill="#000000" transform="matrix(1.24, 0.00, -0.00, -1.24, 1010.2, 601.5)">n</text><text xml:space="preserve" font-family="SharpSansNo1-Bold,Sharp Sans No1" font-weight="bold" font-size="23.0" fill="#000000" transform="matrix(1.24, 0.00, -0.00, -1.24, 1025.4, 601.5)">o</text></g></g></g></svg>