<?xml version="1.0" encoding="UTF-8" standalone="no"?><svg xmlns="http://www.w3.org/2000/svg" xmlns:xlink="http://www.w3.org/1999/xlink" clip-rule="evenodd" stroke-miterlimit="10" viewBox="0 0 1920 1080"><desc>SVG generated by Keynote</desc><defs></defs><g transform="matrix(1.00, 0.00, -0.00, -1.00, 0.0, 1080.0)"><path d="M 0.0 1080.0 L 1920.0 1080.0 L 1920.0 0.0 L 0.0 0.0 Z M 0.0 1080.0 " fill="#FEFFFF"></path><text xml:space="preserve" font-family="SharpSansNo1-Extrabold,Sharp Sans No1" font-weight="bold" font-size="144.0" fill="#000000" transform="matrix(1.00, 0.00, -0.00, -1.00, 806.5, 755.1)">J</text><text xml:space="preserve" font-family="SharpSansNo1-Extrabold,Sharp Sans No1" font-weight="bold" font-size="144.0" fill="#000000" transform="matrix(1.00, 0.00, -0.00, -1.00, 879.4, 755.1)">u</text><text xml:space="preserve" font-family="SharpSansNo1-Extrabold,Sharp Sans No1" font-weight="bold" font-size="144.0" fill="#000000" transform="matrix(1.00, 0.00, -0.00, -1.00, 954.2, 755.1)">s</text><text xml:space="preserve" font-family="SharpSansNo1-Extrabold,Sharp Sans No1" font-weight="bold" font-size="144.0" fill="#000000" transform="matrix(1.00, 0.00, -0.00, -1.00, 1022.5, 755.1)">t</text><text xml:space="preserve" font-family="SharpSansNo1-Extrabold,Sharp Sans No1" font-weight="bold" font-size="144.0" fill="#000000" transform="matrix(1.00, 0.00, -0.00, -1.00, 1077.4, 755.1)"> </text><text xml:space="preserve" font-family="SharpSansNo1-Extrabold,Sharp Sans No1" font-weight="bold" font-size="144.0" fill="#000000" transform="matrix(1.00, 0.00, -0.00, -1.00, 1112.2, 755.1)">t</text><text xml:space="preserve" font-family="SharpSansNo1-Extrabold,Sharp Sans No1" font-weight="bold" font-size="144.0" fill="#000000" transform="matrix(1.00, 0.00, -0.00, -1.00, 1164.9, 755.1)">e</text><text xml:space="preserve" font-family="SharpSansNo1-Extrabold,Sharp Sans No1" font-weight="bold" font-size="144.0" fill="#000000" transform="matrix(1.00, 0.00, -0.00, -1.00, 1243.8, 755.1)">s</text><text xml:space="preserve" font-family="SharpSansNo1-Extrabold,Sharp Sans No1" font-weight="bold" font-size="144.0" fill="#000000" transform="matrix(1.00, 0.00, -0.00, -1.00, 1312.1, 755.1)">t</text><text xml:space="preserve" font-family="SharpSansNo1-Extrabold,Sharp Sans No1" font-weight="bold" font-size="144.0" fill="#000000" transform="matrix(1.00, 0.00, -0.00, -1.00, 1366.9, 755.1)"> </text><text xml:space="preserve" font-family="SharpSansNo1-Extrabold,Sharp Sans No1" font-weight="bold" font-size="144.0" fill="#000000" transform="matrix(1.00, 0.00, -0.00, -1.00, 1401.8, 755.1)">i</text><text xml:space="preserve" font-family="SharpSansNo1-Extrabold,Sharp Sans No1" font-weight="bold" font-size="144.0" fill="#000000" transform="matrix(1.00, 0.00, -0.00, -1.00, 1433.2, 755.1)">t</text><text xml:space="preserve" font-family="SharpSansNo1-Extrabold,Sharp Sans No1" font-weight="bold" font-size="144.0" fill="#000000" transform="matrix(1.00, 0.00, -0.00, -1.00, 1488.0, 755.1)">!</text><path d="M -1.0 1080.0 L 671.0 1080.0 L 671.0 0.0 L -1.0 0.0 Z M -1.0 1080.0 " fill="#F2F2F2"></path><g><clipPath id="clip0x7f8420353d50"><path d="M 200.6 493.7 L 293.5 493.7 L 293.5 586.5 L 200.6 586.5 Z M 200.6 493.7 "></path></clipPath><g clip-path="url(#clip0x7f8420353d50)"><image xlink:href="../../F04628EF-05AC-415F-9BAD-47366CD804BF/assets/45E10B30AE5E3EB726E3D4829A26302D.png" width="83.00" height="83.00" transform="matrix(1.11, 0.00, -0.00, -1.11, 201.0, 586.0)"></image></g></g><g><clipPath id="clip0x7f84200abd40"><path d="M 307.4 477.6 L 473.9 477.6 L 473.9 567.1 L 307.4 567.1 Z M 307.4 477.6 "></path></clipPath><g clip-path="url(#clip0x7f84200abd40)"><text xml:space="preserve" font-family="SharpSansNo1-Extrabold,Sharp Sans No1" font-weight="bold" font-size="34.0" fill="#000000" transform="matrix(1.00, 0.00, -0.00, -1.00, 320.2, 528.1)">P</text><text xml:space="preserve" font-family="SharpSansNo1-Extrabold,Sharp Sans No1" font-weight="bold" font-size="34.0" fill="#000000" transform="matrix(1.00, 0.00, -0.00, -1.00, 339.6, 528.1)">R</text><text xml:space="preserve" font-family="SharpSansNo1-Extrabold,Sharp Sans No1" font-weight="bold" font-size="34.0" fill="#000000" transform="matrix(1.00, 0.00, -0.00, -1.00, 358.9, 528.1)">O</text><text xml:space="preserve" font-family="SharpSansNo1-Extrabold,Sharp Sans No1" font-weight="bold" font-size="34.0" fill="#000000" transform="matrix(1.00, 0.00, -0.00, -1.00, 385.2, 528.1)"> </text><text xml:space="preserve" font-family="SharpSansNo1-Extrabold,Sharp Sans No1" font-weight="bold" font-size="34.0" fill="#000000" transform="matrix(1.00, 0.00, -0.00, -1.00, 393.5, 528.1)">T</text><text xml:space="preserve" font-family="SharpSansNo1-Extrabold,Sharp Sans No1" font-weight="bold" font-size="34.0" fill="#000000" transform="matrix(1.00, 0.00, -0.00, -1.00, 412.7, 528.1)">I</text><text xml:space="preserve" font-family="SharpSansNo1-Extrabold,Sharp Sans No1" font-weight="bold" font-size="34.0" fill="#000000" transform="matrix(1.00, 0.00, -0.00, -1.00, 420.6, 528.1)">P</text><text xml:space="preserve" font-family="SharpSansNo1-Extrabold,Sharp Sans No1" font-weight="bold" font-size="34.0" fill="#000000" transform="matrix(1.00, 0.00, -0.00, -1.00, 439.7, 528.1)">S</text></g></g><text xml:space="preserve" font-family="SharpSansNo1-Semibold,Sharp Sans No1" font-weight="bold" font-size="57.0" fill="#000000" transform="matrix(1.00, 0.00, -0.00, -1.00, 817.2, 549.6)">T</text><text xml:space="preserve" font-family="SharpSansNo1-Semibold,Sharp Sans No1" font-weight="bold" font-size="57.0" fill="#000000" transform="matrix(1.00, 0.00, -0.00, -1.00, 844.1, 549.6)">e</text><text xml:space="preserve" font-family="SharpSansNo1-Semibold,Sharp Sans No1" font-weight="bold" font-size="57.0" fill="#000000" transform="matrix(1.00, 0.00, -0.00, -1.00, 877.5, 549.6)">s</text><text xml:space="preserve" font-family="SharpSansNo1-Semibold,Sharp Sans No1" font-weight="bold" font-size="57.0" fill="#000000" transform="matrix(1.00, 0.00, -0.00, -1.00, 903.9, 549.6)">t</text><text xml:space="preserve" font-family="SharpSansNo1-Semibold,Sharp Sans No1" font-weight="bold" font-size="57.0" fill="#000000" transform="matrix(1.00, 0.00, -0.00, -1.00, 924.8, 549.6)"> </text><text xml:space="preserve" font-family="SharpSansNo1-Semibold,Sharp Sans No1" font-weight="bold" font-size="57.0" fill="#000000" transform="matrix(1.00, 0.00, -0.00, -1.00, 939.0, 549.6)">t</text><text xml:space="preserve" font-family="SharpSansNo1-Semibold,Sharp Sans No1" font-weight="bold" font-size="57.0" fill="#000000" transform="matrix(1.00, 0.00, -0.00, -1.00, 959.9, 549.6)">h</text><text xml:space="preserve" font-family="SharpSansNo1-Semibold,Sharp Sans No1" font-weight="bold" font-size="57.0" fill="#000000" transform="matrix(1.00, 0.00, -0.00, -1.00, 992.1, 549.6)">e</text><text xml:space="preserve" font-family="SharpSansNo1-Semibold,Sharp Sans No1" font-weight="bold" font-size="57.0" fill="#000000" transform="matrix(1.00, 0.00, -0.00, -1.00, 1025.5, 549.6)"> </text><text xml:space="preserve" font-family="SharpSansNo1-Semibold,Sharp Sans No1" font-weight="bold" font-size="57.0" fill="#000000" transform="matrix(1.00, 0.00, -0.00, -1.00, 1039.6, 549.6)">s</text><text xml:space="preserve" font-family="SharpSansNo1-Semibold,Sharp Sans No1" font-weight="bold" font-size="57.0" fill="#000000" transform="matrix(1.00, 0.00, -0.00, -1.00, 1066.5, 549.6)">m</text><text xml:space="preserve" font-family="SharpSansNo1-Semibold,Sharp Sans No1" font-weight="bold" font-size="57.0" fill="#000000" transform="matrix(1.00, 0.00, -0.00, -1.00, 1117.5, 549.6)">a</text><text xml:space="preserve" font-family="SharpSansNo1-Semibold,Sharp Sans No1" font-weight="bold" font-size="57.0" fill="#000000" transform="matrix(1.00, 0.00, -0.00, -1.00, 1152.1, 549.6)">l</text><text xml:space="preserve" font-family="SharpSansNo1-Semibold,Sharp Sans No1" font-weight="bold" font-size="57.0" fill="#000000" transform="matrix(1.00, 0.00, -0.00, -1.00, 1164.5, 549.6)">l</text><text xml:space="preserve" font-family="SharpSansNo1-Semibold,Sharp Sans No1" font-weight="bold" font-size="57.0" fill="#000000" transform="matrix(1.00, 0.00, -0.00, -1.00, 1176.5, 549.6)"> </text><text xml:space="preserve" font-family="SharpSansNo1-Semibold,Sharp Sans No1" font-weight="bold" font-size="57.0" fill="#000000" transform="matrix(1.00, 0.00, -0.00, -1.00, 1190.6, 549.6)">e</text><text xml:space="preserve" font-family="SharpSansNo1-Semibold,Sharp Sans No1" font-weight="bold" font-size="57.0" fill="#000000" transform="matrix(1.00, 0.00, -0.00, -1.00, 1222.0, 549.6)">x</text><text xml:space="preserve" font-family="SharpSansNo1-Semibold,Sharp Sans No1" font-weight="bold" font-size="57.0" fill="#000000" transform="matrix(1.00, 0.00, -0.00, -1.00, 1250.7, 549.6)">a</text><text xml:space="preserve" font-family="SharpSansNo1-Semibold,Sharp Sans No1" font-weight="bold" font-size="57.0" fill="#000000" transform="matrix(1.00, 0.00, -0.00, -1.00, 1285.7, 549.6)">m</text><text xml:space="preserve" font-family="SharpSansNo1-Semibold,Sharp Sans No1" font-weight="bold" font-size="57.0" fill="#000000" transform="matrix(1.00, 0.00, -0.00, -1.00, 1336.7, 549.6)">p</text><text xml:space="preserve" font-family="SharpSansNo1-Semibold,Sharp Sans No1" font-weight="bold" font-size="57.0" fill="#000000" transform="matrix(1.00, 0.00, -0.00, -1.00, 1371.2, 549.6)">l</text><text xml:space="preserve" font-family="SharpSansNo1-Semibold,Sharp Sans No1" font-weight="bold" font-size="57.0" fill="#000000" transform="matrix(1.00, 0.00, -0.00, -1.00, 1383.2, 549.6)">e</text><text xml:space="preserve" font-family="SharpSansNo1-Semibold,Sharp Sans No1" font-weight="bold" font-size="57.0" fill="#000000" transform="matrix(1.00, 0.00, -0.00, -1.00, 1416.6, 549.6)">s</text><text xml:space="preserve" font-family="SharpSansNo1-Semibold,Sharp Sans No1" font-weight="bold" font-size="57.0" fill="#000000" transform="matrix(1.00, 0.00, -0.00, -1.00, 1443.5, 549.6)"> </text><text xml:space="preserve" font-family="SharpSansNo1-Semibold,Sharp Sans No1" font-weight="bold" font-size="57.0" fill="#000000" transform="matrix(1.00, 0.00, -0.00, -1.00, 1457.6, 549.6)">h</text><text xml:space="preserve" font-family="SharpSansNo1-Semibold,Sharp Sans No1" font-weight="bold" font-size="57.0" fill="#000000" transform="matrix(1.00, 0.00, -0.00, -1.00, 1489.8, 549.6)">e</text><text xml:space="preserve" font-family="SharpSansNo1-Semibold,Sharp Sans No1" font-weight="bold" font-size="57.0" fill="#000000" transform="matrix(1.00, 0.00, -0.00, -1.00, 1523.2, 549.6)">r</text><text xml:space="preserve" font-family="SharpSansNo1-Semibold,Sharp Sans No1" font-weight="bold" font-size="57.0" fill="#000000" transform="matrix(1.00, 0.00, -0.00, -1.00, 1544.0, 549.6)">e</text><text xml:space="preserve" font-family="SharpSansNo1-Semibold,Sharp Sans No1" font-weight="bold" font-size="57.0" fill="#000000" transform="matrix(1.00, 0.00, -0.00, -1.00, 1577.4, 549.6)">:</text><text xml:space="preserve" font-family="Helvetica-Light,Helvetica" font-size="35.0" fill="#379D44" transform="matrix(1.00, 0.00, -0.00, -1.00, 821.4, 495.9)">h</text><text xml:space="preserve" font-family="Helvetica-Light,Helvetica" font-size="35.0" fill="#379D44" transform="matrix(1.00, 0.00, -0.00, -1.00, 840.9, 495.9)">t</text><text xml:space="preserve" font-family="Helvetica-Light,Helvetica" font-size="35.0" fill="#379D44" transform="matrix(1.00, 0.00, -0.00, -1.00, 850.6, 495.9)">t</text><text xml:space="preserve" font-family="Helvetica-Light,Helvetica" font-size="35.0" fill="#379D44" transform="matrix(1.00, 0.00, -0.00, -1.00, 860.3, 495.9)">p</text><text xml:space="preserve" font-family="Helvetica-Light,Helvetica" font-size="35.0" fill="#379D44" transform="matrix(1.00, 0.00, -0.00, -1.00, 881.7, 495.9)">s</text><text xml:space="preserve" font-family="Helvetica-Light,Helvetica" font-size="35.0" fill="#379D44" transform="matrix(1.00, 0.00, -0.00, -1.00, 899.2, 495.9)">:</text><text xml:space="preserve" font-family="Helvetica-Light,Helvetica" font-size="35.0" fill="#379D44" transform="matrix(1.00, 0.00, -0.00, -1.00, 909.0, 495.9)">/</text><text xml:space="preserve" font-family="Helvetica-Light,Helvetica" font-size="35.0" fill="#379D44" transform="matrix(1.00, 0.00, -0.00, -1.00, 918.7, 495.9)">/</text><text xml:space="preserve" font-family="Helvetica-Light,Helvetica" font-size="35.0" fill="#379D44" transform="matrix(1.00, 0.00, -0.00, -1.00, 928.4, 495.9)">g</text><text xml:space="preserve" font-family="Helvetica-Light,Helvetica" font-size="35.0" fill="#379D44" transform="matrix(1.00, 0.00, -0.00, -1.00, 949.8, 495.9)">i</text><text xml:space="preserve" font-family="Helvetica-Light,Helvetica" font-size="35.0" fill="#379D44" transform="matrix(1.00, 0.00, -0.00, -1.00, 957.6, 495.9)">t</text><text xml:space="preserve" font-family="Helvetica-Light,Helvetica" font-size="35.0" fill="#379D44" transform="matrix(1.00, 0.00, -0.00, -1.00, 967.3, 495.9)">h</text><text xml:space="preserve" font-family="Helvetica-Light,Helvetica" font-size="35.0" fill="#379D44" transform="matrix(1.00, 0.00, -0.00, -1.00, 986.8, 495.9)">u</text><text xml:space="preserve" font-family="Helvetica-Light,Helvetica" font-size="35.0" fill="#379D44" transform="matrix(1.00, 0.00, -0.00, -1.00, 1006.2, 495.9)">b</text><text xml:space="preserve" font-family="Helvetica-Light,Helvetica" font-size="35.0" fill="#379D44" transform="matrix(1.00, 0.00, -0.00, -1.00, 1027.6, 495.9)">.</text><text xml:space="preserve" font-family="Helvetica-Light,Helvetica" font-size="35.0" fill="#379D44" transform="matrix(1.00, 0.00, -0.00, -1.00, 1037.3, 495.9)">c</text><text xml:space="preserve" font-family="Helvetica-Light,Helvetica" font-size="35.0" fill="#379D44" transform="matrix(1.00, 0.00, -0.00, -1.00, 1056.8, 495.9)">o</text><text xml:space="preserve" font-family="Helvetica-Light,Helvetica" font-size="35.0" fill="#379D44" transform="matrix(1.00, 0.00, -0.00, -1.00, 1076.3, 495.9)">m</text><text xml:space="preserve" font-family="Helvetica-Light,Helvetica" font-size="35.0" fill="#379D44" transform="matrix(1.00, 0.00, -0.00, -1.00, 1105.4, 495.9)">/</text><text xml:space="preserve" font-family="Helvetica-Light,Helvetica" font-size="35.0" fill="#379D44" transform="matrix(1.00, 0.00, -0.00, -1.00, 1115.1, 495.9)">k</text><text xml:space="preserve" font-family="Helvetica-Light,Helvetica" font-size="35.0" fill="#379D44" transform="matrix(1.00, 0.00, -0.00, -1.00, 1132.6, 495.9)">i</text><text xml:space="preserve" font-family="Helvetica-Light,Helvetica" font-size="35.0" fill="#379D44" transform="matrix(1.00, 0.00, -0.00, -1.00, 1140.4, 495.9)">m</text><text xml:space="preserve" font-family="Helvetica-Light,Helvetica" font-size="35.0" fill="#379D44" transform="matrix(1.00, 0.00, -0.00, -1.00, 1169.6, 495.9)">m</text><text xml:space="preserve" font-family="Helvetica-Light,Helvetica" font-size="35.0" fill="#379D44" transform="matrix(1.00, 0.00, -0.00, -1.00, 1198.7, 495.9)">o</text><text xml:space="preserve" font-family="Helvetica-Light,Helvetica" font-size="35.0" fill="#379D44" transform="matrix(1.00, 0.00, -0.00, -1.00, 1218.2, 495.9)">b</text><text xml:space="preserve" font-family="Helvetica-Light,Helvetica" font-size="35.0" fill="#379D44" transform="matrix(1.00, 0.00, -0.00, -1.00, 1239.6, 495.9)">r</text><text xml:space="preserve" font-family="Helvetica-Light,Helvetica" font-size="35.0" fill="#379D44" transform="matrix(1.00, 0.00, -0.00, -1.00, 1251.2, 495.9)">u</text><text xml:space="preserve" font-family="Helvetica-Light,Helvetica" font-size="35.0" fill="#379D44" transform="matrix(1.00, 0.00, -0.00, -1.00, 1270.7, 495.9)">n</text><text xml:space="preserve" font-family="Helvetica-Light,Helvetica" font-size="35.0" fill="#379D44" transform="matrix(1.00, 0.00, -0.00, -1.00, 1290.1, 495.9)">f</text><text xml:space="preserve" font-family="Helvetica-Light,Helvetica" font-size="35.0" fill="#379D44" transform="matrix(1.00, 0.00, -0.00, -1.00, 1299.9, 495.9)">e</text><text xml:space="preserve" font-family="Helvetica-Light,Helvetica" font-size="35.0" fill="#379D44" transform="matrix(1.00, 0.00, -0.00, -1.00, 1319.3, 495.9)">l</text><text xml:space="preserve" font-family="Helvetica-Light,Helvetica" font-size="35.0" fill="#379D44" transform="matrix(1.00, 0.00, -0.00, -1.00, 1327.1, 495.9)">d</text><text xml:space="preserve" font-family="Helvetica-Light,Helvetica" font-size="35.0" fill="#379D44" transform="matrix(1.00, 0.00, -0.00, -1.00, 1348.5, 495.9)">t</text><text xml:space="preserve" font-family="Helvetica-Light,Helvetica" font-size="35.0" fill="#379D44" transform="matrix(1.00, 0.00, -0.00, -1.00, 1358.2, 495.9)">/</text><text xml:space="preserve" font-family="Helvetica-Light,Helvetica" font-size="35.0" fill="#379D44" transform="matrix(1.00, 0.00, -0.00, -1.00, 1368.0, 495.9)">p</text><text xml:space="preserve" font-family="Helvetica-Light,Helvetica" font-size="35.0" fill="#379D44" transform="matrix(1.00, 0.00, -0.00, -1.00, 1389.3, 495.9)">r</text><text xml:space="preserve" font-family="Helvetica-Light,Helvetica" font-size="35.0" fill="#379D44" transform="matrix(1.00, 0.00, -0.00, -1.00, 1400.4, 495.9)">e</text><text xml:space="preserve" font-family="Helvetica-Light,Helvetica" font-size="35.0" fill="#379D44" transform="matrix(1.00, 0.00, -0.00, -1.00, 1419.8, 495.9)">s</text><text xml:space="preserve" font-family="Helvetica-Light,Helvetica" font-size="35.0" fill="#379D44" transform="matrix(1.00, 0.00, -0.00, -1.00, 1437.3, 495.9)">e</text><text xml:space="preserve" font-family="Helvetica-Light,Helvetica" font-size="35.0" fill="#379D44" transform="matrix(1.00, 0.00, -0.00, -1.00, 1456.8, 495.9)">n</text><text xml:space="preserve" font-family="Helvetica-Light,Helvetica" font-size="35.0" fill="#379D44" transform="matrix(1.00, 0.00, -0.00, -1.00, 1476.2, 495.9)">t</text><text xml:space="preserve" font-family="Helvetica-Light,Helvetica" font-size="35.0" fill="#379D44" transform="matrix(1.00, 0.00, -0.00, -1.00, 1486.0, 495.9)">a</text><text xml:space="preserve" font-family="Helvetica-Light,Helvetica" font-size="35.0" fill="#379D44" transform="matrix(1.00, 0.00, -0.00, -1.00, 1505.4, 495.9)">t</text><text xml:space="preserve" font-family="Helvetica-Light,Helvetica" font-size="35.0" fill="#379D44" transform="matrix(1.00, 0.00, -0.00, -1.00, 1515.2, 495.9)">i</text><text xml:space="preserve" font-family="Helvetica-Light,Helvetica" font-size="35.0" fill="#379D44" transform="matrix(1.00, 0.00, -0.00, -1.00, 1522.9, 495.9)">o</text><text xml:space="preserve" font-family="Helvetica-Light,Helvetica" font-size="35.0" fill="#379D44" transform="matrix(1.00, 0.00, -0.00, -1.00, 1542.4, 495.9)">n</text><text xml:space="preserve" font-family="Helvetica-Light,Helvetica" font-size="35.0" fill="#379D44" transform="matrix(1.00, 0.00, -0.00, -1.00, 1561.9, 495.9)">-</text><text xml:space="preserve" font-family="Helvetica-Light,Helvetica" font-size="35.0" fill="#379D44" transform="matrix(1.00, 0.00, -0.00, -1.00, 1573.5, 495.9)">e</text><text xml:space="preserve" font-family="Helvetica-Light,Helvetica" font-size="35.0" fill="#379D44" transform="matrix(1.00, 0.00, -0.00, -1.00, 1593.0, 495.9)">x</text><text xml:space="preserve" font-family="Helvetica-Light,Helvetica" font-size="35.0" fill="#379D44" transform="matrix(1.00, 0.00, -0.00, -1.00, 1610.5, 495.9)">p</text><text xml:space="preserve" font-family="Helvetica-Light,Helvetica" font-size="35.0" fill="#379D44" transform="matrix(1.00, 0.00, -0.00, -1.00, 1631.9, 495.9)">r</text><text xml:space="preserve" font-family="Helvetica-Light,Helvetica" font-size="35.0" fill="#379D44" transform="matrix(1.00, 0.00, -0.00, -1.00, 1642.9, 495.9)">e</text><text xml:space="preserve" font-family="Helvetica-Light,Helvetica" font-size="35.0" fill="#379D44" transform="matrix(1.00, 0.00, -0.00, -1.00, 1662.3, 495.9)">s</text><text xml:space="preserve" font-family="Helvetica-Light,Helvetica" font-size="35.0" fill="#379D44" transform="matrix(1.00, 0.00, -0.00, -1.00, 1679.8, 495.9)">s</text><text xml:space="preserve" font-family="Helvetica-Light,Helvetica" font-size="35.0" fill="#379D44" transform="matrix(1.00, 0.00, -0.00, -1.00, 1697.3, 495.9)">-</text><text xml:space="preserve" font-family="Helvetica-Light,Helvetica" font-size="35.0" fill="#379D44" transform="matrix(1.00, 0.00, -0.00, -1.00, 1709.0, 495.9)">t</text><text xml:space="preserve" font-family="Helvetica-Light,Helvetica" font-size="35.0" fill="#379D44" transform="matrix(1.00, 0.00, -0.00, -1.00, 1718.7, 495.9)">i</text><text xml:space="preserve" font-family="Helvetica-Light,Helvetica" font-size="35.0" fill="#379D44" transform="matrix(1.00, 0.00, -0.00, -1.00, 1726.5, 495.9)">p</text><text xml:space="preserve" font-family="Helvetica-Light,Helvetica" font-size="35.0" fill="#379D44" transform="matrix(1.00, 0.00, -0.00, -1.00, 1747.9, 495.9)">s</text><g><clipPath id="clip0x7f8420415960"><path d="M 820.4 491.4 L 1765.4 491.4 L 1765.4 495.2 L 820.4 495.2 Z M 820.4 491.4 "></path></clipPath><g clip-path="url(#clip0x7f8420415960)"><path d="M 4.5 40.6 L 948.5 40.6 " fill="none" stroke="#379D44" stroke-width="1.75" transform="matrix(1.00, 0.00, 0.00, -1.00, 816.9, 533.9)"></path></g></g></g></svg>